<svg xmlns="http://www.w3.org/2000/svg" xmlns:xlink="http://www.w3.org/1999/xlink" width="602.97" height="418.755" viewBox="0 0 602.97 418.755">
  <defs>
    <filter id="Trazado_198451" x="225.746" y="330.79" width="377.224" height="87.966" filterUnits="userSpaceOnUse">
      <feOffset dy="3" input="SourceAlpha"/>
      <feGaussianBlur stdDeviation="3" result="blur"/>
      <feFlood flood-opacity="0.161"/>
      <feComposite operator="in" in2="blur"/>
      <feComposite in="SourceGraphic"/>
    </filter>
  </defs>
  <g id="Grupo_156309" data-name="Grupo 156309" transform="translate(-1218 8231.893)">
    <g id="Grupo_156308" data-name="Grupo 156308">
      <path id="Trazado_198462" data-name="Trazado 198462" d="M0,0H83.053V24.731H0Z" transform="translate(1808.3 -8231.893) rotate(90)" fill="#e8e8e8"/>
      <path id="Trazado_198463" data-name="Trazado 198463" d="M0,0H4.2V4.2H0Z" transform="translate(1815.13 -8206.196) rotate(-90)" fill="#1894f6"/>
      <path id="Trazado_198464" data-name="Trazado 198464" d="M0,0H4.2V4.2H0Z" transform="translate(1815.13 -8197.267) rotate(-90)" fill="#1894f6"/>
      <path id="Trazado_198465" data-name="Trazado 198465" d="M0,0H4.2V4.2H0Z" transform="translate(1815.13 -8188.336) rotate(-90)" fill="#1894f6"/>
      <path id="Trazado_198466" data-name="Trazado 198466" d="M0,0H4.2V4.2H0Z" transform="translate(1815.13 -8179.405) rotate(-90)" fill="#1894f6"/>
      <path id="Trazado_198467" data-name="Trazado 198467" d="M0,0H4.2V4.2H0Z" transform="translate(1815.13 -8170.475) rotate(-90)" fill="#1894f6"/>
      <path id="Trazado_198468" data-name="Trazado 198468" d="M0,0H4.2V4.2H0Z" transform="translate(1815.13 -8161.544) rotate(-90)" fill="#1894f6"/>
      <path id="Trazado_198469" data-name="Trazado 198469" d="M0,0H4.2V4.2H0Z" transform="translate(1815.13 -8152.614) rotate(-90)" fill="#1894f6"/>
      <path id="Trazado_198470" data-name="Trazado 198470" d="M0,0H4.2V4.2H0Z" transform="translate(1815.13 -8143.684) rotate(-90)" fill="#1894f6"/>
      <path id="Trazado_198471" data-name="Trazado 198471" d="M0,0H4.2V4.2H0Z" transform="translate(1815.13 -8134.753) rotate(-90)" fill="#1894f6"/>
      <path id="Trazado_198472" data-name="Trazado 198472" d="M0,0H4.2V4.2H0Z" transform="translate(1815.13 -8125.823) rotate(-90)" fill="#1894f6"/>
      <path id="Trazado_198473" data-name="Trazado 198473" d="M0,0H4.2V4.2H0Z" transform="translate(1815.13 -8116.893) rotate(-90)" fill="#1894f6"/>
      <path id="Trazado_198474" data-name="Trazado 198474" d="M0,0H4.2V4.2H0Z" transform="translate(1806.199 -8206.196) rotate(-90)" fill="#1894f6"/>
      <path id="Trazado_198475" data-name="Trazado 198475" d="M0,0H4.2V4.2H0Z" transform="translate(1806.199 -8197.267) rotate(-90)" fill="#1894f6"/>
      <path id="Trazado_198476" data-name="Trazado 198476" d="M0,0H4.2V4.2H0Z" transform="translate(1806.199 -8188.336) rotate(-90)" fill="#1894f6"/>
      <path id="Trazado_198477" data-name="Trazado 198477" d="M0,0H4.2V4.2H0Z" transform="translate(1806.199 -8179.405) rotate(-90)" fill="#1894f6"/>
      <path id="Trazado_198478" data-name="Trazado 198478" d="M0,0H4.2V4.2H0Z" transform="translate(1806.199 -8170.475) rotate(-90)" fill="#1894f6"/>
      <path id="Trazado_198479" data-name="Trazado 198479" d="M0,0H4.2V4.2H0Z" transform="translate(1806.199 -8161.544) rotate(-90)" fill="#1894f6"/>
      <path id="Trazado_198480" data-name="Trazado 198480" d="M0,0H4.2V4.2H0Z" transform="translate(1806.199 -8152.614) rotate(-90)" fill="#1894f6"/>
      <path id="Trazado_198481" data-name="Trazado 198481" d="M0,0H4.2V4.2H0Z" transform="translate(1806.199 -8143.684) rotate(-90)" fill="#1894f6"/>
      <path id="Trazado_198482" data-name="Trazado 198482" d="M0,0H4.2V4.2H0Z" transform="translate(1806.199 -8134.753) rotate(-90)" fill="#1894f6"/>
      <path id="Trazado_198483" data-name="Trazado 198483" d="M0,0H4.2V4.2H0Z" transform="translate(1806.199 -8125.823) rotate(-90)" fill="#1894f6"/>
      <path id="Trazado_198484" data-name="Trazado 198484" d="M0,0H4.2V4.2H0Z" transform="translate(1806.199 -8116.893) rotate(-90)" fill="#1894f6"/>
      <path id="Trazado_198485" data-name="Trazado 198485" d="M0,0H4.2V4.2H0Z" transform="translate(1797.269 -8206.196) rotate(-90)" fill="#1894f6"/>
      <path id="Trazado_198486" data-name="Trazado 198486" d="M0,0H4.2V4.2H0Z" transform="translate(1797.269 -8197.267) rotate(-90)" fill="#1894f6"/>
      <path id="Trazado_198487" data-name="Trazado 198487" d="M0,0H4.2V4.2H0Z" transform="translate(1797.269 -8188.336) rotate(-90)" fill="#1894f6"/>
      <path id="Trazado_198488" data-name="Trazado 198488" d="M0,0H4.2V4.2H0Z" transform="translate(1797.269 -8179.405) rotate(-90)" fill="#1894f6"/>
      <path id="Trazado_198489" data-name="Trazado 198489" d="M0,0H4.2V4.2H0Z" transform="translate(1797.269 -8170.475) rotate(-90)" fill="#1894f6"/>
      <path id="Trazado_198490" data-name="Trazado 198490" d="M0,0H4.2V4.2H0Z" transform="translate(1797.269 -8161.544) rotate(-90)" fill="#1894f6"/>
      <path id="Trazado_198491" data-name="Trazado 198491" d="M0,0H4.2V4.2H0Z" transform="translate(1797.269 -8152.614) rotate(-90)" fill="#1894f6"/>
      <path id="Trazado_198492" data-name="Trazado 198492" d="M0,0H4.2V4.2H0Z" transform="translate(1797.269 -8143.684) rotate(-90)" fill="#1894f6"/>
      <path id="Trazado_198493" data-name="Trazado 198493" d="M0,0H4.2V4.2H0Z" transform="translate(1797.269 -8134.753) rotate(-90)" fill="#1894f6"/>
      <path id="Trazado_198494" data-name="Trazado 198494" d="M0,0H4.2V4.2H0Z" transform="translate(1797.269 -8125.823) rotate(-90)" fill="#1894f6"/>
      <path id="Trazado_198495" data-name="Trazado 198495" d="M0,0H4.2V4.2H0Z" transform="translate(1797.269 -8116.893) rotate(-90)" fill="#1894f6"/>
      <g transform="matrix(1, 0, 0, 1, 1218, -8231.89)" filter="url(#Trazado_198451)">
        <path id="Trazado_198451-2" data-name="Trazado 198451" d="M13,0H56.966a13,13,0,0,1,13,13V346.224a13,13,0,0,1-13,13H13a13,13,0,0,1-13-13V13A13,13,0,0,1,13,0Z" transform="translate(593.97 336.79) rotate(90)" fill="#008cff"/>
      </g>
      <path id="female-speaker-giving-presentation-in-hall-at-university-workshop-audience-or-conference-hall" d="M11,0H528.323a11,11,0,0,1,11,11V350.745a11,11,0,0,1-11,11H11a11,11,0,0,1-11-11V11A11,11,0,0,1,11,0Z" transform="translate(1218 -8211)" fill="#fff"/>
      <g id="Trazado_198452" data-name="Trazado 198452" transform="translate(1225.042 -8231.893)" fill="none">
        <path d="M12,0H537.528a12,12,0,0,1,12,12V356.772a12,12,0,0,1-12,12H12a12,12,0,0,1-12-12V12A12,12,0,0,1,12,0Z" stroke="none"/>
        <path d="M 12 3.000030517578125 C 7.037353515625 3.000030517578125 3 7.037384033203125 3 12.00003051757812 L 3 356.7723083496094 C 3 361.7349548339844 7.037353515625 365.7723083496094 12 365.7723083496094 L 537.5275268554688 365.7723083496094 C 542.4901733398438 365.7723083496094 546.5275268554688 361.7349548339844 546.5275268554688 356.7723083496094 L 546.5275268554688 12.00003051757812 C 546.5275268554688 7.037384033203125 542.4901733398438 3.000030517578125 537.5275268554688 3.000030517578125 L 12 3.000030517578125 M 12 3.0517578125e-05 L 537.5275268554688 3.0517578125e-05 C 544.1549682617188 3.0517578125e-05 549.5275268554688 5.372589111328125 549.5275268554688 12.00003051757812 L 549.5275268554688 356.7723083496094 C 549.5275268554688 363.3997497558594 544.1549682617188 368.7723083496094 537.5275268554688 368.7723083496094 L 12 368.7723083496094 C 5.37255859375 368.7723083496094 0 363.3997497558594 0 356.7723083496094 L 0 12.00003051757812 C 0 5.372589111328125 5.37255859375 3.0517578125e-05 12 3.0517578125e-05 Z" stroke="none" fill="#12263f"/>
      </g>
      <path id="Rectángulo_47287" data-name="Rectángulo 47287" d="M.74.74V155.461H458.57V.74H.74M0,0H459.311V156.2H0Z" transform="translate(1273.231 -8136.639)" fill="#707070"/>
      <path id="Trazado_198175" data-name="Trazado 198175" d="M12.425,8.213h-.619v3.516H10.117V3.308h1.689V6.75h.474l2.308-3.441h2.088L13.761,7.224l3.14,4.505H14.75Zm6.888,3.516H17.624V5.472h1.689Zm0-7.756H17.624V2.707h1.689Zm3.164,7.756H20.788V2.707h1.689ZM23.6,8.543a3.358,3.358,0,0,1,.781-2.293,2.722,2.722,0,0,1,2.163-.894,2.751,2.751,0,0,1,2.175.891,3.34,3.34,0,0,1,.787,2.3v.121a3.345,3.345,0,0,1-.784,2.3,2.739,2.739,0,0,1-2.166.888,2.746,2.746,0,0,1-2.172-.888,3.345,3.345,0,0,1-.784-2.3Zm1.683.121a2.722,2.722,0,0,0,.3,1.374,1.155,1.155,0,0,0,1.929,0,2.7,2.7,0,0,0,.3-1.371V8.543a2.677,2.677,0,0,0-.307-1.359,1.037,1.037,0,0,0-.966-.526,1.024,1.024,0,0,0-.957.529,2.7,2.7,0,0,0-.3,1.356Zm1.6-5.865h1.88l.012.035-1.6,1.5h-1.44Zm5.228,2.672.069.827a2.1,2.1,0,0,1,.755-.7,2.17,2.17,0,0,1,1.05-.246,1.912,1.912,0,0,1,1.029.266,1.641,1.641,0,0,1,.648.8,2.169,2.169,0,0,1,.752-.787,2.04,2.04,0,0,1,1.087-.283,1.783,1.783,0,0,1,1.46.656,3.134,3.134,0,0,1,.535,2v3.713H37.815V8.01a1.754,1.754,0,0,0-.231-1.047.821.821,0,0,0-.688-.295,1.179,1.179,0,0,0-.622.159,1.159,1.159,0,0,0-.419.442q0,.11.006.188t.006.159v4.112H34.182V8.01a1.759,1.759,0,0,0-.231-1.038.818.818,0,0,0-.694-.3,1.31,1.31,0,0,0-.6.13,1.148,1.148,0,0,0-.425.367v4.563H30.55V5.472Zm11.394,6.379a2.816,2.816,0,0,1-2.186-.859,3.148,3.148,0,0,1-.787-2.212V8.548a3.426,3.426,0,0,1,.763-2.3,2.6,2.6,0,0,1,2.1-.891,2.43,2.43,0,0,1,1.935.772,3.051,3.051,0,0,1,.674,2.079V9.08h-3.73l-.017.035a1.691,1.691,0,0,0,.39,1.041,1.307,1.307,0,0,0,1.038.4,3.474,3.474,0,0,0,.963-.116,3.929,3.929,0,0,0,.818-.353l.457,1.041a3.135,3.135,0,0,1-1.018.515A4.514,4.514,0,0,1,43.511,11.851ZM43.4,6.657a.938.938,0,0,0-.784.35,1.755,1.755,0,0,0-.333.928l.012.029h2.059V7.837a1.462,1.462,0,0,0-.226-.865A.834.834,0,0,0,43.4,6.657Zm5.616-2.718V5.472h1.058V6.657H49.017V9.844a.727.727,0,0,0,.153.521.538.538,0,0,0,.4.156,1.612,1.612,0,0,0,.231-.014,1.948,1.948,0,0,0,.226-.049l.139,1.22a3.419,3.419,0,0,1-.494.13,2.948,2.948,0,0,1-.523.043,1.8,1.8,0,0,1-1.345-.48,2.1,2.1,0,0,1-.471-1.521V6.657H46.42V5.472h.914V3.939Zm5.39,2.984-.619-.017a1.125,1.125,0,0,0-.619.156.99.99,0,0,0-.37.44v4.228H51.117V5.472h1.567l.075.925a1.974,1.974,0,0,1,.57-.766,1.331,1.331,0,0,1,1.041-.254q.107.02.217.049Zm.5,1.619a3.358,3.358,0,0,1,.781-2.293,2.722,2.722,0,0,1,2.163-.894,2.751,2.751,0,0,1,2.175.891,3.34,3.34,0,0,1,.787,2.3v.121a3.345,3.345,0,0,1-.784,2.3,3.093,3.093,0,0,1-4.338,0,3.345,3.345,0,0,1-.784-2.3Zm1.683.121a2.722,2.722,0,0,0,.3,1.374,1.155,1.155,0,0,0,1.929,0,2.7,2.7,0,0,0,.3-1.371V8.543a2.677,2.677,0,0,0-.307-1.359,1.037,1.037,0,0,0-.966-.526,1.024,1.024,0,0,0-.957.529,2.7,2.7,0,0,0-.3,1.356Zm8.646,1.33a.583.583,0,0,0-.269-.477,2.732,2.732,0,0,0-1-.35A3.979,3.979,0,0,1,62.3,8.5a1.453,1.453,0,0,1-.57-1.209,1.724,1.724,0,0,1,.682-1.371,2.752,2.752,0,0,1,1.816-.567,2.969,2.969,0,0,1,1.9.567,1.656,1.656,0,0,1,.685,1.411l-.012.035H65.176a.819.819,0,0,0-.243-.613,1.136,1.136,0,0,0-1.342-.035.63.63,0,0,0-.237.5.562.562,0,0,0,.246.471,2.736,2.736,0,0,0,1,.327,4.06,4.06,0,0,1,1.715.68,1.491,1.491,0,0,1,.564,1.235,1.652,1.652,0,0,1-.723,1.382,3.12,3.12,0,0,1-1.909.538,2.9,2.9,0,0,1-1.975-.633,1.771,1.771,0,0,1-.691-1.443l.012-.035h1.544a.878.878,0,0,0,.33.729,1.361,1.361,0,0,0,.815.226,1.16,1.16,0,0,0,.714-.188A.61.61,0,0,0,65.24,9.994Zm8.288.561a.94.94,0,0,0,.7-.263.956.956,0,0,0,.26-.7h1.538l.012.035a1.958,1.958,0,0,1-.706,1.588,2.639,2.639,0,0,1-1.8.639,2.667,2.667,0,0,1-2.146-.888,3.374,3.374,0,0,1-.758-2.27V8.519a3.4,3.4,0,0,1,.755-2.27,2.643,2.643,0,0,1,2.137-.894,2.581,2.581,0,0,1,1.845.659,2.2,2.2,0,0,1,.677,1.735l-.012.035H74.488a1.249,1.249,0,0,0-.257-.807.865.865,0,0,0-.714-.321.964.964,0,0,0-.928.523,2.871,2.871,0,0,0-.275,1.339v.174a2.86,2.86,0,0,0,.275,1.348A.977.977,0,0,0,73.528,10.555Zm7.328.249a2.125,2.125,0,0,1-.735.775,1.947,1.947,0,0,1-1.035.272,1.9,1.9,0,0,1-1.547-.671A3.218,3.218,0,0,1,76.981,9.1V5.472h1.683V9.109a2.02,2.02,0,0,0,.223,1.125.8.8,0,0,0,.691.3,1.683,1.683,0,0,0,.694-.13,1.17,1.17,0,0,0,.474-.385V5.472h1.689v6.258h-1.4Zm6.541.925a3.555,3.555,0,0,1-.159-.451,3.137,3.137,0,0,1-.1-.486,2.315,2.315,0,0,1-.688.758,1.725,1.725,0,0,1-1.018.3,2.113,2.113,0,0,1-1.515-.506,1.813,1.813,0,0,1-.532-1.379A1.65,1.65,0,0,1,84.1,8.54a3.538,3.538,0,0,1,2.068-.506h.949v-.5a.974.974,0,0,0-.237-.7.931.931,0,0,0-.706-.249.917.917,0,0,0-.633.2.7.7,0,0,0-.223.547H83.69L83.678,7.3a1.587,1.587,0,0,1,.691-1.368,3,3,0,0,1,1.911-.575,2.8,2.8,0,0,1,1.825.567,1.974,1.974,0,0,1,.7,1.625v2.585a4.889,4.889,0,0,0,.067.827,4.15,4.15,0,0,0,.211.769ZM85.853,10.6a1.439,1.439,0,0,0,.787-.22,1.183,1.183,0,0,0,.474-.509V8.988h-.949a1.124,1.124,0,0,0-.813.266.874.874,0,0,0-.275.654.653.653,0,0,0,.205.506A.812.812,0,0,0,85.853,10.6Zm3.956-1.949a4.066,4.066,0,0,1,.639-2.389,2.075,2.075,0,0,1,1.8-.908,1.752,1.752,0,0,1,.844.2,2.031,2.031,0,0,1,.659.578V2.707h1.695v9.022h-1.44l-.145-.769a2.092,2.092,0,0,1-.7.662,1.85,1.85,0,0,1-.925.228,2.116,2.116,0,0,1-1.79-.844,3.606,3.606,0,0,1-.639-2.232Zm1.683.121a2.549,2.549,0,0,0,.278,1.293.966.966,0,0,0,.9.471,1.314,1.314,0,0,0,.636-.147,1.177,1.177,0,0,0,.445-.431V7.293a1.3,1.3,0,0,0-.442-.46,1.177,1.177,0,0,0-.628-.165.953.953,0,0,0-.905.549,3.105,3.105,0,0,0-.286,1.434Zm8.554-1.851-.619-.017a1.125,1.125,0,0,0-.619.156.99.99,0,0,0-.37.44v4.228H96.755V5.472h1.567L98.4,6.4a1.974,1.974,0,0,1,.57-.766,1.331,1.331,0,0,1,1.041-.254q.107.02.217.049Zm4.569,4.806a3.555,3.555,0,0,1-.159-.451,3.141,3.141,0,0,1-.1-.486,2.315,2.315,0,0,1-.688.758,1.725,1.725,0,0,1-1.018.3,2.113,2.113,0,0,1-1.515-.506,1.813,1.813,0,0,1-.532-1.379,1.65,1.65,0,0,1,.708-1.426,3.538,3.538,0,0,1,2.068-.506h.949v-.5a.974.974,0,0,0-.237-.7.931.931,0,0,0-.706-.249.917.917,0,0,0-.633.2.7.7,0,0,0-.223.547h-1.625L100.9,7.3a1.587,1.587,0,0,1,.691-1.368,3,3,0,0,1,1.911-.575,2.8,2.8,0,0,1,1.825.567,1.974,1.974,0,0,1,.7,1.625v2.585a4.889,4.889,0,0,0,.067.827,4.148,4.148,0,0,0,.211.769ZM103.07,10.6a1.439,1.439,0,0,0,.787-.22,1.183,1.183,0,0,0,.474-.509V8.988h-.949a1.124,1.124,0,0,0-.813.266.874.874,0,0,0-.275.654.653.653,0,0,0,.205.506A.812.812,0,0,0,103.07,10.6Zm3.956-1.949a4.066,4.066,0,0,1,.639-2.389,2.075,2.075,0,0,1,1.8-.908,1.752,1.752,0,0,1,.844.2,2.031,2.031,0,0,1,.659.578V2.707h1.695v9.022h-1.44l-.145-.769a2.092,2.092,0,0,1-.7.662,1.85,1.85,0,0,1-.925.228,2.116,2.116,0,0,1-1.79-.844,3.606,3.606,0,0,1-.639-2.232Zm1.683.121a2.549,2.549,0,0,0,.278,1.293.967.967,0,0,0,.9.471,1.314,1.314,0,0,0,.636-.147,1.177,1.177,0,0,0,.445-.431V7.293a1.3,1.3,0,0,0-.442-.46,1.177,1.177,0,0,0-.628-.165.953.953,0,0,0-.905.549,3.1,3.1,0,0,0-.286,1.434Zm5-.231a3.358,3.358,0,0,1,.781-2.293,2.722,2.722,0,0,1,2.163-.894,2.751,2.751,0,0,1,2.175.891,3.34,3.34,0,0,1,.787,2.3v.121a3.345,3.345,0,0,1-.784,2.3,3.093,3.093,0,0,1-4.338,0,3.345,3.345,0,0,1-.784-2.3Zm1.683.121a2.723,2.723,0,0,0,.3,1.374,1.155,1.155,0,0,0,1.929,0,2.7,2.7,0,0,0,.3-1.371V8.543a2.677,2.677,0,0,0-.307-1.359,1.037,1.037,0,0,0-.966-.526,1.024,1.024,0,0,0-.957.529,2.7,2.7,0,0,0-.3,1.356Zm8.646,1.33a.583.583,0,0,0-.269-.477,2.732,2.732,0,0,0-1-.35,3.979,3.979,0,0,1-1.669-.665,1.453,1.453,0,0,1-.57-1.209,1.724,1.724,0,0,1,.682-1.371,2.752,2.752,0,0,1,1.816-.567,2.97,2.97,0,0,1,1.9.567,1.656,1.656,0,0,1,.685,1.411l-.012.035h-1.631a.819.819,0,0,0-.243-.613,1.136,1.136,0,0,0-1.342-.035.63.63,0,0,0-.237.5.562.562,0,0,0,.246.471,2.736,2.736,0,0,0,1,.327,4.06,4.06,0,0,1,1.715.68,1.491,1.491,0,0,1,.564,1.235,1.652,1.652,0,0,1-.723,1.382,3.12,3.12,0,0,1-1.909.538,2.9,2.9,0,0,1-1.975-.633,1.77,1.77,0,0,1-.691-1.443l.012-.035h1.544a.878.878,0,0,0,.33.729,1.361,1.361,0,0,0,.815.226,1.16,1.16,0,0,0,.714-.188A.61.61,0,0,0,124.041,9.994Zm5.743-1.689a7.819,7.819,0,0,1,.879-3.849,4.4,4.4,0,0,1,1.99-2.05h.035l.307.844a4.2,4.2,0,0,0-1.272,1.828,8.586,8.586,0,0,0-.515,3.216v.15a8.581,8.581,0,0,0,.515,3.219,4.337,4.337,0,0,0,1.272,1.842l-.307.827h-.035a4.4,4.4,0,0,1-1.99-2.047,7.815,7.815,0,0,1-.879-3.852Zm5.61-2.834.069.827a2.1,2.1,0,0,1,.755-.7,2.17,2.17,0,0,1,1.05-.246,1.912,1.912,0,0,1,1.029.266,1.641,1.641,0,0,1,.648.8,2.169,2.169,0,0,1,.752-.787,2.04,2.04,0,0,1,1.087-.283,1.783,1.783,0,0,1,1.46.656,3.134,3.134,0,0,1,.535,2v3.713h-1.689V8.01a1.754,1.754,0,0,0-.231-1.047.821.821,0,0,0-.688-.295,1.179,1.179,0,0,0-.622.159,1.158,1.158,0,0,0-.419.442q0,.11.006.188t.006.159v4.112h-1.683V8.01a1.759,1.759,0,0,0-.231-1.038.818.818,0,0,0-.694-.3,1.31,1.31,0,0,0-.6.13,1.148,1.148,0,0,0-.425.367v4.563h-1.683V5.472Zm10.457,6.258h-1.689V5.472h1.689Zm0-7.756h-1.689V2.707h1.689Zm3.164,7.756h-1.689V2.707h1.689Zm4.1.121a2.816,2.816,0,0,1-2.186-.859,3.148,3.148,0,0,1-.787-2.212V8.548a3.426,3.426,0,0,1,.763-2.3,2.6,2.6,0,0,1,2.1-.891,2.43,2.43,0,0,1,1.935.772,3.051,3.051,0,0,1,.674,2.079V9.08h-3.73l-.017.035a1.69,1.69,0,0,0,.39,1.041,1.307,1.307,0,0,0,1.038.4,3.474,3.474,0,0,0,.963-.116,3.929,3.929,0,0,0,.818-.353l.457,1.041a3.135,3.135,0,0,1-1.018.515A4.514,4.514,0,0,1,153.115,11.851Zm-.11-5.194a.938.938,0,0,0-.784.35,1.755,1.755,0,0,0-.333.928l.012.029h2.059V7.837a1.461,1.461,0,0,0-.226-.865A.834.834,0,0,0,153.005,6.657Zm6.975,3.337a.583.583,0,0,0-.269-.477,2.732,2.732,0,0,0-1-.35,3.979,3.979,0,0,1-1.669-.665,1.453,1.453,0,0,1-.57-1.209,1.724,1.724,0,0,1,.682-1.371,2.752,2.752,0,0,1,1.816-.567,2.97,2.97,0,0,1,1.9.567,1.656,1.656,0,0,1,.685,1.411l-.012.035h-1.631a.819.819,0,0,0-.243-.613,1.136,1.136,0,0,0-1.342-.035.63.63,0,0,0-.237.5.562.562,0,0,0,.246.471,2.736,2.736,0,0,0,1,.327,4.06,4.06,0,0,1,1.715.68,1.491,1.491,0,0,1,.564,1.235,1.652,1.652,0,0,1-.723,1.382,3.12,3.12,0,0,1-1.909.538,2.9,2.9,0,0,1-1.975-.633,1.771,1.771,0,0,1-.691-1.443l.012-.035h1.544a.878.878,0,0,0,.33.729,1.361,1.361,0,0,0,.815.226,1.16,1.16,0,0,0,.714-.188A.61.61,0,0,0,159.98,9.994Zm5.558-1.562a7.609,7.609,0,0,1-.917,3.826,4.506,4.506,0,0,1-2.039,2.073h-.035l-.312-.827a4.287,4.287,0,0,0,1.267-1.833,8.563,8.563,0,0,0,.521-3.227v-.15a8.493,8.493,0,0,0-.526-3.219,4.43,4.43,0,0,0-1.261-1.848l.312-.821h.035a4.505,4.505,0,0,1,2.039,2.076,7.613,7.613,0,0,1,.917,3.823Z" transform="translate(1403.116 -7934.055)" fill="#12263f"/>
      <path id="Línea_2022" data-name="Línea 2022" d="M461.532.24H0V-.5H461.532Z" transform="translate(1271.38 -8005.108)" fill="#707070"/>
      <path id="Línea_2025" data-name="Línea 2025" d="M461.532.24H0V-.5H461.532Z" transform="translate(1271.38 -8049.896)" fill="#707070"/>
      <path id="Línea_2027" data-name="Línea 2027" d="M461.2.24H0V-.5H461.2Z" transform="translate(1271.01 -8094.684)" fill="#707070"/>
      <path id="Línea_2023" data-name="Línea 2023" d="M461.532.24H0V-.5H461.532Z" transform="translate(1271.38 -8025.837)" fill="#707070"/>
      <path id="Línea_2024" data-name="Línea 2024" d="M461.532.24H0V-.5H461.532Z" transform="translate(1271.38 -8070.624)" fill="#707070"/>
      <path id="Línea_2026" data-name="Línea 2026" d="M461.2.24H0V-.5H461.2Z" transform="translate(1271.01 -8115.412)" fill="#707070"/>
      <path id="Línea_2028" data-name="Línea 2028" d="M286.493.24H0V-.5H286.493Z" transform="translate(1271.01 -8136.139)" fill="#707070"/>
      <path id="Trazado_198173" data-name="Trazado 198173" d="M9.486,12H8.341V4.635l-1.833.017V3.773l2.979-.312Zm7.727-2.834h1.162v.891H17.213V12H16.08V10.06H12.465V9.418L16.01,3.582h1.2Zm-3.528,0H16.08V5.219l-.035-.006-.11.289Zm-4.2,24.3H8.341V26.1l-1.833.017v-.879l2.979-.312Zm8.658,0H12.916v-.781l2.643-3.152a7.94,7.94,0,0,0,.957-1.362,2.273,2.273,0,0,0,.252-1.021,1.363,1.363,0,0,0-.341-.957,1.214,1.214,0,0,0-.943-.373,1.412,1.412,0,0,0-1.136.457,1.693,1.693,0,0,0-.39,1.139h-1.1l-.012-.035a2.271,2.271,0,0,1,.688-1.744,2.64,2.64,0,0,1,1.949-.714,2.451,2.451,0,0,1,1.776.625,2.142,2.142,0,0,1,.648,1.614,2.574,2.574,0,0,1-.367,1.3,14.519,14.519,0,0,1-1.119,1.6L14.3,32.552l.012.029h3.834ZM9.486,54.94H8.341V47.572l-1.833.017V46.71L9.486,46.4Zm8.577-2.973a3.323,3.323,0,0,1-.726,2.261,2.458,2.458,0,0,1-1.952.833,2.469,2.469,0,0,1-1.952-.833,3.306,3.306,0,0,1-.732-2.261V49.492a3.328,3.328,0,0,1,.726-2.256,2.444,2.444,0,0,1,1.946-.839,2.468,2.468,0,0,1,1.958.839,3.311,3.311,0,0,1,.732,2.256Zm-1.139-2.712a2.3,2.3,0,0,0-.4-1.434,1.36,1.36,0,0,0-1.145-.526,1.339,1.339,0,0,0-1.134.526,2.321,2.321,0,0,0-.4,1.434V52.2a2.311,2.311,0,0,0,.408,1.44,1.485,1.485,0,0,0,2.276,0,2.345,2.345,0,0,0,.4-1.443Zm.966,20.884a1.9,1.9,0,0,1-.37,1.16,2.242,2.242,0,0,1-.983.749,2.468,2.468,0,0,1,1.151.792,1.955,1.955,0,0,1,.434,1.255,2.223,2.223,0,0,1-.755,1.8,2.881,2.881,0,0,1-1.923.636,3.1,3.1,0,0,1-2.021-.636,2.185,2.185,0,0,1-.784-1.8,1.931,1.931,0,0,1,.442-1.255,2.551,2.551,0,0,1,1.194-.8,2.219,2.219,0,0,1-1.024-.743,1.878,1.878,0,0,1-.376-1.16,2.063,2.063,0,0,1,.708-1.689,2.81,2.81,0,0,1,1.848-.584,2.634,2.634,0,0,1,1.767.587A2.089,2.089,0,0,1,17.89,70.139Zm-.9,3.933a1.53,1.53,0,0,0-.448-1.134,1.51,1.51,0,0,0-1.108-.445,1.652,1.652,0,0,0-1.186.445,1.5,1.5,0,0,0-.468,1.134,1.473,1.473,0,0,0,.466,1.139,1.7,1.7,0,0,0,1.2.428,1.5,1.5,0,0,0,1.544-1.567Zm-.237-3.915a1.383,1.383,0,0,0-.379-1,1.252,1.252,0,0,0-.94-.393,1.419,1.419,0,0,0-1.018.379,1.334,1.334,0,0,0-.4,1.015,1.377,1.377,0,0,0,1.429,1.44,1.225,1.225,0,0,0,.934-.4A1.463,1.463,0,0,0,16.75,70.157Zm-.995,19.178a4.944,4.944,0,0,1,.983.1,3.552,3.552,0,0,1,.8.249l-.243.873a4.254,4.254,0,0,0-.694-.234,3.584,3.584,0,0,0-.85-.09,1.525,1.525,0,0,0-1.287.677,2.826,2.826,0,0,0-.494,1.712v.654a2.576,2.576,0,0,1,.836-.555,2.658,2.658,0,0,1,1.038-.2,2.162,2.162,0,0,1,1.721.729,2.814,2.814,0,0,1,.633,1.914,2.939,2.939,0,0,1-.708,2.068A2.467,2.467,0,0,1,15.582,98a2.506,2.506,0,0,1-1.955-.888,3.529,3.529,0,0,1-.787-2.426V92.747a3.589,3.589,0,0,1,.842-2.446A2.644,2.644,0,0,1,15.756,89.335Zm-.272,4.031a1.775,1.775,0,0,0-.922.228,1.528,1.528,0,0,0-.587.616v.584a2.762,2.762,0,0,0,.466,1.692,1.386,1.386,0,0,0,1.142.622,1.264,1.264,0,0,0,1.1-.541,2.376,2.376,0,0,0,.385-1.408,1.95,1.95,0,0,0-.414-1.307A1.447,1.447,0,0,0,15.484,93.366Zm1.729,23.146h1.162v.891H17.213v1.943H16.08V117.4H12.465v-.642l3.545-5.836h1.2Zm-3.528,0H16.08v-3.95l-.035-.006-.11.289Zm4.459,24.3H12.916v-.781l2.643-3.152a7.939,7.939,0,0,0,.957-1.362,2.273,2.273,0,0,0,.252-1.021,1.363,1.363,0,0,0-.341-.957,1.214,1.214,0,0,0-.943-.373,1.412,1.412,0,0,0-1.136.457,1.693,1.693,0,0,0-.39,1.139h-1.1l-.012-.035a2.271,2.271,0,0,1,.688-1.744,2.64,2.64,0,0,1,1.949-.714,2.451,2.451,0,0,1,1.776.625,2.142,2.142,0,0,1,.648,1.614,2.574,2.574,0,0,1-.367,1.3,14.52,14.52,0,0,1-1.119,1.6L14.3,139.894l.012.029h3.834Zm-.081,18.5a3.323,3.323,0,0,1-.726,2.261,2.458,2.458,0,0,1-1.952.833,2.469,2.469,0,0,1-1.952-.833,3.306,3.306,0,0,1-.732-2.261v-2.475a3.328,3.328,0,0,1,.726-2.256,2.444,2.444,0,0,1,1.946-.839,2.468,2.468,0,0,1,1.958.839,3.311,3.311,0,0,1,.732,2.256ZM16.924,156.6a2.3,2.3,0,0,0-.4-1.434,1.36,1.36,0,0,0-1.145-.526,1.339,1.339,0,0,0-1.134.526,2.321,2.321,0,0,0-.4,1.434v2.944a2.311,2.311,0,0,0,.408,1.44,1.485,1.485,0,0,0,2.276,0,2.344,2.344,0,0,0,.4-1.443Z" transform="translate(1250.813 -8143.461)" fill="#12263f"/>
      <path id="Trazado_198453" data-name="Trazado 198453" d="M0,0H47.379V135.473H0Z" transform="translate(1367.988 -8115.912)" fill="#3cafff"/>
      <path id="Rectángulo_47288_-_Contorno" data-name="Rectángulo 47288 - Contorno" d="M.74.74V134.733h45.9V.74H.74M0,0H47.379V135.473H0Z" transform="translate(1367.988 -8115.912)" fill="#707070"/>
      <path id="Trazado_198454" data-name="Trazado 198454" d="M0,0H47.379V90.316H0Z" transform="translate(1415.367 -8070.754)" fill="#3cafff"/>
      <path id="Rectángulo_47291_-_Contorno" data-name="Rectángulo 47291 - Contorno" d="M.74.74V89.575h45.9V.74H.74M0,0H47.379V90.316H0Z" transform="translate(1415.367 -8070.754)" fill="#707070"/>
      <path id="Trazado_198455" data-name="Trazado 198455" d="M0,0H47.379V90.316H0Z" transform="translate(1510.125 -8070.754)" fill="#3cafff"/>
      <path id="Rectángulo_47296_-_Contorno" data-name="Rectángulo 47296 - Contorno" d="M.74.74V89.575h45.9V.74H.74M0,0H47.379V90.316H0Z" transform="translate(1510.125 -8070.754)" fill="#707070"/>
      <path id="Trazado_198456" data-name="Trazado 198456" d="M0,0H47.379V114.375H0Z" transform="translate(1462.746 -8094.813)" fill="#3cafff"/>
      <path id="Rectángulo_47292_-_Contorno" data-name="Rectángulo 47292 - Contorno" d="M.74.74V113.635h45.9V.74H.74M0,0H47.379V114.375H0Z" transform="translate(1462.746 -8094.813)" fill="#707070"/>
      <path id="Trazado_198457" data-name="Trazado 198457" d="M0,0H47.379V45.9H0Z" transform="translate(1557.503 -8026.337)" fill="#3cafff"/>
      <path id="Rectángulo_47293_-_Contorno" data-name="Rectángulo 47293 - Contorno" d="M.74.74V45.158h45.9V.74H.74M0,0H47.379V45.9H0Z" transform="translate(1557.503 -8026.337)" fill="#707070"/>
      <path id="Trazado_198458" data-name="Trazado 198458" d="M0,0H47.379V24.8H0Z" transform="translate(1604.882 -8005.237)" fill="#3cafff"/>
      <path id="Rectángulo_47294_-_Contorno" data-name="Rectángulo 47294 - Contorno" d="M.74.74V24.059h45.9V.74H.74M0,0H47.379V24.8H0Z" transform="translate(1604.882 -8005.237)" fill="#707070"/>
      <path id="Trazado_198459" data-name="Trazado 198459" d="M0,0H47.379V14.066H0Z" transform="translate(1652.261 -7994.503)" fill="#3cafff"/>
      <path id="Rectángulo_47295_-_Contorno" data-name="Rectángulo 47295 - Contorno" d="M.74.74V13.325h45.9V.74H.74M0,0H47.379V14.066H0Z" transform="translate(1652.261 -7994.503)" fill="#707070"/>
      <path id="Trazado_198460" data-name="Trazado 198460" d="M0,0H47.379V34.794H0Z" transform="translate(1320.61 -8015.231)" fill="#3cafff"/>
      <path id="Rectángulo_47289_-_Contorno" data-name="Rectángulo 47289 - Contorno" d="M.74.74V34.053h45.9V.74H.74M0,0H47.379V34.794H0Z" transform="translate(1320.61 -8015.231)" fill="#707070"/>
      <path id="Trazado_198461" data-name="Trazado 198461" d="M0,0H47.379V28.131H0Z" transform="translate(1273.231 -8008.569)" fill="#3cafff"/>
      <path id="Rectángulo_47290_-_Contorno" data-name="Rectángulo 47290 - Contorno" d="M.74.74V27.391h45.9V.74H.74M0,0H47.379V28.131H0Z" transform="translate(1273.231 -8008.569)" fill="#707070"/>
      <path id="Trazado_198164" data-name="Trazado 198164" d="M5.361,5.57a3.323,3.323,0,0,1-.726,2.261,2.458,2.458,0,0,1-1.952.833A2.469,2.469,0,0,1,.732,7.831,3.306,3.306,0,0,1,0,5.57V3.094A3.328,3.328,0,0,1,.726.839,2.444,2.444,0,0,1,2.672,0,2.468,2.468,0,0,1,4.63.839a3.311,3.311,0,0,1,.732,2.256ZM4.222,2.857a2.3,2.3,0,0,0-.4-1.434A1.36,1.36,0,0,0,2.672.9a1.339,1.339,0,0,0-1.134.526,2.321,2.321,0,0,0-.4,1.434V5.8a2.311,2.311,0,0,0,.408,1.44,1.351,1.351,0,0,0,1.136.532,1.342,1.342,0,0,0,1.139-.529,2.345,2.345,0,0,0,.4-1.443Zm6.171,2.574H6.981V4.54h3.412Zm7.056,3.112H12.221V7.762l2.643-3.152a7.941,7.941,0,0,0,.957-1.362,2.273,2.273,0,0,0,.252-1.021,1.363,1.363,0,0,0-.341-.957A1.214,1.214,0,0,0,14.788.9a1.412,1.412,0,0,0-1.136.457,1.693,1.693,0,0,0-.39,1.139h-1.1l-.012-.035A2.271,2.271,0,0,1,12.839.714,2.64,2.64,0,0,1,14.788,0a2.451,2.451,0,0,1,1.776.625,2.142,2.142,0,0,1,.648,1.614,2.573,2.573,0,0,1-.367,1.3,14.519,14.519,0,0,1-1.119,1.6L13.6,7.623l.012.029h3.834Zm2.394-.278-.868,1.77H18.3l.4-1.828V7.264h1.139ZM21.37,4.8,21.856.121h4.216V1.134H22.816l-.272,2.423a2.6,2.6,0,0,1,.6-.333,2.116,2.116,0,0,1,.752-.136,2.293,2.293,0,0,1,1.83.732,2.955,2.955,0,0,1,.662,2.039,2.962,2.962,0,0,1-.68,2.036,2.5,2.5,0,0,1-1.981.769,2.714,2.714,0,0,1-1.781-.584,2.022,2.022,0,0,1-.682-1.718l.012-.035h1.029a1.406,1.406,0,0,0,.4,1.067,1.424,1.424,0,0,0,1.027.379,1.344,1.344,0,0,0,1.122-.509,2.2,2.2,0,0,0,.4-1.394,2.006,2.006,0,0,0-.4-1.3,1.359,1.359,0,0,0-1.119-.5,1.789,1.789,0,0,0-.972.2,1.183,1.183,0,0,0-.445.625Z" transform="translate(1280.22 -7959.1) rotate(-49)" fill="#12263f"/>
      <path id="Trazado_198165" data-name="Trazado 198165" d="M5.3,8.542H.071V7.762L2.714,4.609a7.941,7.941,0,0,0,.957-1.362,2.273,2.273,0,0,0,.252-1.021,1.363,1.363,0,0,0-.341-.957A1.214,1.214,0,0,0,2.638.9,1.412,1.412,0,0,0,1.5,1.353a1.693,1.693,0,0,0-.39,1.139H.013L0,2.458A2.271,2.271,0,0,1,.689.714,2.64,2.64,0,0,1,2.638,0,2.451,2.451,0,0,1,4.414.625a2.142,2.142,0,0,1,.648,1.614,2.574,2.574,0,0,1-.367,1.3,14.519,14.519,0,0,1-1.119,1.6L1.453,7.623l.012.029H5.3Zm2.394-.278-.868,1.77H6.149l.4-1.828V7.264H7.693ZM9.22,4.8,9.706.121h4.216V1.134H10.666l-.272,2.423a2.6,2.6,0,0,1,.6-.333,2.116,2.116,0,0,1,.752-.136,2.293,2.293,0,0,1,1.83.732,2.955,2.955,0,0,1,.662,2.039,2.962,2.962,0,0,1-.68,2.036,2.5,2.5,0,0,1-1.981.769A2.714,2.714,0,0,1,9.8,8.08a2.022,2.022,0,0,1-.682-1.718l.012-.035h1.029a1.406,1.406,0,0,0,.4,1.067,1.424,1.424,0,0,0,1.027.379A1.344,1.344,0,0,0,12.7,7.264a2.2,2.2,0,0,0,.4-1.394,2.006,2.006,0,0,0-.4-1.3,1.359,1.359,0,0,0-1.119-.5,1.789,1.789,0,0,0-.972.2,1.183,1.183,0,0,0-.445.625Zm10.034.63H15.842V4.54h3.412Zm1.972-.63L21.713.121h4.216V1.134H22.673L22.4,3.557a2.6,2.6,0,0,1,.6-.333,2.116,2.116,0,0,1,.752-.136,2.293,2.293,0,0,1,1.83.732,2.955,2.955,0,0,1,.662,2.039,2.962,2.962,0,0,1-.68,2.036,2.5,2.5,0,0,1-1.981.769,2.714,2.714,0,0,1-1.781-.584,2.022,2.022,0,0,1-.682-1.718l.012-.035h1.029a1.406,1.406,0,0,0,.4,1.067,1.424,1.424,0,0,0,1.027.379,1.344,1.344,0,0,0,1.122-.509,2.2,2.2,0,0,0,.4-1.394,2.006,2.006,0,0,0-.4-1.3,1.359,1.359,0,0,0-1.119-.5,1.789,1.789,0,0,0-.972.2,1.183,1.183,0,0,0-.445.625Z" transform="translate(1323.251 -7959.208) rotate(-49)" fill="#12263f"/>
      <path id="Trazado_198166" data-name="Trazado 198166" d="M.105,4.679.591,0H4.807V1.012H1.551L1.279,3.435a2.6,2.6,0,0,1,.6-.333,2.116,2.116,0,0,1,.752-.136,2.293,2.293,0,0,1,1.83.732,2.955,2.955,0,0,1,.662,2.039,2.962,2.962,0,0,1-.68,2.036,2.5,2.5,0,0,1-1.981.769A2.714,2.714,0,0,1,.684,7.958,2.022,2.022,0,0,1,0,6.24l.012-.035H1.042a1.406,1.406,0,0,0,.4,1.067,1.424,1.424,0,0,0,1.027.379,1.344,1.344,0,0,0,1.122-.509,2.2,2.2,0,0,0,.4-1.394,2.006,2.006,0,0,0-.4-1.3,1.359,1.359,0,0,0-1.119-.5,1.789,1.789,0,0,0-.972.2,1.183,1.183,0,0,0-.445.625Zm10.034.63H6.727V4.419H10.14ZM17.248.9A12.518,12.518,0,0,0,15.09,4.245,8.972,8.972,0,0,0,14.529,7.5v.92H13.39V7.5a8.144,8.144,0,0,1,.7-3.438A15.065,15.065,0,0,1,16.126.9H11.661V0h5.587ZM19.59,8.143l-.868,1.77h-.677l.4-1.828V7.143H19.59Zm1.527-3.464L21.6,0h4.216V1.012H22.563l-.272,2.423a2.6,2.6,0,0,1,.6-.333,2.116,2.116,0,0,1,.752-.136,2.293,2.293,0,0,1,1.83.732,2.955,2.955,0,0,1,.662,2.039,2.962,2.962,0,0,1-.68,2.036,2.5,2.5,0,0,1-1.981.769A2.714,2.714,0,0,1,21.7,7.958a2.022,2.022,0,0,1-.682-1.718l.012-.035h1.029a1.406,1.406,0,0,0,.4,1.067,1.424,1.424,0,0,0,1.027.379A1.344,1.344,0,0,0,24.6,7.143,2.2,2.2,0,0,0,25,5.749a2.006,2.006,0,0,0-.4-1.3,1.359,1.359,0,0,0-1.119-.5,1.789,1.789,0,0,0-.972.2,1.183,1.183,0,0,0-.445.625Z" transform="translate(1368.572 -7959.212) rotate(-49)" fill="#12263f"/>
      <path id="Trazado_198167" data-name="Trazado 198167" d="M5.587,1.018A12.518,12.518,0,0,0,3.43,4.367a8.972,8.972,0,0,0-.561,3.256v.92H1.729v-.92a8.144,8.144,0,0,1,.7-3.438A15.065,15.065,0,0,1,4.465,1.018H0v-.9H5.587ZM7.929,8.265l-.868,1.77H6.385l.4-1.828V7.264H7.929ZM9.456,4.8,9.942.121h4.216V1.134H10.9L10.63,3.557a2.6,2.6,0,0,1,.6-.333,2.116,2.116,0,0,1,.752-.136,2.293,2.293,0,0,1,1.83.732,2.955,2.955,0,0,1,.662,2.039,2.962,2.962,0,0,1-.68,2.036,2.5,2.5,0,0,1-1.981.769,2.714,2.714,0,0,1-1.781-.584,2.022,2.022,0,0,1-.682-1.718l.012-.035h1.029a1.406,1.406,0,0,0,.4,1.067,1.424,1.424,0,0,0,1.027.379,1.344,1.344,0,0,0,1.122-.509,2.2,2.2,0,0,0,.4-1.394,2.006,2.006,0,0,0-.4-1.3,1.359,1.359,0,0,0-1.119-.5,1.789,1.789,0,0,0-.972.2A1.183,1.183,0,0,0,10.4,4.9Zm10.034.63H16.078V4.54h3.412Zm5.066,3.112H23.412V1.174l-1.833.017V.312L24.557,0ZM33.134,5.57a3.323,3.323,0,0,1-.726,2.261,2.7,2.7,0,0,1-3.9,0,3.306,3.306,0,0,1-.732-2.261V3.094A3.328,3.328,0,0,1,28.5.839a2.691,2.691,0,0,1,3.9,0,3.311,3.311,0,0,1,.732,2.256ZM31.995,2.857a2.3,2.3,0,0,0-.4-1.434A1.36,1.36,0,0,0,30.445.9a1.339,1.339,0,0,0-1.134.526,2.321,2.321,0,0,0-.4,1.434V5.8a2.311,2.311,0,0,0,.408,1.44,1.485,1.485,0,0,0,2.276,0,2.345,2.345,0,0,0,.4-1.443Z" transform="translate(1413.454 -7953.997) rotate(-49)" fill="#12263f"/>
      <path id="Trazado_198168" data-name="Trazado 198168" d="M2.979,8.542H1.833V1.174L0,1.191V.312L2.979,0ZM11.555,5.57a3.323,3.323,0,0,1-.726,2.261,2.458,2.458,0,0,1-1.952.833,2.469,2.469,0,0,1-1.952-.833A3.306,3.306,0,0,1,6.194,5.57V3.094A3.328,3.328,0,0,1,6.92.839,2.444,2.444,0,0,1,8.866,0a2.468,2.468,0,0,1,1.958.839,3.311,3.311,0,0,1,.732,2.256ZM10.416,2.857a2.3,2.3,0,0,0-.4-1.434A1.36,1.36,0,0,0,8.866.9a1.339,1.339,0,0,0-1.134.526,2.321,2.321,0,0,0-.4,1.434V5.8a2.311,2.311,0,0,0,.408,1.44,1.351,1.351,0,0,0,1.136.532,1.342,1.342,0,0,0,1.139-.529,2.345,2.345,0,0,0,.4-1.443Zm6.171,2.574H13.175V4.54h3.412Zm5.066,3.112H20.508V1.174l-1.833.017V.312L21.654,0Zm8.658,0H25.083V7.762l2.643-3.152a7.941,7.941,0,0,0,.957-1.362,2.273,2.273,0,0,0,.252-1.021,1.363,1.363,0,0,0-.341-.957A1.214,1.214,0,0,0,27.651.9a1.412,1.412,0,0,0-1.136.457,1.693,1.693,0,0,0-.39,1.139h-1.1l-.012-.035A2.271,2.271,0,0,1,25.7.714,2.64,2.64,0,0,1,27.651,0a2.451,2.451,0,0,1,1.776.625,2.142,2.142,0,0,1,.648,1.614,2.573,2.573,0,0,1-.367,1.3,14.52,14.52,0,0,1-1.119,1.6L26.465,7.623l.012.029h3.834Zm2.394-.278-.868,1.77h-.677l.4-1.828V7.264h1.139ZM34.233,4.8,34.719.121h4.216V1.134H35.679l-.272,2.423a2.6,2.6,0,0,1,.6-.333,2.116,2.116,0,0,1,.752-.136,2.293,2.293,0,0,1,1.83.732,2.955,2.955,0,0,1,.662,2.039,2.962,2.962,0,0,1-.68,2.036,2.5,2.5,0,0,1-1.981.769,2.714,2.714,0,0,1-1.781-.584,2.022,2.022,0,0,1-.682-1.718l.012-.035H35.17a1.406,1.406,0,0,0,.4,1.067,1.424,1.424,0,0,0,1.027.379,1.344,1.344,0,0,0,1.122-.509,2.2,2.2,0,0,0,.4-1.394,2.006,2.006,0,0,0-.4-1.3,1.359,1.359,0,0,0-1.119-.5,1.789,1.789,0,0,0-.972.2,1.183,1.183,0,0,0-.445.625Z" transform="translate(1459.051 -7949.393) rotate(-49)" fill="#12263f"/>
      <path id="Trazado_198169" data-name="Trazado 198169" d="M2.979,8.542H1.833V1.174L0,1.191V.312L2.979,0Zm8.658,0H6.408V7.762L9.051,4.609a7.94,7.94,0,0,0,.957-1.362,2.273,2.273,0,0,0,.252-1.021,1.363,1.363,0,0,0-.341-.957A1.214,1.214,0,0,0,8.976.9a1.412,1.412,0,0,0-1.136.457,1.693,1.693,0,0,0-.39,1.139H6.35l-.012-.035A2.271,2.271,0,0,1,7.027.714,2.64,2.64,0,0,1,8.976,0a2.451,2.451,0,0,1,1.776.625A2.142,2.142,0,0,1,11.4,2.238a2.574,2.574,0,0,1-.367,1.3,14.519,14.519,0,0,1-1.119,1.6L7.79,7.623l.012.029h3.834Zm2.394-.278-.868,1.77h-.677l.4-1.828V7.264h1.139ZM15.558,4.8,16.044.121H20.26V1.134H17l-.272,2.423a2.6,2.6,0,0,1,.6-.333,2.116,2.116,0,0,1,.752-.136,2.293,2.293,0,0,1,1.83.732,2.955,2.955,0,0,1,.662,2.039,2.962,2.962,0,0,1-.68,2.036,2.5,2.5,0,0,1-1.981.769,2.714,2.714,0,0,1-1.781-.584,2.022,2.022,0,0,1-.682-1.718l.012-.035h1.029a1.406,1.406,0,0,0,.4,1.067,1.424,1.424,0,0,0,1.027.379,1.344,1.344,0,0,0,1.122-.509,2.2,2.2,0,0,0,.4-1.394,2.006,2.006,0,0,0-.4-1.3,1.359,1.359,0,0,0-1.119-.5,1.789,1.789,0,0,0-.972.2A1.183,1.183,0,0,0,16.5,4.9Zm10.034.63H22.18V4.54h3.412Zm5.066,3.112H29.513V1.174l-1.833.017V.312L30.659,0ZM34.233,4.8,34.719.121h4.216V1.134H35.679l-.272,2.423a2.6,2.6,0,0,1,.6-.333,2.116,2.116,0,0,1,.752-.136,2.293,2.293,0,0,1,1.83.732,2.955,2.955,0,0,1,.662,2.039,2.962,2.962,0,0,1-.68,2.036,2.5,2.5,0,0,1-1.981.769,2.714,2.714,0,0,1-1.781-.584,2.022,2.022,0,0,1-.682-1.718l.012-.035H35.17a1.406,1.406,0,0,0,.4,1.067,1.424,1.424,0,0,0,1.027.379,1.344,1.344,0,0,0,1.122-.509,2.2,2.2,0,0,0,.4-1.394,2.006,2.006,0,0,0-.4-1.3,1.359,1.359,0,0,0-1.119-.5,1.789,1.789,0,0,0-.972.2,1.183,1.183,0,0,0-.445.625Z" transform="translate(1505.22 -7949.393) rotate(-49)" fill="#12263f"/>
      <path id="Trazado_198170" data-name="Trazado 198170" d="M2.979,8.542H1.833V1.174L0,1.191V.312L2.979,0ZM6.553,4.8,7.039.121h4.216V1.134H8L7.727,3.557a2.6,2.6,0,0,1,.6-.333,2.116,2.116,0,0,1,.752-.136,2.293,2.293,0,0,1,1.83.732,2.955,2.955,0,0,1,.662,2.039,2.962,2.962,0,0,1-.68,2.036,2.5,2.5,0,0,1-1.981.769A2.714,2.714,0,0,1,7.131,8.08a2.022,2.022,0,0,1-.682-1.718l.012-.035H7.49a1.406,1.406,0,0,0,.4,1.067,1.424,1.424,0,0,0,1.027.379,1.344,1.344,0,0,0,1.122-.509,2.2,2.2,0,0,0,.4-1.394,2.006,2.006,0,0,0-.4-1.3,1.359,1.359,0,0,0-1.119-.5,1.789,1.789,0,0,0-.972.2A1.183,1.183,0,0,0,7.5,4.9Zm10.034.63H13.175V4.54h3.412Zm5.066,3.112H20.508V1.174l-1.833.017V.312L21.654,0Zm8.71-7.524a12.518,12.518,0,0,0-2.157,3.349,8.972,8.972,0,0,0-.561,3.256v.92H26.506v-.92a8.144,8.144,0,0,1,.7-3.438,15.065,15.065,0,0,1,2.033-3.166H24.777v-.9h5.587Zm2.342,7.247-.868,1.77h-.677l.4-1.828V7.264h1.139ZM34.233,4.8,34.719.121h4.216V1.134H35.679l-.272,2.423a2.6,2.6,0,0,1,.6-.333,2.116,2.116,0,0,1,.752-.136,2.293,2.293,0,0,1,1.83.732,2.955,2.955,0,0,1,.662,2.039,2.962,2.962,0,0,1-.68,2.036,2.5,2.5,0,0,1-1.981.769,2.714,2.714,0,0,1-1.781-.584,2.022,2.022,0,0,1-.682-1.718l.012-.035H35.17a1.406,1.406,0,0,0,.4,1.067,1.424,1.424,0,0,0,1.027.379,1.344,1.344,0,0,0,1.122-.509,2.2,2.2,0,0,0,.4-1.394,2.006,2.006,0,0,0-.4-1.3,1.359,1.359,0,0,0-1.119-.5,1.789,1.789,0,0,0-.972.2,1.183,1.183,0,0,0-.445.625Z" transform="translate(1546.503 -7949.393) rotate(-49)" fill="#12263f"/>
      <path id="Trazado_198171" data-name="Trazado 198171" d="M2.979,8.542H1.833V1.174L0,1.191V.312L2.979,0Zm8.71-7.524A12.518,12.518,0,0,0,9.531,4.367,8.972,8.972,0,0,0,8.97,7.623v.92H7.831v-.92a8.144,8.144,0,0,1,.7-3.438,15.065,15.065,0,0,1,2.033-3.166H6.1v-.9h5.587Zm2.342,7.247-.868,1.77h-.677l.4-1.828V7.264h1.139ZM15.558,4.8,16.044.121H20.26V1.134H17l-.272,2.423a2.6,2.6,0,0,1,.6-.333,2.116,2.116,0,0,1,.752-.136,2.293,2.293,0,0,1,1.83.732,2.955,2.955,0,0,1,.662,2.039,2.962,2.962,0,0,1-.68,2.036,2.5,2.5,0,0,1-1.981.769,2.714,2.714,0,0,1-1.781-.584,2.022,2.022,0,0,1-.682-1.718l.012-.035h1.029a1.406,1.406,0,0,0,.4,1.067,1.424,1.424,0,0,0,1.027.379,1.344,1.344,0,0,0,1.122-.509,2.2,2.2,0,0,0,.4-1.394,2.006,2.006,0,0,0-.4-1.3,1.359,1.359,0,0,0-1.119-.5,1.789,1.789,0,0,0-.972.2A1.183,1.183,0,0,0,16.5,4.9Zm10.034.63H22.18V4.54h3.412Zm7.056,3.112H27.42V7.762l2.643-3.152a7.941,7.941,0,0,0,.957-1.362,2.273,2.273,0,0,0,.252-1.021,1.363,1.363,0,0,0-.341-.957A1.214,1.214,0,0,0,29.988.9a1.412,1.412,0,0,0-1.136.457,1.693,1.693,0,0,0-.39,1.139h-1.1l-.012-.035A2.271,2.271,0,0,1,28.039.714,2.64,2.64,0,0,1,29.988,0a2.451,2.451,0,0,1,1.776.625,2.142,2.142,0,0,1,.648,1.614,2.573,2.573,0,0,1-.367,1.3,14.519,14.519,0,0,1-1.119,1.6L28.8,7.623l.012.029h3.834ZM39.235,5.57a3.323,3.323,0,0,1-.726,2.261,2.7,2.7,0,0,1-3.9,0,3.306,3.306,0,0,1-.732-2.261V3.094A3.328,3.328,0,0,1,34.6.839a2.691,2.691,0,0,1,3.9,0,3.311,3.311,0,0,1,.732,2.256ZM38.1,2.857a2.3,2.3,0,0,0-.4-1.434A1.36,1.36,0,0,0,36.546.9a1.339,1.339,0,0,0-1.134.526,2.321,2.321,0,0,0-.4,1.434V5.8a2.311,2.311,0,0,0,.408,1.44,1.485,1.485,0,0,0,2.276,0A2.345,2.345,0,0,0,38.1,5.8Z" transform="translate(1596.843 -7949.393) rotate(-49)" fill="#12263f"/>
      <path id="Trazado_198172" data-name="Trazado 198172" d="M5.3,8.542H.071V7.762L2.714,4.609a7.941,7.941,0,0,0,.957-1.362,2.273,2.273,0,0,0,.252-1.021,1.363,1.363,0,0,0-.341-.957A1.214,1.214,0,0,0,2.638.9,1.412,1.412,0,0,0,1.5,1.353a1.693,1.693,0,0,0-.39,1.139H.013L0,2.458A2.271,2.271,0,0,1,.689.714,2.64,2.64,0,0,1,2.638,0,2.451,2.451,0,0,1,4.414.625a2.142,2.142,0,0,1,.648,1.614,2.574,2.574,0,0,1-.367,1.3,14.519,14.519,0,0,1-1.119,1.6L1.453,7.623l.012.029H5.3ZM11.886,5.57a3.323,3.323,0,0,1-.726,2.261,2.458,2.458,0,0,1-1.952.833,2.469,2.469,0,0,1-1.952-.833A3.306,3.306,0,0,1,6.525,5.57V3.094A3.328,3.328,0,0,1,7.251.839,2.444,2.444,0,0,1,9.2,0a2.468,2.468,0,0,1,1.958.839,3.311,3.311,0,0,1,.732,2.256ZM10.747,2.857a2.3,2.3,0,0,0-.4-1.434A1.36,1.36,0,0,0,9.2.9a1.339,1.339,0,0,0-1.134.526,2.321,2.321,0,0,0-.4,1.434V5.8a2.311,2.311,0,0,0,.408,1.44,1.351,1.351,0,0,0,1.136.532,1.342,1.342,0,0,0,1.139-.529,2.345,2.345,0,0,0,.4-1.443Zm6.171,2.574H13.506V4.54h3.412Zm7.056,3.112H18.746V7.762l2.643-3.152a7.94,7.94,0,0,0,.957-1.362A2.273,2.273,0,0,0,22.6,2.227a1.363,1.363,0,0,0-.341-.957A1.214,1.214,0,0,0,21.313.9a1.412,1.412,0,0,0-1.136.457,1.693,1.693,0,0,0-.39,1.139h-1.1l-.012-.035A2.271,2.271,0,0,1,19.364.714,2.64,2.64,0,0,1,21.313,0a2.451,2.451,0,0,1,1.776.625,2.142,2.142,0,0,1,.648,1.614,2.574,2.574,0,0,1-.367,1.3,14.519,14.519,0,0,1-1.119,1.6L20.128,7.623l.012.029h3.834Zm6.668,0H25.414V7.762l2.643-3.152a7.94,7.94,0,0,0,.957-1.362,2.273,2.273,0,0,0,.252-1.021,1.363,1.363,0,0,0-.341-.957A1.214,1.214,0,0,0,27.982.9a1.412,1.412,0,0,0-1.136.457,1.693,1.693,0,0,0-.39,1.139h-1.1l-.012-.035A2.271,2.271,0,0,1,26.033.714,2.64,2.64,0,0,1,27.982,0a2.451,2.451,0,0,1,1.776.625,2.142,2.142,0,0,1,.648,1.614,2.574,2.574,0,0,1-.367,1.3,14.519,14.519,0,0,1-1.119,1.6L26.8,7.623l.012.029h3.834Zm2.394-.278-.868,1.77h-.677l.4-1.828V7.264h1.139ZM34.564,4.8,35.049.121h4.216V1.134H36.009l-.272,2.423a2.6,2.6,0,0,1,.6-.333,2.116,2.116,0,0,1,.752-.136,2.293,2.293,0,0,1,1.83.732,2.955,2.955,0,0,1,.662,2.039,2.962,2.962,0,0,1-.68,2.036,2.5,2.5,0,0,1-1.981.769,2.714,2.714,0,0,1-1.781-.584,2.022,2.022,0,0,1-.682-1.718l.012-.035H35.5a1.406,1.406,0,0,0,.4,1.067,1.424,1.424,0,0,0,1.027.379,1.344,1.344,0,0,0,1.122-.509,2.2,2.2,0,0,0,.4-1.394,2.006,2.006,0,0,0-.4-1.3,1.359,1.359,0,0,0-1.119-.5,1.789,1.789,0,0,0-.972.2,1.183,1.183,0,0,0-.445.625Z" transform="translate(1645.485 -7949.144) rotate(-49)" fill="#12263f"/>
      <path id="Trazado_198176" data-name="Trazado 198176" d="M1985.733-8539.608l48.068-6.157,45.5-101.363,50.574,45.85,44.75-24.83,46.572,24.83,46.4,44.092,49.977,21.213,49.123,11.408" transform="translate(-688.813 531.039)" fill="none" stroke="#7f4fc7" stroke-width="3"/>
    </g>
  </g>
</svg>
