<svg xmlns="http://www.w3.org/2000/svg" xmlns:xlink="http://www.w3.org/1999/xlink" width="77.141" height="70.582" viewBox="0 0 77.141 70.582">
  <defs>
    <clipPath id="clip-path">
      <rect id="Rectángulo_47305" data-name="Rectángulo 47305" width="58.533" height="58.537" fill="#fff"/>
    </clipPath>
  </defs>
  <g id="Grupo_155308" data-name="Grupo 155308" transform="translate(0.005)">
    <g id="Grupo_154374" data-name="Grupo 154374" transform="translate(0 2.869)">
      <line id="Línea_1807" data-name="Línea 1807" x2="77.131" y2="0.771" transform="translate(0 66.441)" fill="none" stroke="#fff" stroke-width="1" stroke-dasharray="6"/>
      <g id="Grupo_153193" data-name="Grupo 153193" transform="translate(22.23 11.293) rotate(180)">
        <rect id="Rectángulo_45221" data-name="Rectángulo 45221" width="2.151" height="2.151" transform="translate(9.142 9.142)" fill="#3cffe9"/>
        <rect id="Rectángulo_45222" data-name="Rectángulo 45222" width="2.151" height="2.151" transform="translate(4.571 9.142)" fill="#3cffe9"/>
        <rect id="Rectángulo_45223" data-name="Rectángulo 45223" width="2.151" height="2.151" transform="translate(0 9.142)" fill="#3cffe9"/>
        <rect id="Rectángulo_45232" data-name="Rectángulo 45232" width="2.151" height="2.151" transform="translate(9.142 4.571)" fill="#3cffe9"/>
        <rect id="Rectángulo_45233" data-name="Rectángulo 45233" width="2.151" height="2.151" transform="translate(4.571 4.571)" fill="#3cffe9"/>
        <rect id="Rectángulo_45234" data-name="Rectángulo 45234" width="2.151" height="2.151" transform="translate(0 4.571)" fill="#3cffe9"/>
        <rect id="Rectángulo_45243" data-name="Rectángulo 45243" width="2.151" height="2.151" transform="translate(9.142)" fill="#3cffe9"/>
        <rect id="Rectángulo_45244" data-name="Rectángulo 45244" width="2.151" height="2.151" transform="translate(4.571)" fill="#3cffe9"/>
        <rect id="Rectángulo_45245" data-name="Rectángulo 45245" width="2.151" height="2.151" fill="#3cffe9"/>
      </g>
    </g>
    <g id="Grupo_156252" data-name="Grupo 156252" transform="translate(5.501)">
      <g id="Grupo_156252-2" data-name="Grupo 156252" transform="translate(0 0)" clip-path="url(#clip-path)">
        <path id="Trazado_198190" data-name="Trazado 198190" d="M82.842,54.754a2.771,2.771,0,0,0-.112.309,4.164,4.164,0,0,1-3.009,3.276,4.22,4.22,0,0,1-4.267-1.094,1.372,1.372,0,0,0-.824-.353q-3.2-.044-6.4-.009a3.217,3.217,0,0,1-2.5-1.034q-1.962-2.037-4-4a3.2,3.2,0,0,1-1.061-2.54c.034-1.047,0-2.095.013-3.142a1.1,1.1,0,0,0-.364-.893,4.265,4.265,0,0,1-1.233-3.813,1.166,1.166,0,0,0-.168-.766c-.892-1.235-1.832-2.435-2.727-3.667a.649.649,0,0,0-.808-.284,7.7,7.7,0,1,1,.023-14.954.637.637,0,0,0,.81-.26c.889-1.237,1.822-2.442,2.712-3.678a1.072,1.072,0,0,0,.175-.715,4.476,4.476,0,0,1,1.269-3.976,1.112,1.112,0,0,0,.292-.677c.03-1.161.02-2.324.012-3.486A2.855,2.855,0,0,1,61.57,6.85Q63.745,4.7,65.895,2.526a2.791,2.791,0,0,1,2.1-.866c2.172.013,4.344,0,6.516.011a1.157,1.157,0,0,0,1-.4A4.918,4.918,0,0,1,77.811,0h1.372c.122.042.243.089.367.124a4.26,4.26,0,0,1,3.113,3.068c.057.194.118.387.178.58V4.8a.833.833,0,0,0-.1.2,4.124,4.124,0,0,1-3.077,3.4,4.168,4.168,0,0,1-4.4-1.32.98.98,0,0,0-.633-.26c-1.275-.024-2.562.089-3.825-.038a3.376,3.376,0,0,0-3.3,1.381c-.484.628-1.326,1.062-1.6,1.747a6.933,6.933,0,0,0-.085,2.429,1.625,1.625,0,0,0,1.366,1.377c2.476,0,4.951.011,7.427-.014a1.233,1.233,0,0,0,.762-.34,4.216,4.216,0,0,1,4.18-1.221,4.131,4.131,0,0,1,3.083,2.994c.065.214.132.426.2.64V16.8a.842.842,0,0,0-.1.2,4.127,4.127,0,0,1-3.078,3.4A4.169,4.169,0,0,1,75.3,19.126a.973.973,0,0,0-.631-.254q-3.742-.026-7.485,0a1.043,1.043,0,0,0-.677.283,4.568,4.568,0,0,1-2.852,1.416.818.818,0,0,0-.51.268q-1.491,1.951-2.937,3.936a.585.585,0,0,0-.057.493c.655,1.431.662,1.428,2.219,1.428h.8c.952,0,1.9-.01,2.857.013a.774.774,0,0,1,.814.786.806.806,0,0,1-.77.89,5.648,5.648,0,0,1-.741.024c-1.347,0-2.694,0-4.058,0v1.67h12.97v-1.67H70.623c-.152,0-.305,0-.456-.009a.887.887,0,0,1-.906-.844A.86.86,0,0,1,70.2,26.7c1.428-.014,2.857-.02,4.285,0a1.226,1.226,0,0,0,.986-.421,4.068,4.068,0,0,1,4.189-1.139,4.158,4.158,0,0,1,3.033,3.115c.051.181.1.362.147.544v.915a.98.98,0,0,0-.09.206,4.106,4.106,0,0,1-3.04,3.435,4.175,4.175,0,0,1-4.381-1.231,1.063,1.063,0,0,0-.685-.276c-1.943-.022-3.887-.013-5.83-.013-2.5,0-4.992-.006-7.488.012a.8.8,0,0,0-.6.261,15.156,15.156,0,0,0-.723,1.44c1.035,1.377,2.07,2.766,3.126,4.14a.826.826,0,0,0,.516.259,4.555,4.555,0,0,1,2.856,1.41,1.043,1.043,0,0,0,.675.288q3.715.03,7.43,0a1.232,1.232,0,0,0,.765-.335,4.307,4.307,0,0,1,7.344,2.042c.031.124.079.244.12.366v1.029a.836.836,0,0,0-.1.2,4.3,4.3,0,0,1-7.44,2.124.9.9,0,0,0-.576-.252q-3.8-.025-7.6,0a.885.885,0,0,0-.508.162,1.756,1.756,0,0,0-.81,1.79c.081.462-.024.954.03,1.424a1.439,1.439,0,0,0,.331.782c.769.819,1.561,1.619,2.384,2.382a1.461,1.461,0,0,0,.886.359c1.676.034,3.353.006,5.028.024a1.137,1.137,0,0,0,.93-.4,4.068,4.068,0,0,1,4.159-1.245,4.129,4.129,0,0,1,3.085,2.994c.064.214.132.426.2.64Zm-29.365-19.5a5.991,5.991,0,1,0-5.94-6.057,5.981,5.981,0,0,0,5.94,6.057M74.262,53.447h-.681c-1.542,0-3.084-.013-4.626.007a1.653,1.653,0,0,1-1.31-.547c-1-1.043-2.03-2.061-3.066-3.07a1.453,1.453,0,0,1-.475-1.166c.023-.717.006-1.436.006-2.18H62.4c0,1-.043,1.972.021,2.936a1.88,1.88,0,0,0,.461,1.093c1.341,1.4,2.74,2.751,4.1,4.138a1.561,1.561,0,0,0,1.209.51c1.865-.015,3.731,0,5.6-.008.162,0,.323-.029.481-.044ZM64.111,12.039c0-.766-.046-1.507.019-2.237a1.868,1.868,0,0,1,.428-1.051q1.563-1.663,3.228-3.229a1.64,1.64,0,0,1,1-.409c1.617-.042,3.235-.019,4.853-.019h.618V3.437a.872.872,0,0,0-.185-.049c-2.055,0-4.111-.019-6.166.009a1.288,1.288,0,0,0-.788.366c-1.458,1.422-2.895,2.865-4.326,4.314a1.1,1.1,0,0,0-.36.62c-.036,1.116-.017,2.234-.017,3.342ZM75.966,4.277a2.562,2.562,0,0,0,2.566,2.58A2.6,2.6,0,0,0,81.1,4.267,2.6,2.6,0,0,0,78.55,1.716a2.561,2.561,0,0,0-2.584,2.562m-12.61,9.441a2.571,2.571,0,0,0-.1,5.14,2.571,2.571,0,1,0,.1-5.14m15.2,0a2.571,2.571,0,0,0-.092,5.14,2.571,2.571,0,1,0,.092-5.14M60.76,42.2a2.562,2.562,0,0,0,2.542,2.6,2.571,2.571,0,0,0,.066-5.141A2.56,2.56,0,0,0,60.76,42.2m15.206.015a2.561,2.561,0,0,0,2.557,2.588,2.571,2.571,0,0,0,.035-5.141,2.56,2.56,0,0,0-2.592,2.553m0,12.008a2.562,2.562,0,0,0,2.563,2.583,2.571,2.571,0,0,0,.023-5.141,2.561,2.561,0,0,0-2.586,2.558m0-24.981a2.542,2.542,0,0,0,2.558,2.579,2.562,2.562,0,1,0,.032-5.124,2.541,2.541,0,0,0-2.59,2.545m-8.39,13.805h6.68V41.424h-6.68Zm0-25.937h6.667V15.46H67.579ZM58.893,23.66l2.567-3.445-1.37-1.026-2.558,3.43,1.362,1.041m2.552,14.658-2.583-3.426L57.5,35.931l2.577,3.418,1.367-1.031" transform="translate(-24.309 0)" fill="#fff"/>
        <path id="Trazado_198191" data-name="Trazado 198191" d="M33.037,0c.152.067.3.14.457.2a2.9,2.9,0,0,1,1.765,3.918c-.219.568-.427,1.14-.656,1.7-.238.582-.683.8-1.165.6s-.641-.64-.42-1.243c.19-.518.393-1.031.591-1.545a1.293,1.293,0,0,0-1.335-1.917c-1.467-.011-2.934,0-4.4,0-.553,0-1.105-.005-1.658,0a1.466,1.466,0,0,0-1.6,1.6c-.016.743,0,1.486-.006,2.229a3.146,3.146,0,0,1-2.173,3.094c-.973.38-1.938.784-2.9,1.2a3.146,3.146,0,0,1-3.724-.671c-.531-.52-1.045-1.057-1.579-1.572a1.435,1.435,0,0,0-2.217-.008Q9.8,9.774,7.609,11.989a1.433,1.433,0,0,0,.01,2.213c.518.533,1.054,1.048,1.574,1.578a3.164,3.164,0,0,1,.666,3.726c-.428.974-.83,1.96-1.217,2.95a3.159,3.159,0,0,1-3.074,2.123c-.762,0-1.524-.011-2.286.005a1.448,1.448,0,0,0-1.545,1.542q-.027,3.142,0,6.286A1.449,1.449,0,0,0,3.3,33.942c.8.015,1.6-.017,2.4.008a3.039,3.039,0,0,1,2.879,1.975c.466,1.082.923,2.169,1.356,3.264A3.074,3.074,0,0,1,9.3,42.63c-.529.574-1.1,1.105-1.65,1.663a1.454,1.454,0,0,0,.009,2.294q2.135,2.149,4.284,4.283a1.465,1.465,0,0,0,2.34.013c.531-.519,1.047-1.055,1.58-1.572a3.115,3.115,0,0,1,3.631-.636c1.012.436,2.036.845,3.055,1.266A3.044,3.044,0,0,1,24.6,52.826c.028.78,0,1.562.012,2.342a1.489,1.489,0,0,0,1.677,1.643,8.248,8.248,0,0,1,.97.015.789.789,0,0,1,.759.845.77.77,0,0,1-.764.836,7.641,7.641,0,0,1-1.709-.036A3.123,3.123,0,0,1,22.9,55.35c-.024-.78,0-1.562-.009-2.343a1.442,1.442,0,0,0-1.064-1.51c-.987-.4-1.972-.8-2.95-1.221a1.474,1.474,0,0,0-1.909.356c-.529.522-1.044,1.058-1.579,1.573a3.12,3.12,0,0,1-4.508.015q-2.309-2.256-4.566-4.566a3.1,3.1,0,0,1,.017-4.461c.528-.55,1.08-1.075,1.613-1.62a1.5,1.5,0,0,0,.322-1.92c-.413-.96-.809-1.928-1.195-2.9a1.481,1.481,0,0,0-1.553-1.092c-.762-.006-1.524.009-2.286-.005A3.151,3.151,0,0,1,.022,32.475c-.029-2.152-.032-4.3,0-6.457A3.141,3.141,0,0,1,3.2,22.87c.8-.015,1.6,0,2.4-.005A1.422,1.422,0,0,0,7.011,21.9q.651-1.581,1.313-3.158A1.467,1.467,0,0,0,8,17.011c-.536-.541-1.082-1.073-1.614-1.619a3.131,3.131,0,0,1,.026-4.627Q8.562,8.593,10.732,6.44a3.166,3.166,0,0,1,4.8.022c.487.483.966.973,1.456,1.454a1.463,1.463,0,0,0,1.863.345c1-.425,2-.843,3-1.242A1.461,1.461,0,0,0,22.89,5.544c0-.552,0-1.1,0-1.657,0-2.276.523-3.058,2.6-3.887Z" transform="translate(0 0)" fill="#fff"/>
        <path id="Trazado_198192" data-name="Trazado 198192" d="M42.771,55.015c-.414-1.085-.776-2.107-1.206-3.1a.916.916,0,0,0-.662-.378,12.293,12.293,0,0,1-7.558-3.417c-3.731-3.653-4.992-8.087-3.438-13.067a12.152,12.152,0,0,1,10.249-8.791c1.043-.175,1.579-.508,1.827-1.5a17.817,17.817,0,0,1,.742-1.971,22.45,22.45,0,0,0-2.35.011A16.149,16.149,0,0,0,25.988,36.97,15.748,15.748,0,0,0,29.035,48.5c.552.757.58,1.224.079,1.579-.464.33-.926.154-1.453-.552A17.887,17.887,0,0,1,38.995,21.287c1.436-.242,2.911-.249,4.458-.372.236-.606.512-1.332.8-2.052.245-.614.692-.851,1.2-.648a.884.884,0,0,1,.4,1.253q-1.339,3.488-2.693,6.971a2.073,2.073,0,0,1-1.906,1.39,11.027,11.027,0,0,0-.69,21.927c.265.03.529.07.794.092A1.913,1.913,0,0,1,43.1,51.113c1.721,4.452,3.448,8.9,5.125,13.37.6,1.609-.9,3.533-2.78,3.656a14.069,14.069,0,0,1-1.428.007.853.853,0,1,1,0-1.7c.4-.017.8.009,1.2-.009A1.274,1.274,0,0,0,46.449,64.6c-.939-2.451-1.886-4.9-2.805-7.356a.659.659,0,0,0-.777-.512,17.472,17.472,0,0,1-11.729-3.677c-.189-.145-.454-.36-.455-.544a1.484,1.484,0,0,1,.293-.95c.309-.337.713-.185,1.088.047,1.13.7,2.234,1.455,3.424,2.036a14.962,14.962,0,0,0,6.587,1.419c.206,0,.412-.027.7-.048" transform="translate(-12.81 -9.625)" fill="#fff"/>
      </g>
    </g>
  </g>
</svg>
