<svg xmlns="http://www.w3.org/2000/svg" width="94.005" height="79.582" viewBox="0 0 94.005 79.582">
  <g id="Grupo_156301" data-name="Grupo 156301" transform="translate(4884.005 10206.541)">
    <path id="Trazado_198368" data-name="Trazado 198368" d="M0,0,77.131.771" transform="translate(-4884 -10128.23)" fill="none" stroke="#fff" stroke-width="1" stroke-dasharray="6"/>
    <g id="Grupo_153193" data-name="Grupo 153193" transform="translate(-4861.77 -10195.248) rotate(180)">
      <rect id="Rectángulo_45221" data-name="Rectángulo 45221" width="2.151" height="2.151" transform="translate(9.142 9.142)" fill="#3cffe9"/>
      <rect id="Rectángulo_45222" data-name="Rectángulo 45222" width="2.151" height="2.151" transform="translate(4.571 9.142)" fill="#3cffe9"/>
      <rect id="Rectángulo_45223" data-name="Rectángulo 45223" width="2.151" height="2.151" transform="translate(0 9.142)" fill="#3cffe9"/>
      <rect id="Rectángulo_45232" data-name="Rectángulo 45232" width="2.151" height="2.151" transform="translate(9.142 4.571)" fill="#3cffe9"/>
      <rect id="Rectángulo_45233" data-name="Rectángulo 45233" width="2.151" height="2.151" transform="translate(4.571 4.571)" fill="#3cffe9"/>
      <rect id="Rectángulo_45234" data-name="Rectángulo 45234" width="2.151" height="2.151" transform="translate(0 4.571)" fill="#3cffe9"/>
      <rect id="Rectángulo_45243" data-name="Rectángulo 45243" width="2.151" height="2.151" transform="translate(9.142)" fill="#3cffe9"/>
      <rect id="Rectángulo_45244" data-name="Rectángulo 45244" width="2.151" height="2.151" transform="translate(4.571)" fill="#3cffe9"/>
      <rect id="Rectángulo_45245" data-name="Rectángulo 45245" width="2.151" height="2.151" fill="#3cffe9"/>
    </g>
    <path id="Trazado_198369" data-name="Trazado 198369" d="M3,0H47a3,3,0,0,1,3,3V24a3,3,0,0,1-3,3H3a3,3,0,0,1-3-3V3A3,3,0,0,1,3,0Z" transform="translate(-4840 -10193.749)" fill="#3cffe9"/>
    <path id="Trazado_198095" data-name="Trazado 198095" d="M50.141,7.713A30.1,30.1,0,0,0,7.632,9.98,29.241,29.241,0,0,0,0,30.139,29.926,29.926,0,0,0,11.855,54.062c-.056.093,4.029,2.614,4.029,2.614A30.1,30.1,0,0,0,50.141,7.713m5.028,19.98H32.35l-.016-22.7a24.921,24.921,0,0,1,22.835,22.7M17.45,52.17A25.5,25.5,0,0,1,5.526,23.232C8.364,13.134,18.519,4.717,27.677,4.979l0,1.552c0,7.45.03,14.9-.024,22.346a4.962,4.962,0,0,0,1.361,3.615C34.35,38.418,39.624,44.4,44.923,50.362A24.864,24.864,0,0,1,17.45,52.17m31.025-4.76L35.242,32.525h19.8c.4,3.808-2.608,10.743-6.567,14.885" transform="translate(-4876 -10193.952)" fill="#fff"/>
    <path id="Trazado_198370" data-name="Trazado 198370" d="M-12.893,0h-4.621V-14.711l-4.539,1.326v-3.5l8.736-3.021h.424ZM6.932-8.135A9.5,9.5,0,0,1,5.12-1.914,6.26,6.26,0,0,1,.014.273a6.294,6.294,0,0,1-5.141-2.2A9.49,9.49,0,0,1-6.945-8.135v-3.637a9.5,9.5,0,0,1,1.812-6.221A6.276,6.276,0,0,1-.014-20.18a6.278,6.278,0,0,1,5.127,2.2,9.514,9.514,0,0,1,1.818,6.221ZM2.324-12.359a7.1,7.1,0,0,0-.561-3.206,1.874,1.874,0,0,0-1.777-1.06,1.829,1.829,0,0,0-1.729.984,6.688,6.688,0,0,0-.581,2.98v5.086a7.153,7.153,0,0,0,.561,3.261A1.881,1.881,0,0,0,.014-3.281a1.856,1.856,0,0,0,1.736-1,6.829,6.829,0,0,0,.574-3.151ZM23.146-8.135a9.5,9.5,0,0,1-1.812,6.221A6.26,6.26,0,0,1,16.229.273a6.294,6.294,0,0,1-5.141-2.2A9.49,9.49,0,0,1,9.27-8.135v-3.637a9.5,9.5,0,0,1,1.812-6.221A6.276,6.276,0,0,1,16.2-20.18a6.278,6.278,0,0,1,5.127,2.2,9.514,9.514,0,0,1,1.818,6.221Zm-4.607-4.225a7.1,7.1,0,0,0-.561-3.206,1.874,1.874,0,0,0-1.777-1.06,1.829,1.829,0,0,0-1.729.984,6.688,6.688,0,0,0-.581,2.98v5.086a7.153,7.153,0,0,0,.561,3.261,1.881,1.881,0,0,0,1.777,1.032,1.856,1.856,0,0,0,1.736-1,6.829,6.829,0,0,0,.574-3.151Z" transform="translate(-4815 -10170.749)" fill="#2194e5"/>
    <path id="Trazado_198371" data-name="Trazado 198371" d="M6,0,0,29" transform="translate(-4851.5 -10165.249)" fill="none" stroke="#fff" stroke-width="5"/>
    <path id="Trazado_198372" data-name="Trazado 198372" d="M23,0,0,16" transform="translate(-4868.5 -10165.249)" fill="none" stroke="#fff" stroke-width="5"/>
    <path id="Trazado_198373" data-name="Trazado 198373" d="M28,3,0,0" transform="translate(-4873.5 -10168.249)" fill="none" stroke="#fff" stroke-width="5"/>
    <path id="Trazado_198374" data-name="Trazado 198374" d="M25,13,0,0" transform="translate(-4870.5 -10178.249)" fill="none" stroke="#fff" stroke-width="5"/>
    <path id="Trazado_198375" data-name="Trazado 198375" d="M0,0,7,27" transform="translate(-4845.5 -10165.249)" fill="none" stroke="#fff" stroke-width="5"/>
    <path id="Trazado_198376" data-name="Trazado 198376" d="M0,0,24,14" transform="translate(-4845.5 -10165.249)" fill="none" stroke="#fff" stroke-width="5"/>
    <path id="Trazado_198377" data-name="Trazado 198377" d="M18,0,0,25" transform="translate(-4863.5 -10165.249)" fill="none" stroke="#fff" stroke-width="5"/>
    <path id="Trazado_198378" data-name="Trazado 198378" d="M28,0,0,8" transform="translate(-4873.5 -10165.249)" fill="none" stroke="#fff" stroke-width="5"/>
    <path id="Trazado_198379" data-name="Trazado 198379" d="M14,23,0,0" transform="translate(-4859.5 -10188.249)" fill="none" stroke="#fff" stroke-width="5"/>
  </g>
</svg>
