<svg xmlns="http://www.w3.org/2000/svg" width="94.005" height="79.582" viewBox="0 0 94.005 79.582">
  <g id="Grupo_156302" data-name="Grupo 156302" transform="translate(4464.005 10111.922)">
    <g id="Grupo_155819" data-name="Grupo 155819" transform="translate(-4464 -10111.922)">
      <g id="Grupo_154374" data-name="Grupo 154374" transform="translate(0 0)">
        <line id="Línea_1807" data-name="Línea 1807" x2="77.131" y2="0.771" transform="translate(0 78.311)" fill="none" stroke="#fff" stroke-width="1" stroke-dasharray="6"/>
        <g id="Grupo_153193" data-name="Grupo 153193" transform="translate(22.23 11.293) rotate(180)">
          <rect id="Rectángulo_45221" data-name="Rectángulo 45221" width="2.151" height="2.151" transform="translate(9.142 9.142)" fill="#3cffe9"/>
          <rect id="Rectángulo_45222" data-name="Rectángulo 45222" width="2.151" height="2.151" transform="translate(4.571 9.142)" fill="#3cffe9"/>
          <rect id="Rectángulo_45223" data-name="Rectángulo 45223" width="2.151" height="2.151" transform="translate(0 9.142)" fill="#3cffe9"/>
          <rect id="Rectángulo_45232" data-name="Rectángulo 45232" width="2.151" height="2.151" transform="translate(9.142 4.571)" fill="#3cffe9"/>
          <rect id="Rectángulo_45233" data-name="Rectángulo 45233" width="2.151" height="2.151" transform="translate(4.571 4.571)" fill="#3cffe9"/>
          <rect id="Rectángulo_45234" data-name="Rectángulo 45234" width="2.151" height="2.151" transform="translate(0 4.571)" fill="#3cffe9"/>
          <rect id="Rectángulo_45243" data-name="Rectángulo 45243" width="2.151" height="2.151" transform="translate(9.142)" fill="#3cffe9"/>
          <rect id="Rectángulo_45244" data-name="Rectángulo 45244" width="2.151" height="2.151" transform="translate(4.571)" fill="#3cffe9"/>
          <rect id="Rectángulo_45245" data-name="Rectángulo 45245" width="2.151" height="2.151" fill="#3cffe9"/>
        </g>
      </g>
      <g id="Grupo_156195" data-name="Grupo 156195" transform="translate(4350 10072.792)">
        <rect id="Rectángulo_47283" data-name="Rectángulo 47283" width="50" height="27" rx="3" transform="translate(-4306 -10060)" fill="#3cffe9"/>
        <path id="Trazado_198095" data-name="Trazado 198095" d="M50.141,7.713A30.1,30.1,0,0,0,7.632,9.98,29.241,29.241,0,0,0,0,30.139,29.926,29.926,0,0,0,11.855,54.062c-.056.093,4.029,2.614,4.029,2.614A30.1,30.1,0,0,0,50.141,7.713m5.028,19.98H32.35l-.016-22.7a24.921,24.921,0,0,1,22.835,22.7M17.45,52.17A25.5,25.5,0,0,1,5.526,23.232C8.364,13.134,18.519,4.717,27.677,4.979l0,1.552c0,7.45.03,14.9-.024,22.346a4.962,4.962,0,0,0,1.361,3.615C34.35,38.418,39.624,44.4,44.923,50.362A24.864,24.864,0,0,1,17.45,52.17m31.025-4.76L35.242,32.525h19.8c.4,3.808-2.608,10.743-6.567,14.885" transform="translate(-4342 -10060.203)" fill="#fff"/>
        <path id="Trazado_198380" data-name="Trazado 198380" d="M-4.785,0H-9.406V-14.711l-4.539,1.326v-3.5l8.736-3.021h.424ZM15.039-8.135a9.5,9.5,0,0,1-1.812,6.221A6.26,6.26,0,0,1,8.121.273a6.294,6.294,0,0,1-5.141-2.2A9.49,9.49,0,0,1,1.162-8.135v-3.637a9.5,9.5,0,0,1,1.812-6.221,6.276,6.276,0,0,1,5.12-2.187,6.278,6.278,0,0,1,5.127,2.2,9.514,9.514,0,0,1,1.818,6.221Zm-4.607-4.225a7.1,7.1,0,0,0-.561-3.206,1.874,1.874,0,0,0-1.777-1.06,1.829,1.829,0,0,0-1.729.984,6.688,6.688,0,0,0-.581,2.98v5.086a7.153,7.153,0,0,0,.561,3.261A1.881,1.881,0,0,0,8.121-3.281a1.856,1.856,0,0,0,1.736-1,6.829,6.829,0,0,0,.574-3.151Z" transform="translate(-4281 -10037)" fill="#2194e5"/>
      </g>
      <line id="Línea_2012" data-name="Línea 2012" x1="20" y1="21" transform="translate(18.5 22.292)" fill="none" stroke="#fff" stroke-width="5"/>
      <line id="Línea_2013" data-name="Línea 2013" x1="27" y1="4" transform="translate(11.5 39.292)" fill="none" stroke="#fff" stroke-width="5"/>
      <line id="Línea_2014" data-name="Línea 2014" x1="24" y2="12" transform="translate(14.5 43.292)" fill="none" stroke="#fff" stroke-width="5"/>
      <line id="Línea_2015" data-name="Línea 2015" x1="10" y2="23" transform="translate(28.5 43.292)" fill="none" stroke="#fff" stroke-width="5"/>
      <line id="Línea_2016" data-name="Línea 2016" x2="8" y2="25" transform="translate(36.5 43.292)" fill="none" stroke="#fff" stroke-width="5"/>
      <line id="Línea_2017" data-name="Línea 2017" y1="23" x2="18" transform="translate(38.5 20.292)" fill="none" stroke="#fff" stroke-width="5"/>
      <line id="Línea_2018" data-name="Línea 2018" x2="28" y2="12" transform="translate(36.5 43.292)" fill="none" stroke="#fff" stroke-width="5"/>
    </g>
  </g>
</svg>
