<svg id="Grupo_155361" data-name="Grupo 155361" xmlns="http://www.w3.org/2000/svg" xmlns:xlink="http://www.w3.org/1999/xlink" width="103.431" height="103.431" viewBox="0 0 103.431 103.431">
  <defs>
    <clipPath id="clip-path">
      <rect id="Rectángulo_47344" data-name="Rectángulo 47344" width="62.544" height="67.85" fill="#fff"/>
    </clipPath>
  </defs>
  <circle id="Elipse_5716" data-name="Elipse 5716" cx="51.715" cy="51.715" r="51.715" transform="translate(0)" fill="#7f4fc7"/>
  <g id="Grupo_156270" data-name="Grupo 156270" transform="translate(20 18)">
    <g id="Grupo_156270-2" data-name="Grupo 156270" clip-path="url(#clip-path)">
      <path id="Trazado_198323" data-name="Trazado 198323" d="M16.172,0c.094.217.307.122.463.167A5.811,5.811,0,0,1,20.763,4.1c.162.49.379.577.83.576Q34.51,4.661,47.427,4.67c3.3,0,5.365,1.557,6.2,4.727a.781.781,0,0,0,.505.537c1.616.806,3.236,1.6,4.848,2.42a6.079,6.079,0,0,1,3.4,7.026q-4.269,21.3-8.5,42.6a11.306,11.306,0,0,1-1.167,3.675.944.944,0,0,0-.077.3c-.069-.232-.082-.244-.276-.038a5.919,5.919,0,0,1-2.851,1.716,6.924,6.924,0,0,1-1.767.215q-20.833,0-41.666,0A5.781,5.781,0,0,1,0,61.779Q0,36.276,0,10.772A5.832,5.832,0,0,1,4.4,4.894c.225-.067.4-.134.467-.393A5.842,5.842,0,0,1,9.287.13c.05-.014.085-.085.127-.13ZM53.828,15.793c-.007.154-.02.308-.02.462q0,16.452,0,32.9c0,.165-.067.351.088.536,1.077-5.388,2.151-10.74,3.214-16.094q1.441-7.258,2.864-14.519a3.394,3.394,0,0,0-1.172-4.072,40.685,40.685,0,0,0-4.977-2.593ZM51.456,36.277q0-12.754,0-25.508a3.437,3.437,0,0,0-3.748-3.748q-13.019-.007-26.038-.014c-.492,0-.621.113-.617.612.024,3.6.013,7.2.012,10.8s.028,7.2-.008,10.8a5.86,5.86,0,1,1-11.709-.332c.045-5.985.012-11.97.014-17.954a4.256,4.256,0,0,1,.028-.595,1.056,1.056,0,0,1,1.2-.96A1.043,1.043,0,0,1,11.674,10.4c.021.241.012.486.012.728q0,8.945,0,17.889a3.48,3.48,0,0,0,1.526,3.13,3.433,3.433,0,0,0,3.645.2A3.243,3.243,0,0,0,18.7,29.279q.016-8.944.007-17.888c0-1.3-.007-2.606.005-3.909,0-.311-.034-.472-.417-.471-4.218.016-8.437,0-12.654.026A3.335,3.335,0,0,0,2.5,9.458a5.131,5.131,0,0,0-.151,1.574q0,25.243,0,50.486c0,.221,0,.442.011.663a3.366,3.366,0,0,0,3.372,3.3c1.037.029,2.076-.01,3.114.018.406.011.533-.114.521-.521-.027-.948-.02-1.9,0-2.848.015-.86.425-1.3,1.161-1.3s1.15.452,1.159,1.3c.011.95.021,1.9-.006,2.849-.012.4.1.526.515.525q5.333-.022,10.667,0c.456,0,.549-.156.538-.569q-.037-1.424,0-2.849c.021-.835.474-1.281,1.209-1.256.71.024,1.1.466,1.116,1.278.01.552,0,1.1,0,1.656s-.177,1.274.1,1.6c.326.381,1.078.068,1.639.137.493.06.633-.106.628-.612-.028-2.5-.02-4.991-.008-7.487a1.125,1.125,0,0,1,1.472-1.207c.685.164.855.688.855,1.315,0,2.076-.008,4.152.006,6.228,0,.565-.25,1.3.116,1.65s1.1.058,1.662.112c.421.04.577-.085.559-.536-.037-.882-.013-1.766-.01-2.65,0-1,.4-1.492,1.191-1.483s1.162.5,1.166,1.513c0,.861.029,1.724-.011,2.583-.022.476.136.58.59.578,4.041-.018,8.083-.008,12.125-.015a4.34,4.34,0,0,0,1.048-.106,3.408,3.408,0,0,0,2.6-3.664q.005-12.721,0-25.442M7.341,4.612c.017.011.033.031.05.031q5.357.014,10.714.029c.378,0,.328-.158.2-.4A3.071,3.071,0,0,0,15.691,2.4c-1.892-.086-3.793-.073-5.686,0a3.026,3.026,0,0,0-2.664,2.21" transform="translate(0)" fill="#fff"/>
      <path id="Trazado_198324" data-name="Trazado 198324" d="M101.411,31.245q-1.431,7.26-2.864,14.52c-1.063,5.354-2.137,10.706-3.214,16.094-.155-.184-.088-.371-.088-.536q-.007-16.452,0-32.9c0-.154.013-.308.02-.463q2.429,1.192,4.858,2.385a4.111,4.111,0,0,1,1.291.9" transform="translate(-41.434 -12.164)" fill="#fff"/>
      <path id="Trazado_198325" data-name="Trazado 198325" d="M29.467,74.563q5.758,0,11.515,0c1,0,1.526.656,1.267,1.521a.985.985,0,0,1-.887.768,7.259,7.259,0,0,1-.792.034q-11.118,0-22.236,0a6.482,6.482,0,0,1-.726-.023,1.065,1.065,0,0,1-1.016-1.218,1.031,1.031,0,0,1,1.1-1.074c1.721-.02,3.441-.01,5.162-.01h6.618" transform="translate(-7.218 -32.441)" fill="#fff"/>
      <path id="Trazado_198326" data-name="Trazado 198326" d="M57.923,82.82c2.274,0,4.547-.005,6.821,0,.861,0,1.3.4,1.308,1.148s-.423,1.189-1.261,1.2c-1.413.016-2.826,0-4.238,0q-4.735,0-9.47,0c-.8,0-1.24-.3-1.359-.891a1.148,1.148,0,0,1,1.246-1.456c2.317-.012,4.635,0,6.953,0" transform="translate(-21.62 -36.033)" fill="#fff"/>
      <path id="Trazado_198327" data-name="Trazado 198327" d="M57.877,24.855q3.41,0,6.82,0c.917,0,1.361.381,1.368,1.149S65.632,27.2,64.726,27.2q-6.82.014-13.64,0c-.943,0-1.394-.433-1.368-1.231.024-.758.463-1.111,1.4-1.112q3.377,0,6.753,0" transform="translate(-21.632 -10.814)" fill="#fff"/>
      <path id="Trazado_198328" data-name="Trazado 198328" d="M24.713,82.821q3.411,0,6.821,0c.953,0,1.413.4,1.405,1.188-.007.759-.465,1.161-1.372,1.161q-6.82.008-13.641,0c-.9,0-1.344-.418-1.336-1.193s.457-1.154,1.368-1.156c2.252-.005,4.5,0,6.755,0" transform="translate(-7.218 -36.034)" fill="#fff"/>
      <path id="Trazado_198329" data-name="Trazado 198329" d="M57.865,49.708c2.317,0,4.635-.007,6.951,0a1.114,1.114,0,0,1,1.229,1.4.965.965,0,0,1-.786.87,4.026,4.026,0,0,1-.854.069q-6.521.006-13.043,0a4.736,4.736,0,0,1-.594-.024,1.077,1.077,0,0,1-1.051-1.2,1.055,1.055,0,0,1,1.13-1.113c.971-.021,1.942-.007,2.913-.008h4.1" transform="translate(-21.631 -21.626)" fill="#fff"/>
      <path id="Trazado_198330" data-name="Trazado 198330" d="M57.9,68.587q-3.41,0-6.819,0c-.921,0-1.361-.378-1.369-1.146s.427-1.186,1.342-1.188q6.852-.015,13.7,0c.9,0,1.325.442,1.3,1.225-.024.739-.456,1.106-1.339,1.108-2.273.005-4.546,0-6.819,0" transform="translate(-21.631 -28.822)" fill="#fff"/>
      <path id="Trazado_198331" data-name="Trazado 198331" d="M57.883,43.744c-2.317,0-4.634.008-6.951,0a1.147,1.147,0,0,1-1.174-1.6c.234-.627.76-.729,1.347-.728q3.211.007,6.421,0c2.383,0,4.766-.006,7.148,0,.933,0,1.363.382,1.368,1.151s-.426,1.167-1.276,1.169c-2.294.008-4.59,0-6.884,0" transform="translate(-21.61 -18.02)" fill="#fff"/>
      <path id="Trazado_198332" data-name="Trazado 198332" d="M53.166,35.462c-.749,0-1.5.015-2.246,0a1.17,1.17,0,1,1-.037-2.339q2.345-.038,4.691,0a1.168,1.168,0,1,1-.029,2.336c-.792.022-1.586.005-2.378.005" transform="translate(-21.632 -14.402)" fill="#fff"/>
      <path id="Trazado_198333" data-name="Trazado 198333" d="M69.768,35.463c-.749,0-1.5.011-2.246,0a1.176,1.176,0,1,1,0-2.345q2.246-.025,4.492,0a1.1,1.1,0,0,1,1.247,1.207c-.015.721-.444,1.124-1.247,1.138-.748.014-1.5,0-2.245,0" transform="translate(-28.83 -14.403)" fill="#fff"/>
      <path id="Trazado_198334" data-name="Trazado 198334" d="M53.187,60.316c-.749,0-1.5.015-2.246,0a1.173,1.173,0,1,1-.012-2.344q2.279-.027,4.559,0a1.173,1.173,0,1,1,.011,2.343c-.77.019-1.541,0-2.312,0" transform="translate(-21.632 -25.216)" fill="#fff"/>
      <path id="Trazado_198335" data-name="Trazado 198335" d="M69.716,57.965c.748,0,1.5-.008,2.246,0,.852.012,1.29.41,1.3,1.154s-.426,1.186-1.26,1.193q-2.246.021-4.492,0a1.12,1.12,0,0,1-1.248-1.152c-.012-.732.453-1.178,1.274-1.194.726-.014,1.454,0,2.18,0" transform="translate(-28.83 -25.218)" fill="#fff"/>
      <path id="Trazado_198336" data-name="Trazado 198336" d="M69.784,74.565c.773,0,1.546-.014,2.319,0a1.15,1.15,0,0,1,.071,2.3q-2.417.047-4.835,0a1.054,1.054,0,0,1-1.075-1.172A1.081,1.081,0,0,1,67.4,74.57c.794-.021,1.59,0,2.385-.005" transform="translate(-28.831 -32.44)" fill="#fff"/>
    </g>
  </g>
</svg>
