<svg id="Grupo_155361" data-name="Grupo 155361" xmlns="http://www.w3.org/2000/svg" xmlns:xlink="http://www.w3.org/1999/xlink" width="103.431" height="103.431" viewBox="0 0 103.431 103.431">
  <defs>
    <clipPath id="clip-path">
      <rect id="Rectángulo_47343" data-name="Rectángulo 47343" width="66.69" height="66.681" fill="#fff"/>
    </clipPath>
  </defs>
  <circle id="Elipse_5716" data-name="Elipse 5716" cx="51.715" cy="51.715" r="51.715" transform="translate(0)" fill="#7f4fc7"/>
  <g id="Grupo_156269" data-name="Grupo 156269" transform="translate(25.211 18.375)">
    <g id="Grupo_156269-2" data-name="Grupo 156269" clip-path="url(#clip-path)">
      <path id="Trazado_198322" data-name="Trazado 198322" d="M9.959,5.559c.284-3.7,1.69-5.484,4.331-5.549a4.361,4.361,0,0,1,3.6,1.63,5.173,5.173,0,0,1,.993,3.882h2.231A4.864,4.864,0,0,1,23.036.8,4.332,4.332,0,0,1,26,.022c2.528.245,3.769,1.921,4.05,5.488h2.191a4.893,4.893,0,0,1,1.611-4.487A4.275,4.275,0,0,1,36.8.01a4.38,4.38,0,0,1,3.4,1.742,5.437,5.437,0,0,1,.918,3.807h.8q3.889,0,7.777,0c1.04,0,1.418.38,1.419,1.427q0,8.577,0,17.152v.9c.242-.214.408-.347.558-.5q2.458-2.453,4.911-4.909c.945-.946,1.254-.971,2.372-.119,1.059-1.068,2.127-2.15,3.2-3.227.979-.985,1.387-.985,2.358-.016.574.572,1.155,1.137,1.716,1.721a1.122,1.122,0,0,1-.009,1.814c-1.151,1.168-2.319,2.317-3.471,3.465.831,1.22.808,1.428-.216,2.452Q57.062,31.2,51.58,36.665a1.468,1.468,0,0,0-.471,1.15q.021,13.61.01,27.221c0,1.331-.309,1.644-1.621,1.645H1.585C.32,66.68,0,66.355,0,65.07Q0,36.112,0,7.156c0-1.276.32-1.6,1.6-1.6H9.959ZM37.333,38.878H30.04v-2.16h7.784v1.71c1.768-1.779,3.408-3.444,5.071-5.087a1.389,1.389,0,0,0,.456-1.087q-.02-11.876-.011-23.753c0-.224-.02-.447-.031-.67H34.433v3.24H32.2V7.819H23.323v3.243H21.089V7.83h-8.9v3.245H9.979V7.816H2.265V58.851H43.3V44.959c-1.522,1.524-2.942,2.972-4.4,4.382a3.448,3.448,0,0,1-1.211.756c-1.918.676-3.851,1.309-5.787,1.933a4.086,4.086,0,0,1-1.22.2q-7.744.019-15.488.008h-.7V50.011h.791q6.529,0,13.058,0c.644,0,1.452.2,1.886-.115s.507-1.138.714-1.747c.285-.837.548-1.68.852-2.618H22.262V43.343h.783c3.079,0,6.158.006,9.237-.01a1.267,1.267,0,0,0,.81-.235c1.381-1.335,2.727-2.7,4.24-4.22m11.532.476c-1.043,1.058-1.937,2-2.87,2.895a1.368,1.368,0,0,0-.44,1.093q.02,8.056.009,16.113c0,1.369-.3,1.668-1.667,1.668H2.258v3.29H48.864ZM54.5,25.092,35.117,44.465l2.656,2.654L57.151,27.742,54.5,25.092M45.6,30.65c1.008-1.019,1.9-1.947,2.822-2.839a1.441,1.441,0,0,0,.483-1.144Q48.884,17.61,48.9,8.553V7.838H45.6ZM16.626,5.525c.143-1.194.079-2.284-1.037-2.972a2.072,2.072,0,0,0-2.357.046c-1.075.706-1.087,1.778-.966,2.927Zm11.119.009c.133-1.253.055-2.366-1.129-3.029a2.072,2.072,0,0,0-2.352.148c-1.011.726-1,1.775-.882,2.881Zm6.747-.015h4.364c.131-1.189.077-2.282-1.044-2.968a2.075,2.075,0,0,0-2.357.049c-1.072.707-1.084,1.779-.963,2.919M56.186,23.248,58.945,26l1.545-1.475-2.761-2.767-1.543,1.487m7.253-4.908-2.86,2.86.436.488,2.876-2.869-.452-.479M32.877,49.37l2.662-.9-1.76-1.825-.9,2.721" transform="translate(0 0)" fill="#fff"/>
      <rect id="Rectángulo_47330" data-name="Rectángulo 47330" width="16.592" height="2.137" transform="translate(14.492 30.044)" fill="#fff"/>
      <rect id="Rectángulo_47331" data-name="Rectángulo 47331" width="14.359" height="2.141" transform="translate(12.257 23.375)" fill="#fff"/>
      <rect id="Rectángulo_47332" data-name="Rectángulo 47332" width="12.161" height="2.13" transform="translate(7.815 43.396)" fill="#fff"/>
      <rect id="Rectángulo_47333" data-name="Rectángulo 47333" width="11.032" height="2.157" transform="translate(16.716 36.715)" fill="#fff"/>
      <rect id="Rectángulo_47334" data-name="Rectángulo 47334" width="9.914" height="2.137" transform="translate(20.061 16.721)" fill="#fff"/>
      <rect id="Rectángulo_47335" data-name="Rectángulo 47335" width="8.824" height="2.123" transform="translate(28.909 23.396)" fill="#fff"/>
      <rect id="Rectángulo_47336" data-name="Rectángulo 47336" width="6.592" height="2.137" transform="translate(7.811 36.724)" fill="#fff"/>
      <rect id="Rectángulo_47337" data-name="Rectángulo 47337" width="5.469" height="2.137" transform="translate(32.259 16.709)" fill="#fff"/>
      <rect id="Rectángulo_47338" data-name="Rectángulo 47338" width="4.383" height="2.113" transform="translate(7.795 30.06)" fill="#fff"/>
      <rect id="Rectángulo_47339" data-name="Rectángulo 47339" width="4.353" height="2.145" transform="translate(33.379 30.041)" fill="#fff"/>
      <rect id="Rectángulo_47340" data-name="Rectángulo 47340" width="4.356" height="2.137" transform="translate(7.817 50.067)" fill="#fff"/>
      <rect id="Rectángulo_47341" data-name="Rectángulo 47341" width="2.138" height="2.137" transform="translate(15.594 16.727)" fill="#fff"/>
      <rect id="Rectángulo_47342" data-name="Rectángulo 47342" width="2.121" height="2.158" transform="translate(7.824 23.354)" fill="#fff"/>
    </g>
  </g>
</svg>
