<svg xmlns="http://www.w3.org/2000/svg" width="85" height="94.871" viewBox="0 0 85 94.871">
  <g id="Grupo_155313" data-name="Grupo 155313" transform="translate(-180 -845)">
    <rect id="Rectángulo_45220" data-name="Rectángulo 45220" width="70.688" height="51.474" transform="translate(231.474 845) rotate(90)" fill="#e4e4e4"/>
    <rect id="Rectángulo_45221" data-name="Rectángulo 45221" width="3.279" height="3.279" transform="translate(261.721 863.223) rotate(-90)" fill="#1894f6"/>
    <rect id="Rectángulo_46298" data-name="Rectángulo 46298" width="3.279" height="3.279" transform="translate(261.721 918.967) rotate(-90)" fill="#1894f6"/>
    <rect id="Rectángulo_45222" data-name="Rectángulo 45222" width="3.279" height="3.279" transform="translate(261.721 870.191) rotate(-90)" fill="#1894f6"/>
    <rect id="Rectángulo_46284" data-name="Rectángulo 46284" width="3.279" height="3.279" transform="translate(261.721 925.936) rotate(-90)" fill="#1894f6"/>
    <rect id="Rectángulo_45223" data-name="Rectángulo 45223" width="3.279" height="3.279" transform="translate(261.721 877.158) rotate(-90)" fill="#1894f6"/>
    <rect id="Rectángulo_46272" data-name="Rectángulo 46272" width="3.279" height="3.279" transform="translate(261.721 932.902) rotate(-90)" fill="#1894f6"/>
    <rect id="Rectángulo_45224" data-name="Rectángulo 45224" width="3.279" height="3.279" transform="translate(261.721 884.127) rotate(-90)" fill="#1894f6"/>
    <rect id="Rectángulo_46258" data-name="Rectángulo 46258" width="3.279" height="3.279" transform="translate(261.721 939.871) rotate(-90)" fill="#1894f6"/>
    <rect id="Rectángulo_45225" data-name="Rectángulo 45225" width="3.279" height="3.279" transform="translate(261.721 891.096) rotate(-90)" fill="#1894f6"/>
    <rect id="Rectángulo_45226" data-name="Rectángulo 45226" width="3.279" height="3.279" transform="translate(261.721 898.063) rotate(-90)" fill="#1894f6"/>
    <rect id="Rectángulo_45227" data-name="Rectángulo 45227" width="3.279" height="3.279" transform="translate(261.721 905.031) rotate(-90)" fill="#1894f6"/>
    <rect id="Rectángulo_45228" data-name="Rectángulo 45228" width="3.279" height="3.279" transform="translate(261.721 912) rotate(-90)" fill="#1894f6"/>
    <rect id="Rectángulo_45232" data-name="Rectángulo 45232" width="3.279" height="3.279" transform="translate(254.753 863.223) rotate(-90)" fill="#1894f6"/>
    <rect id="Rectángulo_46299" data-name="Rectángulo 46299" width="3.279" height="3.279" transform="translate(254.753 918.967) rotate(-90)" fill="#1894f6"/>
    <rect id="Rectángulo_45233" data-name="Rectángulo 45233" width="3.279" height="3.279" transform="translate(254.753 870.191) rotate(-90)" fill="#1894f6"/>
    <rect id="Rectángulo_46285" data-name="Rectángulo 46285" width="3.279" height="3.279" transform="translate(254.753 925.936) rotate(-90)" fill="#1894f6"/>
    <rect id="Rectángulo_45234" data-name="Rectángulo 45234" width="3.279" height="3.279" transform="translate(254.753 877.158) rotate(-90)" fill="#1894f6"/>
    <rect id="Rectángulo_46273" data-name="Rectángulo 46273" width="3.279" height="3.279" transform="translate(254.753 932.902) rotate(-90)" fill="#1894f6"/>
    <rect id="Rectángulo_45235" data-name="Rectángulo 45235" width="3.279" height="3.279" transform="translate(254.753 884.127) rotate(-90)" fill="#1894f6"/>
    <rect id="Rectángulo_46259" data-name="Rectángulo 46259" width="3.279" height="3.279" transform="translate(254.753 939.871) rotate(-90)" fill="#1894f6"/>
    <rect id="Rectángulo_45236" data-name="Rectángulo 45236" width="3.279" height="3.279" transform="translate(254.753 891.096) rotate(-90)" fill="#1894f6"/>
    <rect id="Rectángulo_45237" data-name="Rectángulo 45237" width="3.279" height="3.279" transform="translate(254.753 898.063) rotate(-90)" fill="#1894f6"/>
    <rect id="Rectángulo_45238" data-name="Rectángulo 45238" width="3.279" height="3.279" transform="translate(254.753 905.031) rotate(-90)" fill="#1894f6"/>
    <rect id="Rectángulo_45239" data-name="Rectángulo 45239" width="3.279" height="3.279" transform="translate(254.753 912) rotate(-90)" fill="#1894f6"/>
    <rect id="Rectángulo_45243" data-name="Rectángulo 45243" width="3.279" height="3.279" transform="translate(247.785 863.223) rotate(-90)" fill="#1894f6"/>
    <rect id="Rectángulo_46300" data-name="Rectángulo 46300" width="3.279" height="3.279" transform="translate(247.785 918.967) rotate(-90)" fill="#1894f6"/>
    <rect id="Rectángulo_45244" data-name="Rectángulo 45244" width="3.279" height="3.279" transform="translate(247.785 870.191) rotate(-90)" fill="#1894f6"/>
    <rect id="Rectángulo_46286" data-name="Rectángulo 46286" width="3.279" height="3.279" transform="translate(247.785 925.936) rotate(-90)" fill="#1894f6"/>
    <rect id="Rectángulo_45245" data-name="Rectángulo 45245" width="3.279" height="3.279" transform="translate(247.785 877.158) rotate(-90)" fill="#1894f6"/>
    <rect id="Rectángulo_46274" data-name="Rectángulo 46274" width="3.279" height="3.279" transform="translate(247.785 932.902) rotate(-90)" fill="#1894f6"/>
    <rect id="Rectángulo_45246" data-name="Rectángulo 45246" width="3.279" height="3.279" transform="translate(247.785 884.127) rotate(-90)" fill="#1894f6"/>
    <rect id="Rectángulo_46260" data-name="Rectángulo 46260" width="3.279" height="3.279" transform="translate(247.785 939.871) rotate(-90)" fill="#1894f6"/>
    <rect id="Rectángulo_45247" data-name="Rectángulo 45247" width="3.279" height="3.279" transform="translate(247.785 891.096) rotate(-90)" fill="#1894f6"/>
    <rect id="Rectángulo_45248" data-name="Rectángulo 45248" width="3.279" height="3.279" transform="translate(247.785 898.063) rotate(-90)" fill="#1894f6"/>
    <rect id="Rectángulo_45249" data-name="Rectángulo 45249" width="3.279" height="3.279" transform="translate(247.785 905.031) rotate(-90)" fill="#1894f6"/>
    <rect id="Rectángulo_45250" data-name="Rectángulo 45250" width="3.279" height="3.279" transform="translate(247.785 912) rotate(-90)" fill="#1894f6"/>
    <rect id="Rectángulo_45221-2" data-name="Rectángulo 45221" width="3.279" height="3.279" transform="translate(241.399 863.223) rotate(-90)" fill="#1894f6"/>
    <rect id="Rectángulo_46301" data-name="Rectángulo 46301" width="3.279" height="3.279" transform="translate(241.399 918.967) rotate(-90)" fill="#1894f6"/>
    <rect id="Rectángulo_45222-2" data-name="Rectángulo 45222" width="3.279" height="3.279" transform="translate(241.399 870.191) rotate(-90)" fill="#1894f6"/>
    <rect id="Rectángulo_46287" data-name="Rectángulo 46287" width="3.279" height="3.279" transform="translate(241.399 925.936) rotate(-90)" fill="#1894f6"/>
    <rect id="Rectángulo_45223-2" data-name="Rectángulo 45223" width="3.279" height="3.279" transform="translate(241.399 877.159) rotate(-90)" fill="#1894f6"/>
    <rect id="Rectángulo_46275" data-name="Rectángulo 46275" width="3.279" height="3.279" transform="translate(241.399 932.903) rotate(-90)" fill="#1894f6"/>
    <rect id="Rectángulo_45224-2" data-name="Rectángulo 45224" width="3.279" height="3.279" transform="translate(241.399 884.127) rotate(-90)" fill="#1894f6"/>
    <rect id="Rectángulo_46261" data-name="Rectángulo 46261" width="3.279" height="3.279" transform="translate(241.399 939.871) rotate(-90)" fill="#1894f6"/>
    <rect id="Rectángulo_45225-2" data-name="Rectángulo 45225" width="3.279" height="3.279" transform="translate(241.399 891.096) rotate(-90)" fill="#1894f6"/>
    <rect id="Rectángulo_45226-2" data-name="Rectángulo 45226" width="3.279" height="3.279" transform="translate(241.399 898.063) rotate(-90)" fill="#1894f6"/>
    <rect id="Rectángulo_45227-2" data-name="Rectángulo 45227" width="3.279" height="3.279" transform="translate(241.399 905.031) rotate(-90)" fill="#1894f6"/>
    <rect id="Rectángulo_45228-2" data-name="Rectángulo 45228" width="3.279" height="3.279" transform="translate(241.399 912) rotate(-90)" fill="#1894f6"/>
    <rect id="Rectángulo_45232-2" data-name="Rectángulo 45232" width="3.279" height="3.279" transform="translate(234.431 863.223) rotate(-90)" fill="#1894f6"/>
    <rect id="Rectángulo_46302" data-name="Rectángulo 46302" width="3.279" height="3.279" transform="translate(234.431 918.967) rotate(-90)" fill="#1894f6"/>
    <rect id="Rectángulo_45279" data-name="Rectángulo 45279" width="3.279" height="3.279" transform="translate(220.495 863.223) rotate(-90)" fill="#1894f6"/>
    <rect id="Rectángulo_46303" data-name="Rectángulo 46303" width="3.279" height="3.279" transform="translate(220.495 918.967) rotate(-90)" fill="#1894f6"/>
    <rect id="Rectángulo_45233-2" data-name="Rectángulo 45233" width="3.279" height="3.279" transform="translate(234.431 870.191) rotate(-90)" fill="#1894f6"/>
    <rect id="Rectángulo_46288" data-name="Rectángulo 46288" width="3.279" height="3.279" transform="translate(234.431 925.936) rotate(-90)" fill="#1894f6"/>
    <rect id="Rectángulo_45280" data-name="Rectángulo 45280" width="3.279" height="3.279" transform="translate(220.495 870.191) rotate(-90)" fill="#1894f6"/>
    <rect id="Rectángulo_46289" data-name="Rectángulo 46289" width="3.279" height="3.279" transform="translate(220.495 925.936) rotate(-90)" fill="#1894f6"/>
    <rect id="Rectángulo_45234-2" data-name="Rectángulo 45234" width="3.279" height="3.279" transform="translate(234.431 877.159) rotate(-90)" fill="#1894f6"/>
    <rect id="Rectángulo_46276" data-name="Rectángulo 46276" width="3.279" height="3.279" transform="translate(234.431 932.903) rotate(-90)" fill="#1894f6"/>
    <rect id="Rectángulo_45281" data-name="Rectángulo 45281" width="3.279" height="3.279" transform="translate(220.495 877.159) rotate(-90)" fill="#1894f6"/>
    <rect id="Rectángulo_46277" data-name="Rectángulo 46277" width="3.279" height="3.279" transform="translate(220.495 932.903) rotate(-90)" fill="#1894f6"/>
    <rect id="Rectángulo_45235-2" data-name="Rectángulo 45235" width="3.279" height="3.279" transform="translate(234.431 884.127) rotate(-90)" fill="#1894f6"/>
    <rect id="Rectángulo_46262" data-name="Rectángulo 46262" width="3.279" height="3.279" transform="translate(234.431 939.871) rotate(-90)" fill="#1894f6"/>
    <rect id="Rectángulo_45282" data-name="Rectángulo 45282" width="3.279" height="3.279" transform="translate(220.495 884.127) rotate(-90)" fill="#1894f6"/>
    <rect id="Rectángulo_46278" data-name="Rectángulo 46278" width="3.279" height="3.279" transform="translate(220.495 939.871) rotate(-90)" fill="#1894f6"/>
    <rect id="Rectángulo_45236-2" data-name="Rectángulo 45236" width="3.279" height="3.279" transform="translate(234.431 891.096) rotate(-90)" fill="#1894f6"/>
    <rect id="Rectángulo_45283" data-name="Rectángulo 45283" width="3.279" height="3.279" transform="translate(220.495 891.096) rotate(-90)" fill="#1894f6"/>
    <rect id="Rectángulo_45237-2" data-name="Rectángulo 45237" width="3.279" height="3.279" transform="translate(234.431 898.063) rotate(-90)" fill="#1894f6"/>
    <rect id="Rectángulo_45284" data-name="Rectángulo 45284" width="3.279" height="3.279" transform="translate(220.495 898.063) rotate(-90)" fill="#1894f6"/>
    <rect id="Rectángulo_45238-2" data-name="Rectángulo 45238" width="3.279" height="3.279" transform="translate(234.431 905.031) rotate(-90)" fill="#1894f6"/>
    <rect id="Rectángulo_45285" data-name="Rectángulo 45285" width="3.279" height="3.279" transform="translate(220.495 905.031) rotate(-90)" fill="#1894f6"/>
    <rect id="Rectángulo_45239-2" data-name="Rectángulo 45239" width="3.279" height="3.279" transform="translate(234.431 912) rotate(-90)" fill="#1894f6"/>
    <rect id="Rectángulo_45286" data-name="Rectángulo 45286" width="3.279" height="3.279" transform="translate(220.495 912) rotate(-90)" fill="#1894f6"/>
    <rect id="Rectángulo_45243-2" data-name="Rectángulo 45243" width="3.279" height="3.279" transform="translate(227.463 863.223) rotate(-90)" fill="#1894f6"/>
    <rect id="Rectángulo_46304" data-name="Rectángulo 46304" width="3.279" height="3.279" transform="translate(227.463 918.967) rotate(-90)" fill="#1894f6"/>
    <rect id="Rectángulo_45268" data-name="Rectángulo 45268" width="3.279" height="3.279" transform="translate(213.527 863.223) rotate(-90)" fill="#1894f6"/>
    <rect id="Rectángulo_46305" data-name="Rectángulo 46305" width="3.279" height="3.279" transform="translate(213.527 918.967) rotate(-90)" fill="#1894f6"/>
    <rect id="Rectángulo_45244-2" data-name="Rectángulo 45244" width="3.279" height="3.279" transform="translate(227.463 870.191) rotate(-90)" fill="#1894f6"/>
    <rect id="Rectángulo_46290" data-name="Rectángulo 46290" width="3.279" height="3.279" transform="translate(227.463 925.936) rotate(-90)" fill="#1894f6"/>
    <rect id="Rectángulo_45269" data-name="Rectángulo 45269" width="3.279" height="3.279" transform="translate(213.527 870.191) rotate(-90)" fill="#1894f6"/>
    <rect id="Rectángulo_46291" data-name="Rectángulo 46291" width="3.279" height="3.279" transform="translate(213.527 925.936) rotate(-90)" fill="#1894f6"/>
    <rect id="Rectángulo_45245-2" data-name="Rectángulo 45245" width="3.279" height="3.279" transform="translate(227.463 877.159) rotate(-90)" fill="#1894f6"/>
    <rect id="Rectángulo_46283" data-name="Rectángulo 46283" width="3.279" height="3.279" transform="translate(227.463 932.903) rotate(-90)" fill="#1894f6"/>
    <rect id="Rectángulo_45270" data-name="Rectángulo 45270" width="3.279" height="3.279" transform="translate(213.527 877.159) rotate(-90)" fill="#1894f6"/>
    <rect id="Rectángulo_46292" data-name="Rectángulo 46292" width="3.279" height="3.279" transform="translate(213.527 932.903) rotate(-90)" fill="#1894f6"/>
    <rect id="Rectángulo_45246-2" data-name="Rectángulo 45246" width="3.279" height="3.279" transform="translate(227.463 884.127) rotate(-90)" fill="#1894f6"/>
    <rect id="Rectángulo_46267" data-name="Rectángulo 46267" width="3.279" height="3.279" transform="translate(227.463 939.871) rotate(-90)" fill="#1894f6"/>
    <rect id="Rectángulo_45271" data-name="Rectángulo 45271" width="3.279" height="3.279" transform="translate(213.527 884.127) rotate(-90)" fill="#1894f6"/>
    <rect id="Rectángulo_46293" data-name="Rectángulo 46293" width="3.279" height="3.279" transform="translate(213.527 939.871) rotate(-90)" fill="#1894f6"/>
    <rect id="Rectángulo_45247-2" data-name="Rectángulo 45247" width="3.279" height="3.279" transform="translate(227.463 891.096) rotate(-90)" fill="#1894f6"/>
    <rect id="Rectángulo_45272" data-name="Rectángulo 45272" width="3.279" height="3.279" transform="translate(213.527 891.096) rotate(-90)" fill="#1894f6"/>
    <rect id="Rectángulo_45248-2" data-name="Rectángulo 45248" width="3.279" height="3.279" transform="translate(227.463 898.063) rotate(-90)" fill="#1894f6"/>
    <rect id="Rectángulo_45273" data-name="Rectángulo 45273" width="3.279" height="3.279" transform="translate(213.527 898.063) rotate(-90)" fill="#1894f6"/>
    <rect id="Rectángulo_45249-2" data-name="Rectángulo 45249" width="3.279" height="3.279" transform="translate(227.463 905.031) rotate(-90)" fill="#1894f6"/>
    <rect id="Rectángulo_45274" data-name="Rectángulo 45274" width="3.279" height="3.279" transform="translate(213.527 905.031) rotate(-90)" fill="#1894f6"/>
    <rect id="Rectángulo_45250-2" data-name="Rectángulo 45250" width="3.279" height="3.279" transform="translate(227.463 912) rotate(-90)" fill="#1894f6"/>
    <rect id="Rectángulo_45275" data-name="Rectángulo 45275" width="3.279" height="3.279" transform="translate(213.527 912) rotate(-90)" fill="#1894f6"/>
  </g>
</svg>
