<svg xmlns="http://www.w3.org/2000/svg" width="85" height="115.775" viewBox="0 0 85 115.775">
  <g id="Grupo_155812" data-name="Grupo 155812" transform="translate(-180 -4191.72)">
    <rect id="Rectángulo_45220" data-name="Rectángulo 45220" width="80.936" height="51.474" transform="translate(231.474 4191.72) rotate(90)" fill="#e4e4e4"/>
    <rect id="Rectángulo_45221" data-name="Rectángulo 45221" width="3.279" height="3.279" transform="translate(261.721 4209.943) rotate(-90)" fill="#1894f6"/>
    <rect id="Rectángulo_46298" data-name="Rectángulo 46298" width="3.279" height="3.279" transform="translate(261.721 4265.687) rotate(-90)" fill="#1894f6"/>
    <rect id="Rectángulo_45222" data-name="Rectángulo 45222" width="3.279" height="3.279" transform="translate(261.721 4216.912) rotate(-90)" fill="#1894f6"/>
    <rect id="Rectángulo_46284" data-name="Rectángulo 46284" width="3.279" height="3.279" transform="translate(261.721 4272.656) rotate(-90)" fill="#1894f6"/>
    <rect id="Rectángulo_45223" data-name="Rectángulo 45223" width="3.279" height="3.279" transform="translate(261.721 4223.878) rotate(-90)" fill="#1894f6"/>
    <rect id="Rectángulo_46272" data-name="Rectángulo 46272" width="3.279" height="3.279" transform="translate(261.721 4279.623) rotate(-90)" fill="#1894f6"/>
    <rect id="Rectángulo_45224" data-name="Rectángulo 45224" width="3.279" height="3.279" transform="translate(261.721 4230.847) rotate(-90)" fill="#1894f6"/>
    <rect id="Rectángulo_46258" data-name="Rectángulo 46258" width="3.279" height="3.279" transform="translate(261.721 4286.591) rotate(-90)" fill="#1894f6"/>
    <rect id="Rectángulo_45225" data-name="Rectángulo 45225" width="3.279" height="3.279" transform="translate(261.721 4237.816) rotate(-90)" fill="#1894f6"/>
    <rect id="Rectángulo_46244" data-name="Rectángulo 46244" width="3.279" height="3.279" transform="translate(261.721 4293.56) rotate(-90)" fill="#1894f6"/>
    <rect id="Rectángulo_45226" data-name="Rectángulo 45226" width="3.279" height="3.279" transform="translate(261.721 4244.783) rotate(-90)" fill="#1894f6"/>
    <rect id="Rectángulo_46245" data-name="Rectángulo 46245" width="3.279" height="3.279" transform="translate(261.721 4300.527) rotate(-90)" fill="#1894f6"/>
    <rect id="Rectángulo_45227" data-name="Rectángulo 45227" width="3.279" height="3.279" transform="translate(261.721 4251.751) rotate(-90)" fill="#1894f6"/>
    <rect id="Rectángulo_46246" data-name="Rectángulo 46246" width="3.279" height="3.279" transform="translate(261.721 4307.496) rotate(-90)" fill="#1894f6"/>
    <rect id="Rectángulo_45228" data-name="Rectángulo 45228" width="3.279" height="3.279" transform="translate(261.721 4258.72) rotate(-90)" fill="#1894f6"/>
    <rect id="Rectángulo_45232" data-name="Rectángulo 45232" width="3.279" height="3.279" transform="translate(254.753 4209.943) rotate(-90)" fill="#1894f6"/>
    <rect id="Rectángulo_46299" data-name="Rectángulo 46299" width="3.279" height="3.279" transform="translate(254.753 4265.687) rotate(-90)" fill="#1894f6"/>
    <rect id="Rectángulo_45233" data-name="Rectángulo 45233" width="3.279" height="3.279" transform="translate(254.753 4216.912) rotate(-90)" fill="#1894f6"/>
    <rect id="Rectángulo_46285" data-name="Rectángulo 46285" width="3.279" height="3.279" transform="translate(254.753 4272.656) rotate(-90)" fill="#1894f6"/>
    <rect id="Rectángulo_45234" data-name="Rectángulo 45234" width="3.279" height="3.279" transform="translate(254.753 4223.878) rotate(-90)" fill="#1894f6"/>
    <rect id="Rectángulo_46273" data-name="Rectángulo 46273" width="3.279" height="3.279" transform="translate(254.753 4279.623) rotate(-90)" fill="#1894f6"/>
    <rect id="Rectángulo_45235" data-name="Rectángulo 45235" width="3.279" height="3.279" transform="translate(254.753 4230.847) rotate(-90)" fill="#1894f6"/>
    <rect id="Rectángulo_46259" data-name="Rectángulo 46259" width="3.279" height="3.279" transform="translate(254.753 4286.591) rotate(-90)" fill="#1894f6"/>
    <rect id="Rectángulo_45236" data-name="Rectángulo 45236" width="3.279" height="3.279" transform="translate(254.753 4237.816) rotate(-90)" fill="#1894f6"/>
    <rect id="Rectángulo_46247" data-name="Rectángulo 46247" width="3.279" height="3.279" transform="translate(254.753 4293.56) rotate(-90)" fill="#1894f6"/>
    <rect id="Rectángulo_45237" data-name="Rectángulo 45237" width="3.279" height="3.279" transform="translate(254.753 4244.783) rotate(-90)" fill="#1894f6"/>
    <rect id="Rectángulo_46248" data-name="Rectángulo 46248" width="3.279" height="3.279" transform="translate(254.753 4300.527) rotate(-90)" fill="#1894f6"/>
    <rect id="Rectángulo_45238" data-name="Rectángulo 45238" width="3.279" height="3.279" transform="translate(254.753 4251.751) rotate(-90)" fill="#1894f6"/>
    <rect id="Rectángulo_46249" data-name="Rectángulo 46249" width="3.279" height="3.279" transform="translate(254.753 4307.496) rotate(-90)" fill="#1894f6"/>
    <rect id="Rectángulo_45239" data-name="Rectángulo 45239" width="3.279" height="3.279" transform="translate(254.753 4258.72) rotate(-90)" fill="#1894f6"/>
    <rect id="Rectángulo_45243" data-name="Rectángulo 45243" width="3.279" height="3.279" transform="translate(247.785 4209.943) rotate(-90)" fill="#1894f6"/>
    <rect id="Rectángulo_46300" data-name="Rectángulo 46300" width="3.279" height="3.279" transform="translate(247.785 4265.687) rotate(-90)" fill="#1894f6"/>
    <rect id="Rectángulo_45244" data-name="Rectángulo 45244" width="3.279" height="3.279" transform="translate(247.785 4216.912) rotate(-90)" fill="#1894f6"/>
    <rect id="Rectángulo_46286" data-name="Rectángulo 46286" width="3.279" height="3.279" transform="translate(247.785 4272.656) rotate(-90)" fill="#1894f6"/>
    <rect id="Rectángulo_45245" data-name="Rectángulo 45245" width="3.279" height="3.279" transform="translate(247.785 4223.878) rotate(-90)" fill="#1894f6"/>
    <rect id="Rectángulo_46274" data-name="Rectángulo 46274" width="3.279" height="3.279" transform="translate(247.785 4279.623) rotate(-90)" fill="#1894f6"/>
    <rect id="Rectángulo_45246" data-name="Rectángulo 45246" width="3.279" height="3.279" transform="translate(247.785 4230.847) rotate(-90)" fill="#1894f6"/>
    <rect id="Rectángulo_46260" data-name="Rectángulo 46260" width="3.279" height="3.279" transform="translate(247.785 4286.591) rotate(-90)" fill="#1894f6"/>
    <rect id="Rectángulo_45247" data-name="Rectángulo 45247" width="3.279" height="3.279" transform="translate(247.785 4237.816) rotate(-90)" fill="#1894f6"/>
    <rect id="Rectángulo_46250" data-name="Rectángulo 46250" width="3.279" height="3.279" transform="translate(247.785 4293.56) rotate(-90)" fill="#1894f6"/>
    <rect id="Rectángulo_45248" data-name="Rectángulo 45248" width="3.279" height="3.279" transform="translate(247.785 4244.783) rotate(-90)" fill="#1894f6"/>
    <rect id="Rectángulo_46251" data-name="Rectángulo 46251" width="3.279" height="3.279" transform="translate(247.785 4300.527) rotate(-90)" fill="#1894f6"/>
    <rect id="Rectángulo_45249" data-name="Rectángulo 45249" width="3.279" height="3.279" transform="translate(247.785 4251.751) rotate(-90)" fill="#1894f6"/>
    <rect id="Rectángulo_46252" data-name="Rectángulo 46252" width="3.279" height="3.279" transform="translate(247.785 4307.496) rotate(-90)" fill="#1894f6"/>
    <rect id="Rectángulo_45250" data-name="Rectángulo 45250" width="3.279" height="3.279" transform="translate(247.785 4258.72) rotate(-90)" fill="#1894f6"/>
    <rect id="Rectángulo_45221-2" data-name="Rectángulo 45221" width="3.279" height="3.279" transform="translate(241.399 4209.943) rotate(-90)" fill="#1894f6"/>
    <rect id="Rectángulo_46301" data-name="Rectángulo 46301" width="3.279" height="3.279" transform="translate(241.399 4265.687) rotate(-90)" fill="#1894f6"/>
    <rect id="Rectángulo_45222-2" data-name="Rectángulo 45222" width="3.279" height="3.279" transform="translate(241.399 4216.912) rotate(-90)" fill="#1894f6"/>
    <rect id="Rectángulo_46287" data-name="Rectángulo 46287" width="3.279" height="3.279" transform="translate(241.399 4272.656) rotate(-90)" fill="#1894f6"/>
    <rect id="Rectángulo_45223-2" data-name="Rectángulo 45223" width="3.279" height="3.279" transform="translate(241.399 4223.879) rotate(-90)" fill="#1894f6"/>
    <rect id="Rectángulo_46275" data-name="Rectángulo 46275" width="3.279" height="3.279" transform="translate(241.399 4279.624) rotate(-90)" fill="#1894f6"/>
    <rect id="Rectángulo_45224-2" data-name="Rectángulo 45224" width="3.279" height="3.279" transform="translate(241.399 4230.847) rotate(-90)" fill="#1894f6"/>
    <rect id="Rectángulo_46261" data-name="Rectángulo 46261" width="3.279" height="3.279" transform="translate(241.399 4286.591) rotate(-90)" fill="#1894f6"/>
    <rect id="Rectángulo_45225-2" data-name="Rectángulo 45225" width="3.279" height="3.279" transform="translate(241.399 4237.816) rotate(-90)" fill="#1894f6"/>
    <rect id="Rectángulo_46254" data-name="Rectángulo 46254" width="3.279" height="3.279" transform="translate(241.399 4293.56) rotate(-90)" fill="#1894f6"/>
    <rect id="Rectángulo_45226-2" data-name="Rectángulo 45226" width="3.279" height="3.279" transform="translate(241.399 4244.783) rotate(-90)" fill="#1894f6"/>
    <rect id="Rectángulo_46255" data-name="Rectángulo 46255" width="3.279" height="3.279" transform="translate(241.399 4300.527) rotate(-90)" fill="#1894f6"/>
    <rect id="Rectángulo_45227-2" data-name="Rectángulo 45227" width="3.279" height="3.279" transform="translate(241.399 4251.751) rotate(-90)" fill="#1894f6"/>
    <rect id="Rectángulo_46256" data-name="Rectángulo 46256" width="3.279" height="3.279" transform="translate(241.399 4307.496) rotate(-90)" fill="#1894f6"/>
    <rect id="Rectángulo_45228-2" data-name="Rectángulo 45228" width="3.279" height="3.279" transform="translate(241.399 4258.72) rotate(-90)" fill="#1894f6"/>
    <rect id="Rectángulo_45232-2" data-name="Rectángulo 45232" width="3.279" height="3.279" transform="translate(234.431 4209.943) rotate(-90)" fill="#1894f6"/>
    <rect id="Rectángulo_46302" data-name="Rectángulo 46302" width="3.279" height="3.279" transform="translate(234.431 4265.687) rotate(-90)" fill="#1894f6"/>
    <rect id="Rectángulo_45279" data-name="Rectángulo 45279" width="3.279" height="3.279" transform="translate(220.495 4209.943) rotate(-90)" fill="#1894f6"/>
    <rect id="Rectángulo_46303" data-name="Rectángulo 46303" width="3.279" height="3.279" transform="translate(220.495 4265.687) rotate(-90)" fill="#1894f6"/>
    <rect id="Rectángulo_45233-2" data-name="Rectángulo 45233" width="3.279" height="3.279" transform="translate(234.431 4216.912) rotate(-90)" fill="#1894f6"/>
    <rect id="Rectángulo_46288" data-name="Rectángulo 46288" width="3.279" height="3.279" transform="translate(234.431 4272.656) rotate(-90)" fill="#1894f6"/>
    <rect id="Rectángulo_45280" data-name="Rectángulo 45280" width="3.279" height="3.279" transform="translate(220.495 4216.912) rotate(-90)" fill="#1894f6"/>
    <rect id="Rectángulo_46289" data-name="Rectángulo 46289" width="3.279" height="3.279" transform="translate(220.495 4272.656) rotate(-90)" fill="#1894f6"/>
    <rect id="Rectángulo_45234-2" data-name="Rectángulo 45234" width="3.279" height="3.279" transform="translate(234.431 4223.879) rotate(-90)" fill="#1894f6"/>
    <rect id="Rectángulo_46276" data-name="Rectángulo 46276" width="3.279" height="3.279" transform="translate(234.431 4279.624) rotate(-90)" fill="#1894f6"/>
    <rect id="Rectángulo_45281" data-name="Rectángulo 45281" width="3.279" height="3.279" transform="translate(220.495 4223.879) rotate(-90)" fill="#1894f6"/>
    <rect id="Rectángulo_46277" data-name="Rectángulo 46277" width="3.279" height="3.279" transform="translate(220.495 4279.624) rotate(-90)" fill="#1894f6"/>
    <rect id="Rectángulo_45235-2" data-name="Rectángulo 45235" width="3.279" height="3.279" transform="translate(234.431 4230.847) rotate(-90)" fill="#1894f6"/>
    <rect id="Rectángulo_46262" data-name="Rectángulo 46262" width="3.279" height="3.279" transform="translate(234.431 4286.591) rotate(-90)" fill="#1894f6"/>
    <rect id="Rectángulo_45282" data-name="Rectángulo 45282" width="3.279" height="3.279" transform="translate(220.495 4230.847) rotate(-90)" fill="#1894f6"/>
    <rect id="Rectángulo_46278" data-name="Rectángulo 46278" width="3.279" height="3.279" transform="translate(220.495 4286.591) rotate(-90)" fill="#1894f6"/>
    <rect id="Rectángulo_45236-2" data-name="Rectángulo 45236" width="3.279" height="3.279" transform="translate(234.431 4237.816) rotate(-90)" fill="#1894f6"/>
    <rect id="Rectángulo_46263" data-name="Rectángulo 46263" width="3.279" height="3.279" transform="translate(234.431 4293.56) rotate(-90)" fill="#1894f6"/>
    <rect id="Rectángulo_45283" data-name="Rectángulo 45283" width="3.279" height="3.279" transform="translate(220.495 4237.816) rotate(-90)" fill="#1894f6"/>
    <rect id="Rectángulo_46279" data-name="Rectángulo 46279" width="3.279" height="3.279" transform="translate(220.495 4293.56) rotate(-90)" fill="#1894f6"/>
    <rect id="Rectángulo_45237-2" data-name="Rectángulo 45237" width="3.279" height="3.279" transform="translate(234.431 4244.783) rotate(-90)" fill="#1894f6"/>
    <rect id="Rectángulo_46264" data-name="Rectángulo 46264" width="3.279" height="3.279" transform="translate(234.431 4300.527) rotate(-90)" fill="#1894f6"/>
    <rect id="Rectángulo_45284" data-name="Rectángulo 45284" width="3.279" height="3.279" transform="translate(220.495 4244.783) rotate(-90)" fill="#1894f6"/>
    <rect id="Rectángulo_46280" data-name="Rectángulo 46280" width="3.279" height="3.279" transform="translate(220.495 4300.527) rotate(-90)" fill="#1894f6"/>
    <rect id="Rectángulo_45238-2" data-name="Rectángulo 45238" width="3.279" height="3.279" transform="translate(234.431 4251.751) rotate(-90)" fill="#1894f6"/>
    <rect id="Rectángulo_46265" data-name="Rectángulo 46265" width="3.279" height="3.279" transform="translate(234.431 4307.496) rotate(-90)" fill="#1894f6"/>
    <rect id="Rectángulo_45285" data-name="Rectángulo 45285" width="3.279" height="3.279" transform="translate(220.495 4251.751) rotate(-90)" fill="#1894f6"/>
    <rect id="Rectángulo_46281" data-name="Rectángulo 46281" width="3.279" height="3.279" transform="translate(220.495 4307.496) rotate(-90)" fill="#1894f6"/>
    <rect id="Rectángulo_45239-2" data-name="Rectángulo 45239" width="3.279" height="3.279" transform="translate(234.431 4258.72) rotate(-90)" fill="#1894f6"/>
    <rect id="Rectángulo_45286" data-name="Rectángulo 45286" width="3.279" height="3.279" transform="translate(220.495 4258.72) rotate(-90)" fill="#1894f6"/>
    <rect id="Rectángulo_45243-2" data-name="Rectángulo 45243" width="3.279" height="3.279" transform="translate(227.463 4209.943) rotate(-90)" fill="#1894f6"/>
    <rect id="Rectángulo_46304" data-name="Rectángulo 46304" width="3.279" height="3.279" transform="translate(227.463 4265.687) rotate(-90)" fill="#1894f6"/>
    <rect id="Rectángulo_45268" data-name="Rectángulo 45268" width="3.279" height="3.279" transform="translate(213.527 4209.943) rotate(-90)" fill="#1894f6"/>
    <rect id="Rectángulo_46305" data-name="Rectángulo 46305" width="3.279" height="3.279" transform="translate(213.527 4265.687) rotate(-90)" fill="#1894f6"/>
    <rect id="Rectángulo_45244-2" data-name="Rectángulo 45244" width="3.279" height="3.279" transform="translate(227.463 4216.912) rotate(-90)" fill="#1894f6"/>
    <rect id="Rectángulo_46290" data-name="Rectángulo 46290" width="3.279" height="3.279" transform="translate(227.463 4272.656) rotate(-90)" fill="#1894f6"/>
    <rect id="Rectángulo_45269" data-name="Rectángulo 45269" width="3.279" height="3.279" transform="translate(213.527 4216.912) rotate(-90)" fill="#1894f6"/>
    <rect id="Rectángulo_46291" data-name="Rectángulo 46291" width="3.279" height="3.279" transform="translate(213.527 4272.656) rotate(-90)" fill="#1894f6"/>
    <rect id="Rectángulo_45245-2" data-name="Rectángulo 45245" width="3.279" height="3.279" transform="translate(227.463 4223.879) rotate(-90)" fill="#1894f6"/>
    <rect id="Rectángulo_46283" data-name="Rectángulo 46283" width="3.279" height="3.279" transform="translate(227.463 4279.624) rotate(-90)" fill="#1894f6"/>
    <rect id="Rectángulo_45270" data-name="Rectángulo 45270" width="3.279" height="3.279" transform="translate(213.527 4223.879) rotate(-90)" fill="#1894f6"/>
    <rect id="Rectángulo_46292" data-name="Rectángulo 46292" width="3.279" height="3.279" transform="translate(213.527 4279.624) rotate(-90)" fill="#1894f6"/>
    <rect id="Rectángulo_45246-2" data-name="Rectángulo 45246" width="3.279" height="3.279" transform="translate(227.463 4230.847) rotate(-90)" fill="#1894f6"/>
    <rect id="Rectángulo_46267" data-name="Rectángulo 46267" width="3.279" height="3.279" transform="translate(227.463 4286.591) rotate(-90)" fill="#1894f6"/>
    <rect id="Rectángulo_45271" data-name="Rectángulo 45271" width="3.279" height="3.279" transform="translate(213.527 4230.847) rotate(-90)" fill="#1894f6"/>
    <rect id="Rectángulo_46293" data-name="Rectángulo 46293" width="3.279" height="3.279" transform="translate(213.527 4286.591) rotate(-90)" fill="#1894f6"/>
    <rect id="Rectángulo_45247-2" data-name="Rectángulo 45247" width="3.279" height="3.279" transform="translate(227.463 4237.816) rotate(-90)" fill="#1894f6"/>
    <rect id="Rectángulo_46268" data-name="Rectángulo 46268" width="3.279" height="3.279" transform="translate(227.463 4293.56) rotate(-90)" fill="#1894f6"/>
    <rect id="Rectángulo_45272" data-name="Rectángulo 45272" width="3.279" height="3.279" transform="translate(213.527 4237.816) rotate(-90)" fill="#1894f6"/>
    <rect id="Rectángulo_46294" data-name="Rectángulo 46294" width="3.279" height="3.279" transform="translate(213.527 4293.56) rotate(-90)" fill="#1894f6"/>
    <rect id="Rectángulo_45248-2" data-name="Rectángulo 45248" width="3.279" height="3.279" transform="translate(227.463 4244.783) rotate(-90)" fill="#1894f6"/>
    <rect id="Rectángulo_46269" data-name="Rectángulo 46269" width="3.279" height="3.279" transform="translate(227.463 4300.527) rotate(-90)" fill="#1894f6"/>
    <rect id="Rectángulo_45273" data-name="Rectángulo 45273" width="3.279" height="3.279" transform="translate(213.527 4244.783) rotate(-90)" fill="#1894f6"/>
    <rect id="Rectángulo_46295" data-name="Rectángulo 46295" width="3.279" height="3.279" transform="translate(213.527 4300.527) rotate(-90)" fill="#1894f6"/>
    <rect id="Rectángulo_45249-2" data-name="Rectángulo 45249" width="3.279" height="3.279" transform="translate(227.463 4251.751) rotate(-90)" fill="#1894f6"/>
    <rect id="Rectángulo_46270" data-name="Rectángulo 46270" width="3.279" height="3.279" transform="translate(227.463 4307.496) rotate(-90)" fill="#1894f6"/>
    <rect id="Rectángulo_45274" data-name="Rectángulo 45274" width="3.279" height="3.279" transform="translate(213.527 4251.751) rotate(-90)" fill="#1894f6"/>
    <rect id="Rectángulo_46296" data-name="Rectángulo 46296" width="3.279" height="3.279" transform="translate(213.527 4307.496) rotate(-90)" fill="#1894f6"/>
    <rect id="Rectángulo_45250-2" data-name="Rectángulo 45250" width="3.279" height="3.279" transform="translate(227.463 4258.72) rotate(-90)" fill="#1894f6"/>
    <rect id="Rectángulo_45275" data-name="Rectángulo 45275" width="3.279" height="3.279" transform="translate(213.527 4258.72) rotate(-90)" fill="#1894f6"/>
  </g>
</svg>
