<svg xmlns="http://www.w3.org/2000/svg" xmlns:xlink="http://www.w3.org/1999/xlink" width="108" height="108" viewBox="0 0 108 108">
  <defs>
    <clipPath id="clip-path">
      <rect id="Rectángulo_46989" data-name="Rectángulo 46989" width="66.295" height="66.266" fill="#fff"/>
    </clipPath>
  </defs>
  <g id="Grupo_156300" data-name="Grupo 156300" transform="translate(-1166 -796)">
    <g id="Grupo_155234" data-name="Grupo 155234" transform="translate(411 -8103)">
      <circle id="Elipse_5739" data-name="Elipse 5739" cx="54" cy="54" r="54" transform="translate(755 8899)" fill="#baa1e1"/>
    </g>
    <g id="Grupo_155828" data-name="Grupo 155828" transform="translate(1187 817)">
      <g id="Grupo_155827" data-name="Grupo 155827" clip-path="url(#clip-path)">
        <path id="Trazado_197842" data-name="Trazado 197842" d="M64.027,86.325H66.2v2.16H30.918V91.5a3.335,3.335,0,0,1-3,3.636,3.3,3.3,0,0,1-.644,0H3.684A3.346,3.346,0,0,1,.019,91.443q0-12.413-.01-24.826A3.911,3.911,0,0,1,1.223,63.66Q4.781,60.148,8.3,56.591a3.837,3.837,0,0,1,2.895-1.2c5.217.02,10.438.092,15.654-.026a3.626,3.626,0,0,1,4.039,4.4h-2.14c-.01-.212-.029-.432-.032-.654-.011-1.164-.35-1.5-1.536-1.5H11.056v5.006a3.383,3.383,0,0,1-3.808,3.824q-2.414,0-4.827.011a.859.859,0,0,0-.193.076V91.306c0,1.314.308,1.62,1.622,1.62H27.09c1.313,0,1.622-.308,1.623-1.622V88.577c-.671-.1-1.218-.235-1.649.576a3.144,3.144,0,0,1-3.694,1.423,3.3,3.3,0,0,1,.1-6.368,3.216,3.216,0,0,1,3.66,1.525.958.958,0,0,0,1.008.576c2.365-.029,4.731-.013,7.2-.013V79.951c0-.992.386-1.375,1.377-1.378H41.96V74.2c0-2.182.071-2.253,2.229-2.254q2.1,0,4.207-.013c.04,0,.079-.033.187-.079V66.941c0-1.307.307-1.61,1.631-1.61H55.2v-.69c0-1.563-.009-3.126,0-4.689a1.1,1.1,0,0,1,1.236-1.238q3.168-.018,6.345,0c.881,0,1.242.44,1.242,1.44V86.325ZM57.456,60.959V86.285h4.321V60.959Zm-6.624,6.607v18.7h4.32v-18.7Zm-2.278,6.656H44.223V86.275h4.331ZM41.929,86.283V80.835H37.6v5.45ZM8.853,59.391,4.018,64.229c1.259,0,2.559.036,3.855-.016a.992.992,0,0,0,.975-1.01c0-.018,0-.035,0-.053.016-1.259,0-2.517,0-3.76ZM24.319,86.32A1.1,1.1,0,1,0,25.4,87.435v-.019a1.111,1.111,0,0,0-1.1-1.1Z" transform="translate(0 -28.882)" fill="#fff"/>
        <path id="Trazado_197843" data-name="Trazado 197843" d="M66.855,27.093l-4.368,4.378c-.73.731-1.455,1.472-2.2,2.193-2.132,2.072-1.129,1.643-4.11,1.687-1.152.017-2.3,0-3.521,0V55.175H50.443V35.362c-.772,0-1.5-.033-2.219.024-.164.013-.333.321-.451.521a3.312,3.312,0,1,1-4.087-4.726,3.251,3.251,0,0,1,4.09,1.463.814.814,0,0,0,.832.517c2.85-.023,5.7,0,8.551-.023a1.222,1.222,0,0,0,.788-.273c2.293-2.258,4.562-4.54,6.836-6.817a1.68,1.68,0,0,0,.144-.2,14.305,14.305,0,0,1-5.666-11.436,13.978,13.978,0,0,1,3.647-9.637,14.389,14.389,0,1,1,3.943,22.321ZM72.491,2.381c-4.377-.125-9.232,3.9-10.589,8.725A12.189,12.189,0,0,0,67.6,24.94a11.887,11.887,0,0,0,13.134-.864c-2.533-2.85-5.055-5.71-7.607-8.543a2.374,2.374,0,0,1-.651-1.728c.026-3.561.011-7.121.011-10.683Zm2.234,10.858H85.633A11.913,11.913,0,0,0,74.717,2.388Zm7.709,9.426c1.892-1.981,3.331-5.3,3.139-7.116H76.107ZM46,34.246a1.1,1.1,0,1,0-1.1,1.1h.014A1.111,1.111,0,0,0,46,34.251Z" transform="translate(-21.705 0)" fill="#fff"/>
        <path id="Trazado_197844" data-name="Trazado 197844" d="M24.857,20.774c1.681-1.44,3.328-2.833,4.942-4.265a.942.942,0,0,0,.125-.762,3.3,3.3,0,1,1,6.024.957,3.2,3.2,0,0,1-3.634,1.439,1.27,1.27,0,0,0-1.393.318c-1.686,1.492-3.416,2.933-5.111,4.415a2.159,2.159,0,0,0-.544.828,3.263,3.263,0,0,1-2.852,2.275,3.118,3.118,0,0,1-3.2-1.71.762.762,0,0,0-.785-.48q-1.861.037-3.722,0a.706.706,0,0,0-.734.446,3.191,3.191,0,0,1-3.853,1.609.755.755,0,0,0-.889.241c-.8.825-1.606,1.644-2.439,2.433a.915.915,0,0,0-.278,1.069,3.051,3.051,0,0,1-1.1,3.387,3.085,3.085,0,0,1-3.549.389A3.154,3.154,0,0,1,.041,30.287a3.262,3.262,0,0,1,4.145-3.038.916.916,0,0,0,1.066-.288c.809-.847,1.666-1.649,2.464-2.505A.937.937,0,0,0,7.9,23.7a3.327,3.327,0,0,1,6.128-2.522.935.935,0,0,0,.667.391c1.263.037,2.527.03,3.79,0a.827.827,0,0,0,.6-.274c1.5-2.355,3.736-2.582,5.773-.525m9.387-5.824a1.1,1.1,0,1,0-1.082,1.115h.017a1.106,1.106,0,0,0,1.066-1.116ZM9.975,22.639a1.1,1.1,0,1,0,1.15-1.045H11.11a1.11,1.11,0,0,0-1.133,1.044Zm12.147-1.045a1.1,1.1,0,1,0,1.086,1.111v-.017a1.107,1.107,0,0,0-1.086-1.09ZM3.343,29.318a1.1,1.1,0,1,0,1.1,1.093v-.017a1.106,1.106,0,0,0-1.1-1.077Z" transform="translate(-0.018 -6.094)" fill="#fff"/>
        <rect id="Rectángulo_46984" data-name="Rectángulo 46984" width="13.155" height="2.123" transform="translate(12.216 45.338)" fill="#fff"/>
        <rect id="Rectángulo_46985" data-name="Rectángulo 46985" width="10.945" height="2.121" transform="translate(5.568 50.844)" fill="#fff"/>
        <rect id="Rectángulo_46986" data-name="Rectángulo 46986" width="6.544" height="2.12" transform="translate(18.825 50.846)" fill="#fff"/>
        <rect id="Rectángulo_46987" data-name="Rectángulo 46987" width="4.331" height="2.132" transform="translate(5.585 45.337)" fill="#fff"/>
        <rect id="Rectángulo_46988" data-name="Rectángulo 46988" width="4.32" height="2.147" transform="translate(5.593 56.351)" fill="#fff"/>
      </g>
    </g>
  </g>
</svg>
