<svg xmlns="http://www.w3.org/2000/svg" width="227" height="99" viewBox="0 0 227 99">
  <g id="Grupo_156305" data-name="Grupo 156305" transform="translate(5717 9133)">
    <g id="Grupo_156302" data-name="Grupo 156302" transform="translate(-1057.037 1476.759)">
      <path id="Trazado_198081" data-name="Trazado 198081" d="M-4640.91-10769.514h205.225s-59.924-4.6-103.664-32.387-42.92-42.205-54.008-40.76-13.715,16.086-21.072,40.76S-4640.91-10769.514-4640.91-10769.514Z" transform="translate(-8.09 237)" fill="#cdb8f1"/>
      <line id="Línea_1986" data-name="Línea 1986" x2="59" y2="0.5" transform="translate(-4600.5 -10523)" fill="none" stroke="#2194e5" stroke-width="2"/>
      <path id="Polígono_47" data-name="Polígono 47" d="M8.5,0,17,10H0Z" transform="translate(-4580 -10533)" fill="#2194e5"/>
      <path id="Trazado_198082" data-name="Trazado 198082" d="M-4649-10541.867s-4.335,7.3,0,14.189" fill="none" stroke="#2194e5" stroke-width="1"/>
      <path id="Trazado_198083" data-name="Trazado 198083" d="M-4649-10541.867s-4.335,7.3,0,14.189" transform="translate(-2.037)" fill="none" stroke="#2194e5" stroke-width="1"/>
      <g id="Grupo_156186" data-name="Grupo 156186">
        <path id="Trazado_198085" data-name="Trazado 198085" d="M-4650.927-10541.867s4.335,7.3,0,14.189" transform="translate(207.963)" fill="none" stroke="#2194e5" stroke-width="1"/>
        <path id="Trazado_198084" data-name="Trazado 198084" d="M-4650.927-10541.867s4.335,7.3,0,14.189" transform="translate(210)" fill="none" stroke="#2194e5" stroke-width="1"/>
      </g>
      <g id="Grupo_156187" data-name="Grupo 156187" transform="translate(2.5)">
        <path id="Trazado_198086" data-name="Trazado 198086" d="M-4592.715-10522.75l-8.834,8.357" transform="translate(0.049)" fill="none" stroke="#2194e5" stroke-width="1"/>
        <path id="Trazado_198089" data-name="Trazado 198089" d="M-4592.715-10522.75l-8.834,8.357" transform="translate(15.049)" fill="none" stroke="#2194e5" stroke-width="1"/>
        <path id="Trazado_198091" data-name="Trazado 198091" d="M-4592.715-10522.75l-8.834,8.357" transform="translate(31.049)" fill="none" stroke="#2194e5" stroke-width="1"/>
        <path id="Trazado_198093" data-name="Trazado 198093" d="M-4592.715-10522.75l-8.834,8.357" transform="translate(46.049)" fill="none" stroke="#2194e5" stroke-width="1"/>
        <path id="Trazado_198087" data-name="Trazado 198087" d="M-4592.715-10522.75l-8.834,8.357" transform="translate(8.049 -0.25)" fill="none" stroke="#2194e5" stroke-width="1"/>
        <path id="Trazado_198088" data-name="Trazado 198088" d="M-4592.715-10522.75l-8.834,8.357" transform="translate(23.049 -0.25)" fill="none" stroke="#2194e5" stroke-width="1"/>
        <path id="Trazado_198090" data-name="Trazado 198090" d="M-4592.715-10522.75l-8.834,8.357" transform="translate(39.049 -0.25)" fill="none" stroke="#2194e5" stroke-width="1"/>
      </g>
    </g>
    <rect id="Rectángulo_47349" data-name="Rectángulo 47349" width="227" height="99" transform="translate(-5717 -9133)" fill="none"/>
  </g>
</svg>
