<svg xmlns="http://www.w3.org/2000/svg" xmlns:xlink="http://www.w3.org/1999/xlink" width="227" height="99" viewBox="0 0 227 99">
  <defs>
    <clipPath id="clip-path">
      <path id="Trazado_198094" data-name="Trazado 198094" d="M-4640.91-10769.514h205.225s-59.924-4.6-103.664-32.387-42.92-42.205-54.008-40.76-13.715,16.086-21.072,40.76S-4640.91-10769.514-4640.91-10769.514Z" transform="translate(4948.91 11720.24)" fill="#e0d5f1"/>
    </clipPath>
  </defs>
  <g id="Grupo_156306" data-name="Grupo 156306" transform="translate(6033 9133)">
    <g id="Grupo_156301" data-name="Grupo 156301" transform="translate(-6330 -10003.481)">
      <path id="Trazado_198079" data-name="Trazado 198079" d="M-4640.91-10769.514h205.225s-59.924-4.6-103.664-32.387-42.92-42.205-54.008-40.76-13.715,16.086-21.072,40.76S-4640.91-10769.514-4640.91-10769.514Z" transform="translate(4948.91 11720.24)" fill="#e0d5f1"/>
      <path id="Trazado_198080" data-name="Trazado 198080" d="M-4573.9-10769.514h138.21s-59.924-4.6-103.664-32.387c-15.571-9.892-34.546-25.837-34.546-25.837Z" transform="translate(4948.91 11720.24)" fill="#b7aadb"/>
      <g id="Enmascarar_grupo_141249" data-name="Enmascarar grupo 141249" clip-path="url(#clip-path)">
        <g id="Grupo_156188" data-name="Grupo 156188">
          <line id="Línea_1987" data-name="Línea 1987" x1="54" y2="101" transform="translate(302.5 868.5)" fill="none" stroke="#707070" stroke-width="1"/>
          <line id="Línea_1995" data-name="Línea 1995" x1="54" y2="101" transform="translate(399.5 868.5)" fill="none" stroke="#707070" stroke-width="1"/>
          <line id="Línea_1991" data-name="Línea 1991" x1="54" y2="101" transform="translate(350.5 868.5)" fill="none" stroke="#707070" stroke-width="1"/>
          <line id="Línea_1996" data-name="Línea 1996" x1="54" y2="101" transform="translate(447.5 868.5)" fill="none" stroke="#707070" stroke-width="1"/>
          <line id="Línea_1989" data-name="Línea 1989" x1="54" y2="101" transform="translate(326.5 868.5)" fill="none" stroke="#707070" stroke-width="1"/>
          <line id="Línea_1997" data-name="Línea 1997" x1="54" y2="101" transform="translate(423.5 868.5)" fill="none" stroke="#707070" stroke-width="1"/>
          <line id="Línea_1992" data-name="Línea 1992" x1="54" y2="101" transform="translate(374.5 868.5)" fill="none" stroke="#707070" stroke-width="1"/>
          <line id="Línea_1998" data-name="Línea 1998" x1="54" y2="101" transform="translate(471.5 868.5)" fill="none" stroke="#707070" stroke-width="1"/>
          <line id="Línea_1988" data-name="Línea 1988" x1="54" y2="101" transform="translate(314.5 868.5)" fill="none" stroke="#707070" stroke-width="1"/>
          <line id="Línea_1999" data-name="Línea 1999" x1="54" y2="101" transform="translate(411.5 868.5)" fill="none" stroke="#707070" stroke-width="1"/>
          <line id="Línea_1993" data-name="Línea 1993" x1="54" y2="101" transform="translate(362.5 868.5)" fill="none" stroke="#707070" stroke-width="1"/>
          <line id="Línea_2000" data-name="Línea 2000" x1="54" y2="101" transform="translate(459.5 868.5)" fill="none" stroke="#707070" stroke-width="1"/>
          <line id="Línea_1990" data-name="Línea 1990" x1="54" y2="101" transform="translate(338.5 868.5)" fill="none" stroke="#707070" stroke-width="1"/>
          <line id="Línea_2001" data-name="Línea 2001" x1="54" y2="101" transform="translate(435.5 868.5)" fill="none" stroke="#707070" stroke-width="1"/>
          <line id="Línea_1994" data-name="Línea 1994" x1="54" y2="101" transform="translate(386.5 868.5)" fill="none" stroke="#707070" stroke-width="1"/>
          <line id="Línea_2002" data-name="Línea 2002" x1="54" y2="101" transform="translate(483.5 868.5)" fill="none" stroke="#707070" stroke-width="1"/>
        </g>
      </g>
      <line id="Línea_1985" data-name="Línea 1985" y2="78" transform="translate(376.5 883.74)" fill="none" stroke="#2194e5" stroke-width="2"/>
    </g>
    <rect id="Rectángulo_47350" data-name="Rectángulo 47350" width="227" height="99" transform="translate(-6033 -9133)" fill="none"/>
  </g>
</svg>
