<svg xmlns="http://www.w3.org/2000/svg" xmlns:xlink="http://www.w3.org/1999/xlink" width="77.141" height="68.746" viewBox="0 0 77.141 68.746">
  <defs>
    <clipPath id="clip-path">
      <rect id="Rectángulo_47306" data-name="Rectángulo 47306" width="59.907" height="59.793" fill="#fff"/>
    </clipPath>
  </defs>
  <g id="Grupo_155302" data-name="Grupo 155302" transform="translate(0.005 -1.836)">
    <g id="Grupo_154374" data-name="Grupo 154374" transform="translate(0 2.869)">
      <line id="Línea_1807" data-name="Línea 1807" x2="77.131" y2="0.771" transform="translate(0 66.441)" fill="none" stroke="#fff" stroke-width="1" stroke-dasharray="6"/>
      <g id="Grupo_153193" data-name="Grupo 153193" transform="translate(22.23 11.293) rotate(180)">
        <rect id="Rectángulo_45221" data-name="Rectángulo 45221" width="2.151" height="2.151" transform="translate(9.142 9.142)" fill="#3cffe9"/>
        <rect id="Rectángulo_45222" data-name="Rectángulo 45222" width="2.151" height="2.151" transform="translate(4.571 9.142)" fill="#3cffe9"/>
        <rect id="Rectángulo_45223" data-name="Rectángulo 45223" width="2.151" height="2.151" transform="translate(0 9.142)" fill="#3cffe9"/>
        <rect id="Rectángulo_45232" data-name="Rectángulo 45232" width="2.151" height="2.151" transform="translate(9.142 4.571)" fill="#3cffe9"/>
        <rect id="Rectángulo_45233" data-name="Rectángulo 45233" width="2.151" height="2.151" transform="translate(4.571 4.571)" fill="#3cffe9"/>
        <rect id="Rectángulo_45234" data-name="Rectángulo 45234" width="2.151" height="2.151" transform="translate(0 4.571)" fill="#3cffe9"/>
        <rect id="Rectángulo_45243" data-name="Rectángulo 45243" width="2.151" height="2.151" transform="translate(9.142)" fill="#3cffe9"/>
        <rect id="Rectángulo_45244" data-name="Rectángulo 45244" width="2.151" height="2.151" transform="translate(4.571)" fill="#3cffe9"/>
        <rect id="Rectángulo_45245" data-name="Rectángulo 45245" width="2.151" height="2.151" fill="#3cffe9"/>
      </g>
    </g>
    <g id="Grupo_156253" data-name="Grupo 156253" transform="translate(10.465 1.836)">
      <g id="Grupo_156253-2" data-name="Grupo 156253" clip-path="url(#clip-path)">
        <path id="Trazado_198193" data-name="Trazado 198193" d="M19.158,25.077H16.874A6.417,6.417,0,0,1,17,24.108a2.99,2.99,0,1,0-5.8-.9,9.059,9.059,0,0,0,.22,1.027c.047.265.058.536.091.855H9.2c0-.475,0-.922,0-1.369A1.04,1.04,0,0,0,8.331,22.6a3.943,3.943,0,0,0-2.907-.069c-.23.112-.753-.142-1.006-.375a.748.748,0,0,1,.012-1.12c.257-.227.78-.462,1.017-.347a3.877,3.877,0,0,0,2.846-.072,1.065,1.065,0,0,0,.9-1.156c-.009-.747,0-1.493,0-2.34.88,0,1.742,0,2.6,0,.973,0,1.189-.175,1.442-1.094a3.644,3.644,0,0,0,.014-2.666c-.111-.238.136-.756.367-1.009a.75.75,0,0,1,1.121,0c.229.255.473.781.358,1.013a3.907,3.907,0,0,0,.081,2.906,1.019,1.019,0,0,0,1.077.845c1.266,0,2.532.01,3.8,0a.991.991,0,0,0,1.092-1.08c.016-.684,0-1.368,0-2.2a7.2,7.2,0,0,1,1,.139,2.94,2.94,0,0,0,3.233-.852,2.8,2.8,0,0,0,.473-3.243,2.845,2.845,0,0,0-2.8-1.711,3.2,3.2,0,0,0-.966.2c-.791.27-.934.178-.935-.67,0-.478.01-.955,0-1.432a.992.992,0,0,0-1.075-1.1c-1.266-.016-2.532-.013-3.8,0a1,1,0,1,0,.033,1.988c.929.009,1.858,0,2.85,0,0,.65.006,1.246,0,1.842a1.067,1.067,0,0,0,.906,1.156,3.731,3.731,0,0,0,2.839.051.76.76,0,0,1,1.052.405,1.544,1.544,0,0,1-.016,1.089.765.765,0,0,1-1.067.37c-1.023-.543-1.986-.153-2.958.1a.967.967,0,0,0-.754,1.017c0,.62,0,1.239,0,1.9H16.852A6.309,6.309,0,0,1,17,14.15a3.035,3.035,0,0,0-1.078-3.438,2.989,2.989,0,0,0-4.512,3.556,3.884,3.884,0,0,1,.1.839H9.243V7.156c.959,0,1.927.019,2.893-.006a.948.948,0,0,0,.913-1.406,1.371,1.371,0,0,0-.938-.555c-1.263-.063-2.531-.034-3.8-.02A1,1,0,0,0,7.206,6.294c-.012,1.326,0,2.653,0,4.014-1.183-.5-2.31-1.014-3.46-1.463-.77-.3-1.569-.534-2.365-.763A1,1,0,1,0,.858,10a27.1,27.1,0,0,1,5.864,2.373.79.79,0,0,1,.492.814C7.187,15.054,7.2,16.922,7.2,18.93a8.858,8.858,0,0,1-1.016-.16,2.949,2.949,0,0,0-3.225.881,2.977,2.977,0,0,0,2.388,4.928,7.825,7.825,0,0,0,1.025-.226c.259-.045.527-.041.829-.061,0,.662-.015,1.2,0,1.738a.982.982,0,0,0,1.058,1.05c1.287.018,2.574.01,3.861.007a.989.989,0,0,0,1.037-.81,4,4,0,0,0,.088-2.967c-.111-.226.148-.751.383-1a.749.749,0,0,1,1.12.023c.225.258.457.782.341,1.018a3.932,3.932,0,0,0,.091,2.907,1.017,1.017,0,0,0,1.088.83c.726,0,1.454.017,2.179-.008a.485.485,0,0,1,.566.41,24.927,24.927,0,0,1,1.057,9.405c-.132,1.5-.441,2.99-.694,4.481-.122.72.111,1.236.691,1.38s1.058-.2,1.237-.915a27.391,27.391,0,0,0-.225-14.328,3.593,3.593,0,0,1-.01-1.175c.084-2.154.066-4.313.025-6.469a.911.911,0,0,0-1.065-.744.99.99,0,0,0-.87,1.045c-.015,1.37-.006,2.74-.006,4.11v.8" transform="translate(33.739 -3.172)" fill="#fff"/>
        <path id="Trazado_198194" data-name="Trazado 198194" d="M61.006,68.954c-.378.69-1.594,1.012-1.066,2.218.852,1.947.84,1.952,2.979,2.1v3.963c-1.224-.1-2.164-.056-2.764,1.4s0,2.122.87,2.824l-2.811,2.813c-.663-.352-1-1.635-2.218-1.044-.609.3-1.406.455-1.769.938s-.272,1.28-.4,2.03c-.245,0-.571-.018-.894,0a.986.986,0,0,0-.972,1.009.972.972,0,0,0,.951.964c.683.03,1.37.03,2.054,0a.964.964,0,0,0,.969-1.009c.022-.476,0-.955.018-1.432.005-.123.086-.319.17-.344a.53.53,0,0,1,.427.1c.327.286.617.615.933.915a.993.993,0,0,0,1.58.032q2.066-2.029,4.1-4.093a.979.979,0,0,0,0-1.535c-.31-.334-.655-.637-.957-.979a.529.529,0,0,1-.094-.427c.024-.086.219-.168.341-.174.456-.02.913,0,1.369-.012a.994.994,0,0,0,1.078-1.094q.019-2.9,0-5.792a.991.991,0,0,0-1.089-1.083c-.456-.013-.914.011-1.369-.009-.122-.005-.316-.091-.34-.177a.534.534,0,0,1,.1-.427c.287-.327.616-.616.916-.932a1,1,0,0,0,.03-1.581q-2.031-2.065-4.1-4.095a.982.982,0,0,0-1.536,0c-.335.31-.639.653-.976.961-.09.082-.288.157-.367.113a.528.528,0,0,1-.227-.371c-.026-.455,0-.913-.012-1.369a.977.977,0,0,0-1.029-1.077q-2.958-.023-5.916,0a.969.969,0,0,0-1.02,1.023c-.02.435.012.873-.015,1.307-.01.162-.1.441-.183.45a.765.765,0,0,1-.515-.184c-.3-.253-.559-.556-.845-.827a.994.994,0,0,0-1.581-.022q-2.063,2.031-4.091,4.1a.978.978,0,0,0,.007,1.536c.267.289.57.547.827.845a2.225,2.225,0,0,1,.254.511,2.384,2.384,0,0,1-.581.21c-.392.035-.789,0-1.182.017A.981.981,0,0,0,39.014,72.3q-.023,2.927,0,5.854a.989.989,0,0,0,1.106,1.065c.436.012.873-.013,1.307.012a.512.512,0,0,1,.388.2.5.5,0,0,1-.122.419c-.3.34-.651.641-.959.977a.964.964,0,0,0-.005,1.49q2.048,2.091,4.139,4.139A.979.979,0,0,0,46.4,86.43c.288-.27.544-.574.841-.831a2.074,2.074,0,0,1,.512-.242,1.824,1.824,0,0,1,.21.518c.031.434-.006.872.017,1.307a.984.984,0,0,0,.982,1,.974.974,0,0,0,.994-.985,16.379,16.379,0,0,0-.023-2.425,2.022,2.022,0,0,0-.645-.95c-.142-.149-.44-.134-.623-.259A1.78,1.78,0,0,0,45.9,84.1a1.219,1.219,0,0,1-.228.205l-2.8-2.8c.784-.73,1.546-1.38.891-2.861-.62-1.4-1.465-1.55-2.719-1.381V73.234c1.163.078,2.125.079,2.711-1.4a2.055,2.055,0,0,0-.867-2.806l2.84-2.842c.7.8,1.372,1.477,2.839.845,1.42-.612,1.507-1.5,1.369-2.719h4.038c-.146,1.224-.033,2.131,1.406,2.727s2.115-.023,2.818-.895l2.806,2.811" transform="translate(-19.985 -38.364)" fill="#fff"/>
        <path id="Trazado_198195" data-name="Trazado 198195" d="M96.33,57.457c.478-1.568-.291-2.333-1.583-2.782a1.83,1.83,0,0,1-.505-.359,1.066,1.066,0,0,0-1.325-.1c-.339.2-.681.384-1.034.583-.078-.114-.142-.195-.194-.283-.26-.447-.516-.9-.805-1.4.366-.22.715-.432,1.065-.641a1.114,1.114,0,0,0,.561-1.207,5.51,5.51,0,0,1-.011-1.482,1.19,1.19,0,0,0-.667-1.389c-.306-.165-.6-.347-.948-.547l.976-1.707c.377.209.733.4,1.086.6a1.1,1.1,0,0,0,1.276-.082,7.279,7.279,0,0,1,1.333-.784,1.22,1.22,0,0,0,.865-1.34c-.023-.325,0-.653,0-1.009h1.99c0,.349.017.694,0,1.037a1.2,1.2,0,0,0,.838,1.3,5.482,5.482,0,0,1,1.232.709,1.22,1.22,0,0,0,1.594.072c.273-.183.571-.327.9-.51l.978,1.695c-.367.221-.721.424-1.065.642a1,1,0,1,0,.983,1.731c.637-.347,1.264-.713,1.882-1.094a.97.97,0,0,0,.4-1.435q-.934-1.687-1.923-3.343a.98.98,0,0,0-1.488-.373,5.8,5.8,0,0,0-.753.435.87.87,0,0,1-1.162.023.732.732,0,0,1-.417-.726,9.348,9.348,0,0,0,0-1.182.957.957,0,0,0-.986-.991q-1.992-.035-3.984,0a.969.969,0,0,0-1,.986,4.159,4.159,0,0,0,0,.932.9.9,0,0,1-.693,1.113.936.936,0,0,1-.6,0c-.377-.167-.716-.417-1.083-.608a.946.946,0,0,0-1.4.344q-1.027,1.7-1.988,3.448a.961.961,0,0,0,.359,1.354c.258.173.536.315.805.471.9.524.909,1.317.015,1.842-1.615.949-1.644,1.059-.7,2.688.456.79.909,1.582,1.369,2.37.476.813.913.925,1.745.456a4.3,4.3,0,0,0,.535-.316.983.983,0,0,1,1.275-.039c.446.269.354.6.355.951.008,1.838.107,1.942,1.924,1.942.353,0,.707.015,1.058-.006a.99.99,0,1,0,.019-1.981c-.308-.02-.617,0-1.091,0" transform="translate(-80.382 -25.568)" fill="#fff"/>
        <path id="Trazado_198196" data-name="Trazado 198196" d="M98.091,39.757A30.978,30.978,0,0,0,99.6,48.444c.253.771.865,1.086,1.469.783.48-.24.6-.714.435-1.407a47.126,47.126,0,0,1-1.074-4.843A25.878,25.878,0,0,1,119.1,14.731a3.214,3.214,0,0,0,.7-.244.976.976,0,0,0-.509-1.841,3.008,3.008,0,0,0-.727.15C107.45,16.349,100.722,23.816,98.557,35.31c-.275,1.46-.317,2.963-.466,4.447" transform="translate(-98.091 -7.79)" fill="#fff"/>
        <path id="Trazado_198197" data-name="Trazado 198197" d="M12.324,112.965a3.762,3.762,0,0,0-1.792,2.7,32.948,32.948,0,0,0-.068,3.846.889.889,0,0,0,.986.843q3.949.016,7.9,0a.911.911,0,0,0,1.019-.88,29.77,29.77,0,0,0-.036-3.665,3.765,3.765,0,0,0-1.866-2.84,4.108,4.108,0,0,0,.828-3.464,3.889,3.889,0,0,0-1.44-2.257,3.96,3.96,0,0,0-5.089.167c-1.562,1.381-1.727,3.352-.442,5.548m6.072,5.4H12.428c0-.77-.03-1.454.007-2.133a1.967,1.967,0,0,1,1.921-1.842c.7-.026,1.41-.027,2.114,0a1.954,1.954,0,0,1,1.918,1.842c.037.68.007,1.363.007,2.137m-2.972-5.984A1.99,1.99,0,1,1,17.4,110.4a2,2,0,0,1-1.978,1.986" transform="translate(35.493 -65.553)" fill="#fff"/>
        <path id="Trazado_198198" data-name="Trazado 198198" d="M126.549,115.471a4.29,4.29,0,0,0-1.907,4.095c.036.7,0,1.411.008,2.117s.415,1.181,1.009,1.172.975-.471.981-1.2c.007-.892-.006-1.785,0-2.677a1.977,1.977,0,0,1,2.059-2.088c.664-.013,1.329-.019,1.992,0a1.934,1.934,0,0,1,1.908,1.78c.048.7.009,1.405.009,2.2-1,0-1.972-.048-2.933.027a1.288,1.288,0,0,0-.907.577,1.218,1.218,0,0,0,.143,1.006,1.09,1.09,0,0,0,.8.363c1.265.039,2.531.033,3.8.016a1.013,1.013,0,0,0,1.1-1.145c.011-.975.023-1.952-.005-2.926a4,4,0,0,0-1.884-3.313c1.3-2.417,1.1-4.361-.591-5.726a4.009,4.009,0,0,0-5.1.093c-1.609,1.409-1.794,3.41-.478,5.627m3.09-4.561a1.977,1.977,0,0,1,1.982,1.971,1.99,1.99,0,1,1-3.98-.014,1.983,1.983,0,0,1,2-1.957" transform="translate(-122.564 -67.078)" fill="#fff"/>
        <path id="Trazado_198199" data-name="Trazado 198199" d="M78.224,6.571C79.54,4.278,79.329,2.238,77.662.9a3.976,3.976,0,0,0-5.143.094c-1.588,1.385-1.77,3.446-.455,5.547-.146.121-.3.247-.45.375a3.923,3.923,0,0,0-1.44,2.921,1,1,0,0,0,.92,1.119,1.01,1.01,0,0,0,1.062-.984,2.008,2.008,0,0,1,2.222-2c.581,0,1.161-.012,1.742,0a1.988,1.988,0,0,1,2.013,2.014c.015.621,0,1.244,0,1.968H76.285c-.684,0-1.369-.011-2.052,0a1,1,0,1,0,.019,1.984c1.6.012,3.193.005,4.79,0,.574,0,1.032-.278,1.051-.843a30.907,30.907,0,0,0-.063-3.847,3.676,3.676,0,0,0-1.806-2.686M73.16,3.982a1.988,1.988,0,1,1,1.972,1.988A1.995,1.995,0,0,1,73.16,3.982" transform="translate(-47.156 0)" fill="#fff"/>
        <path id="Trazado_198200" data-name="Trazado 198200" d="M69.14,86.42a5.979,5.979,0,1,0-5.9,5.992,5.991,5.991,0,0,0,5.9-5.992m-2-.013a3.983,3.983,0,1,1-4.024-3.958,3.989,3.989,0,0,1,4.024,3.958" transform="translate(-31.187 -49.564)" fill="#fff"/>
        <path id="Trazado_198201" data-name="Trazado 198201" d="M55.728,145.268a27.81,27.81,0,0,0,15.118-4.58c.658-.428.832-.992.483-1.509s-.927-.586-1.585-.153a25.414,25.414,0,0,1-10.372,3.955,25.706,25.706,0,0,1-15.748-2.619c-.2-.1-.4-.224-.607-.314a.977.977,0,0,0-1.328.428.936.936,0,0,0,.43,1.323c1.128.566,2.261,1.133,3.434,1.6a27.556,27.556,0,0,0,10.176,1.873" transform="translate(-27.557 -85.475)" fill="#fff"/>
        <path id="Trazado_198202" data-name="Trazado 198202" d="M103.9,60.11a2.987,2.987,0,1,0,2.941-3,3,3,0,0,0-2.941,3m2-.023a.992.992,0,1,1,.971,1,1,1,0,0,1-.971-1" transform="translate(-89.86 -35.182)" fill="#fff"/>
      </g>
    </g>
  </g>
</svg>
