<svg xmlns="http://www.w3.org/2000/svg" xmlns:xlink="http://www.w3.org/1999/xlink" width="505" height="232.64" viewBox="0 0 505 232.64">
  <defs>
    <clipPath id="clip-path">
      <path id="Trazado_194907" data-name="Trazado 194907" d="M0,125.079A71.746,71.746,0,1,0,71.746,53.333,71.744,71.744,0,0,0,0,125.079" transform="translate(0 -53.333)" fill="#7f4fc7"/>
    </clipPath>
  </defs>
  <g id="Grupo_156266" data-name="Grupo 156266" transform="translate(-915 -1442.332)">
    <g id="Grupo_154313" data-name="Grupo 154313" transform="translate(922.737 1447.257)">
      <g id="Grupo_152768" data-name="Grupo 152768" transform="translate(0 0)" clip-path="url(#clip-path)">
        <path id="Trazado_194826" data-name="Trazado 194826" d="M3.777,55.22A1.888,1.888,0,1,0,1.889,57.11,1.888,1.888,0,0,0,3.777,55.22" transform="translate(0 -53.333)" fill="#7f4fc7"/>
        <path id="Trazado_194827" data-name="Trazado 194827" d="M12.049,55.22a1.888,1.888,0,1,0-1.887,1.889,1.888,1.888,0,0,0,1.887-1.889" transform="translate(9.191 -53.333)" fill="#7f4fc7"/>
        <path id="Trazado_194828" data-name="Trazado 194828" d="M20.322,55.22a1.888,1.888,0,1,0-1.887,1.889,1.888,1.888,0,0,0,1.887-1.889" transform="translate(18.383 -53.333)" fill="#7f4fc7"/>
        <path id="Trazado_194829" data-name="Trazado 194829" d="M28.595,55.22a1.888,1.888,0,1,0-1.887,1.889,1.888,1.888,0,0,0,1.887-1.889" transform="translate(27.576 -53.333)" fill="#7f4fc7"/>
        <path id="Trazado_194830" data-name="Trazado 194830" d="M36.867,55.22a1.888,1.888,0,1,0-1.887,1.889,1.888,1.888,0,0,0,1.887-1.889" transform="translate(36.767 -53.333)" fill="#7f4fc7"/>
        <path id="Trazado_194831" data-name="Trazado 194831" d="M45.14,55.22a1.888,1.888,0,1,0-1.887,1.889A1.888,1.888,0,0,0,45.14,55.22" transform="translate(45.959 -53.333)" fill="#7f4fc7"/>
        <path id="Trazado_194832" data-name="Trazado 194832" d="M53.412,55.22a1.888,1.888,0,1,0-1.887,1.889,1.888,1.888,0,0,0,1.887-1.889" transform="translate(55.15 -53.333)" fill="#7f4fc7"/>
        <path id="Trazado_194833" data-name="Trazado 194833" d="M61.685,55.22A1.888,1.888,0,1,0,59.8,57.11a1.889,1.889,0,0,0,1.887-1.889" transform="translate(64.342 -53.333)" fill="#7f4fc7"/>
        <path id="Trazado_194834" data-name="Trazado 194834" d="M69.958,55.22A1.888,1.888,0,1,0,68.07,57.11a1.888,1.888,0,0,0,1.887-1.889" transform="translate(73.534 -53.333)" fill="#7f4fc7"/>
        <path id="Trazado_194835" data-name="Trazado 194835" d="M3.777,63.493a1.888,1.888,0,1,0-1.887,1.887,1.887,1.887,0,0,0,1.887-1.887" transform="translate(0 -44.141)" fill="#7f4fc7"/>
        <path id="Trazado_194836" data-name="Trazado 194836" d="M12.049,63.493a1.888,1.888,0,1,0-1.887,1.887,1.887,1.887,0,0,0,1.887-1.887" transform="translate(9.191 -44.141)" fill="#7f4fc7"/>
        <path id="Trazado_194837" data-name="Trazado 194837" d="M20.322,63.493a1.888,1.888,0,1,0-1.887,1.887,1.887,1.887,0,0,0,1.887-1.887" transform="translate(18.383 -44.141)" fill="#7f4fc7"/>
        <path id="Trazado_194838" data-name="Trazado 194838" d="M28.595,63.493a1.888,1.888,0,1,0-1.887,1.887,1.887,1.887,0,0,0,1.887-1.887" transform="translate(27.576 -44.141)" fill="#7f4fc7"/>
        <path id="Trazado_194839" data-name="Trazado 194839" d="M36.867,63.493a1.888,1.888,0,1,0-1.887,1.887,1.887,1.887,0,0,0,1.887-1.887" transform="translate(36.767 -44.141)" fill="#7f4fc7"/>
        <path id="Trazado_194840" data-name="Trazado 194840" d="M45.14,63.493a1.888,1.888,0,1,0-1.887,1.887,1.887,1.887,0,0,0,1.887-1.887" transform="translate(45.959 -44.141)" fill="#7f4fc7"/>
        <path id="Trazado_194841" data-name="Trazado 194841" d="M53.412,63.493a1.888,1.888,0,1,0-1.887,1.887,1.887,1.887,0,0,0,1.887-1.887" transform="translate(55.15 -44.141)" fill="#7f4fc7"/>
        <path id="Trazado_194842" data-name="Trazado 194842" d="M61.685,63.493A1.888,1.888,0,1,0,59.8,65.381a1.888,1.888,0,0,0,1.887-1.887" transform="translate(64.342 -44.141)" fill="#7f4fc7"/>
        <path id="Trazado_194843" data-name="Trazado 194843" d="M69.958,63.493a1.888,1.888,0,1,0-1.887,1.887,1.887,1.887,0,0,0,1.887-1.887" transform="translate(73.534 -44.141)" fill="#7f4fc7"/>
        <path id="Trazado_194844" data-name="Trazado 194844" d="M3.777,71.766a1.888,1.888,0,1,0-1.887,1.887,1.887,1.887,0,0,0,1.887-1.887" transform="translate(0 -34.949)" fill="#7f4fc7"/>
        <path id="Trazado_194845" data-name="Trazado 194845" d="M12.049,71.766a1.888,1.888,0,1,0-1.887,1.887,1.887,1.887,0,0,0,1.887-1.887" transform="translate(9.191 -34.949)" fill="#7f4fc7"/>
        <path id="Trazado_194846" data-name="Trazado 194846" d="M20.322,71.766a1.888,1.888,0,1,0-1.887,1.887,1.887,1.887,0,0,0,1.887-1.887" transform="translate(18.383 -34.949)" fill="#7f4fc7"/>
        <path id="Trazado_194847" data-name="Trazado 194847" d="M28.595,71.766a1.888,1.888,0,1,0-1.887,1.887,1.887,1.887,0,0,0,1.887-1.887" transform="translate(27.576 -34.949)" fill="#7f4fc7"/>
        <path id="Trazado_194848" data-name="Trazado 194848" d="M36.867,71.766a1.888,1.888,0,1,0-1.887,1.887,1.887,1.887,0,0,0,1.887-1.887" transform="translate(36.767 -34.949)" fill="#7f4fc7"/>
        <path id="Trazado_194849" data-name="Trazado 194849" d="M45.14,71.766a1.888,1.888,0,1,0-1.887,1.887,1.887,1.887,0,0,0,1.887-1.887" transform="translate(45.959 -34.949)" fill="#7f4fc7"/>
        <path id="Trazado_194850" data-name="Trazado 194850" d="M53.412,71.766a1.888,1.888,0,1,0-1.887,1.887,1.887,1.887,0,0,0,1.887-1.887" transform="translate(55.15 -34.949)" fill="#7f4fc7"/>
        <path id="Trazado_194851" data-name="Trazado 194851" d="M61.685,71.766A1.888,1.888,0,1,0,59.8,73.654a1.888,1.888,0,0,0,1.887-1.887" transform="translate(64.342 -34.949)" fill="#7f4fc7"/>
        <path id="Trazado_194852" data-name="Trazado 194852" d="M69.958,71.766a1.888,1.888,0,1,0-1.887,1.887,1.887,1.887,0,0,0,1.887-1.887" transform="translate(73.534 -34.949)" fill="#7f4fc7"/>
        <path id="Trazado_194853" data-name="Trazado 194853" d="M3.777,80.038a1.888,1.888,0,1,0-1.887,1.887,1.887,1.887,0,0,0,1.887-1.887" transform="translate(0 -25.757)" fill="#7f4fc7"/>
        <path id="Trazado_194854" data-name="Trazado 194854" d="M12.049,80.038a1.888,1.888,0,1,0-1.887,1.887,1.887,1.887,0,0,0,1.887-1.887" transform="translate(9.191 -25.757)" fill="#7f4fc7"/>
        <path id="Trazado_194855" data-name="Trazado 194855" d="M20.322,80.038a1.888,1.888,0,1,0-1.887,1.887,1.887,1.887,0,0,0,1.887-1.887" transform="translate(18.383 -25.757)" fill="#7f4fc7"/>
        <path id="Trazado_194856" data-name="Trazado 194856" d="M28.595,80.038a1.888,1.888,0,1,0-1.887,1.887,1.887,1.887,0,0,0,1.887-1.887" transform="translate(27.576 -25.757)" fill="#7f4fc7"/>
        <path id="Trazado_194857" data-name="Trazado 194857" d="M36.867,80.038a1.888,1.888,0,1,0-1.887,1.887,1.887,1.887,0,0,0,1.887-1.887" transform="translate(36.767 -25.757)" fill="#7f4fc7"/>
        <path id="Trazado_194858" data-name="Trazado 194858" d="M45.14,80.038a1.888,1.888,0,1,0-1.887,1.887,1.887,1.887,0,0,0,1.887-1.887" transform="translate(45.959 -25.757)" fill="#7f4fc7"/>
        <path id="Trazado_194859" data-name="Trazado 194859" d="M53.412,80.038a1.888,1.888,0,1,0-1.887,1.887,1.887,1.887,0,0,0,1.887-1.887" transform="translate(55.15 -25.757)" fill="#7f4fc7"/>
        <path id="Trazado_194860" data-name="Trazado 194860" d="M61.685,80.038A1.888,1.888,0,1,0,59.8,81.926a1.888,1.888,0,0,0,1.887-1.887" transform="translate(64.342 -25.757)" fill="#7f4fc7"/>
        <path id="Trazado_194861" data-name="Trazado 194861" d="M69.958,80.038a1.888,1.888,0,1,0-1.887,1.887,1.887,1.887,0,0,0,1.887-1.887" transform="translate(73.534 -25.757)" fill="#7f4fc7"/>
        <path id="Trazado_194862" data-name="Trazado 194862" d="M3.777,88.311A1.888,1.888,0,1,0,1.889,90.2a1.887,1.887,0,0,0,1.887-1.889" transform="translate(0 -16.565)" fill="#7f4fc7"/>
        <path id="Trazado_194863" data-name="Trazado 194863" d="M12.049,88.311A1.888,1.888,0,1,0,10.161,90.2a1.887,1.887,0,0,0,1.887-1.889" transform="translate(9.191 -16.565)" fill="#7f4fc7"/>
        <path id="Trazado_194864" data-name="Trazado 194864" d="M20.322,88.311A1.888,1.888,0,1,0,18.434,90.2a1.887,1.887,0,0,0,1.887-1.889" transform="translate(18.383 -16.565)" fill="#7f4fc7"/>
        <path id="Trazado_194865" data-name="Trazado 194865" d="M28.595,88.311A1.888,1.888,0,1,0,26.707,90.2a1.887,1.887,0,0,0,1.887-1.889" transform="translate(27.576 -16.565)" fill="#7f4fc7"/>
        <path id="Trazado_194866" data-name="Trazado 194866" d="M36.867,88.311A1.888,1.888,0,1,0,34.979,90.2a1.887,1.887,0,0,0,1.887-1.889" transform="translate(36.767 -16.565)" fill="#7f4fc7"/>
        <path id="Trazado_194867" data-name="Trazado 194867" d="M45.14,88.311A1.888,1.888,0,1,0,43.252,90.2a1.887,1.887,0,0,0,1.887-1.889" transform="translate(45.959 -16.565)" fill="#7f4fc7"/>
        <path id="Trazado_194868" data-name="Trazado 194868" d="M53.412,88.311A1.888,1.888,0,1,0,51.524,90.2a1.887,1.887,0,0,0,1.887-1.889" transform="translate(55.15 -16.565)" fill="#7f4fc7"/>
        <path id="Trazado_194869" data-name="Trazado 194869" d="M61.685,88.311A1.888,1.888,0,1,0,59.8,90.2a1.888,1.888,0,0,0,1.887-1.889" transform="translate(64.342 -16.565)" fill="#7f4fc7"/>
        <path id="Trazado_194870" data-name="Trazado 194870" d="M69.958,88.311A1.888,1.888,0,1,0,68.07,90.2a1.887,1.887,0,0,0,1.887-1.889" transform="translate(73.534 -16.565)" fill="#7f4fc7"/>
        <path id="Trazado_194871" data-name="Trazado 194871" d="M3.777,96.584a1.888,1.888,0,1,0-1.887,1.887,1.887,1.887,0,0,0,1.887-1.887" transform="translate(0 -7.373)" fill="#7f4fc7"/>
        <path id="Trazado_194872" data-name="Trazado 194872" d="M12.049,96.584a1.888,1.888,0,1,0-1.887,1.887,1.887,1.887,0,0,0,1.887-1.887" transform="translate(9.191 -7.373)" fill="#7f4fc7"/>
        <path id="Trazado_194873" data-name="Trazado 194873" d="M20.322,96.584a1.888,1.888,0,1,0-1.887,1.887,1.887,1.887,0,0,0,1.887-1.887" transform="translate(18.383 -7.373)" fill="#7f4fc7"/>
        <path id="Trazado_194874" data-name="Trazado 194874" d="M28.595,96.584a1.888,1.888,0,1,0-1.887,1.887,1.887,1.887,0,0,0,1.887-1.887" transform="translate(27.576 -7.373)" fill="#7f4fc7"/>
        <path id="Trazado_194875" data-name="Trazado 194875" d="M36.867,96.584a1.888,1.888,0,1,0-1.887,1.887,1.887,1.887,0,0,0,1.887-1.887" transform="translate(36.767 -7.373)" fill="#7f4fc7"/>
        <path id="Trazado_194876" data-name="Trazado 194876" d="M45.14,96.584a1.888,1.888,0,1,0-1.887,1.887,1.887,1.887,0,0,0,1.887-1.887" transform="translate(45.959 -7.373)" fill="#7f4fc7"/>
        <path id="Trazado_194877" data-name="Trazado 194877" d="M53.412,96.584a1.888,1.888,0,1,0-1.887,1.887,1.887,1.887,0,0,0,1.887-1.887" transform="translate(55.15 -7.373)" fill="#7f4fc7"/>
        <path id="Trazado_194878" data-name="Trazado 194878" d="M61.685,96.584A1.888,1.888,0,1,0,59.8,98.472a1.888,1.888,0,0,0,1.887-1.887" transform="translate(64.342 -7.373)" fill="#7f4fc7"/>
        <path id="Trazado_194879" data-name="Trazado 194879" d="M69.958,96.584a1.888,1.888,0,1,0-1.887,1.887,1.887,1.887,0,0,0,1.887-1.887" transform="translate(73.534 -7.373)" fill="#7f4fc7"/>
        <path id="Trazado_194880" data-name="Trazado 194880" d="M3.777,104.856a1.888,1.888,0,1,0-1.887,1.887,1.887,1.887,0,0,0,1.887-1.887" transform="translate(0 1.818)" fill="#7f4fc7"/>
        <path id="Trazado_194881" data-name="Trazado 194881" d="M12.049,104.856a1.888,1.888,0,1,0-1.887,1.887,1.887,1.887,0,0,0,1.887-1.887" transform="translate(9.191 1.818)" fill="#7f4fc7"/>
        <path id="Trazado_194882" data-name="Trazado 194882" d="M20.322,104.856a1.888,1.888,0,1,0-1.887,1.887,1.887,1.887,0,0,0,1.887-1.887" transform="translate(18.383 1.818)" fill="#7f4fc7"/>
        <path id="Trazado_194883" data-name="Trazado 194883" d="M28.595,104.856a1.888,1.888,0,1,0-1.887,1.887,1.887,1.887,0,0,0,1.887-1.887" transform="translate(27.576 1.818)" fill="#7f4fc7"/>
        <path id="Trazado_194884" data-name="Trazado 194884" d="M36.867,104.856a1.888,1.888,0,1,0-1.887,1.887,1.887,1.887,0,0,0,1.887-1.887" transform="translate(36.767 1.818)" fill="#7f4fc7"/>
        <path id="Trazado_194885" data-name="Trazado 194885" d="M45.14,104.856a1.888,1.888,0,1,0-1.887,1.887,1.887,1.887,0,0,0,1.887-1.887" transform="translate(45.959 1.818)" fill="#7f4fc7"/>
        <path id="Trazado_194886" data-name="Trazado 194886" d="M53.412,104.856a1.888,1.888,0,1,0-1.887,1.887,1.887,1.887,0,0,0,1.887-1.887" transform="translate(55.15 1.818)" fill="#7f4fc7"/>
        <path id="Trazado_194887" data-name="Trazado 194887" d="M61.685,104.856a1.888,1.888,0,1,0-1.887,1.887,1.888,1.888,0,0,0,1.887-1.887" transform="translate(64.342 1.818)" fill="#7f4fc7"/>
        <path id="Trazado_194888" data-name="Trazado 194888" d="M69.958,104.856a1.888,1.888,0,1,0-1.887,1.887,1.887,1.887,0,0,0,1.887-1.887" transform="translate(73.534 1.818)" fill="#7f4fc7"/>
        <path id="Trazado_194889" data-name="Trazado 194889" d="M3.777,113.129a1.888,1.888,0,1,0-1.887,1.887,1.887,1.887,0,0,0,1.887-1.887" transform="translate(0 11.01)" fill="#7f4fc7"/>
        <path id="Trazado_194890" data-name="Trazado 194890" d="M12.049,113.129a1.888,1.888,0,1,0-1.887,1.887,1.887,1.887,0,0,0,1.887-1.887" transform="translate(9.191 11.01)" fill="#7f4fc7"/>
        <path id="Trazado_194891" data-name="Trazado 194891" d="M20.322,113.129a1.888,1.888,0,1,0-1.887,1.887,1.887,1.887,0,0,0,1.887-1.887" transform="translate(18.383 11.01)" fill="#7f4fc7"/>
        <path id="Trazado_194892" data-name="Trazado 194892" d="M28.595,113.129a1.888,1.888,0,1,0-1.887,1.887,1.887,1.887,0,0,0,1.887-1.887" transform="translate(27.576 11.01)" fill="#7f4fc7"/>
        <path id="Trazado_194893" data-name="Trazado 194893" d="M36.867,113.129a1.888,1.888,0,1,0-1.887,1.887,1.887,1.887,0,0,0,1.887-1.887" transform="translate(36.767 11.01)" fill="#7f4fc7"/>
        <path id="Trazado_194894" data-name="Trazado 194894" d="M45.14,113.129a1.888,1.888,0,1,0-1.887,1.887,1.887,1.887,0,0,0,1.887-1.887" transform="translate(45.959 11.01)" fill="#7f4fc7"/>
        <path id="Trazado_194895" data-name="Trazado 194895" d="M53.412,113.129a1.888,1.888,0,1,0-1.887,1.887,1.887,1.887,0,0,0,1.887-1.887" transform="translate(55.15 11.01)" fill="#7f4fc7"/>
        <path id="Trazado_194896" data-name="Trazado 194896" d="M61.685,113.129a1.888,1.888,0,1,0-1.887,1.887,1.888,1.888,0,0,0,1.887-1.887" transform="translate(64.342 11.01)" fill="#7f4fc7"/>
        <path id="Trazado_194897" data-name="Trazado 194897" d="M69.958,113.129a1.888,1.888,0,1,0-1.887,1.887,1.887,1.887,0,0,0,1.887-1.887" transform="translate(73.534 11.01)" fill="#7f4fc7"/>
        <path id="Trazado_194898" data-name="Trazado 194898" d="M3.777,121.4a1.888,1.888,0,1,0-1.887,1.887A1.887,1.887,0,0,0,3.777,121.4" transform="translate(0 20.201)" fill="#7f4fc7"/>
        <path id="Trazado_194899" data-name="Trazado 194899" d="M12.049,121.4a1.888,1.888,0,1,0-1.887,1.887,1.887,1.887,0,0,0,1.887-1.887" transform="translate(9.191 20.201)" fill="#7f4fc7"/>
        <path id="Trazado_194900" data-name="Trazado 194900" d="M20.322,121.4a1.888,1.888,0,1,0-1.887,1.887,1.887,1.887,0,0,0,1.887-1.887" transform="translate(18.383 20.201)" fill="#7f4fc7"/>
        <path id="Trazado_194901" data-name="Trazado 194901" d="M28.595,121.4a1.888,1.888,0,1,0-1.887,1.887,1.887,1.887,0,0,0,1.887-1.887" transform="translate(27.576 20.201)" fill="#7f4fc7"/>
        <path id="Trazado_194902" data-name="Trazado 194902" d="M36.867,121.4a1.888,1.888,0,1,0-1.887,1.887,1.887,1.887,0,0,0,1.887-1.887" transform="translate(36.767 20.201)" fill="#7f4fc7"/>
        <path id="Trazado_194903" data-name="Trazado 194903" d="M45.14,121.4a1.888,1.888,0,1,0-1.887,1.887A1.887,1.887,0,0,0,45.14,121.4" transform="translate(45.959 20.201)" fill="#7f4fc7"/>
        <path id="Trazado_194904" data-name="Trazado 194904" d="M53.412,121.4a1.888,1.888,0,1,0-1.887,1.887,1.887,1.887,0,0,0,1.887-1.887" transform="translate(55.15 20.201)" fill="#7f4fc7"/>
        <path id="Trazado_194905" data-name="Trazado 194905" d="M61.685,121.4a1.888,1.888,0,1,0-1.887,1.887,1.888,1.888,0,0,0,1.887-1.887" transform="translate(64.342 20.201)" fill="#7f4fc7"/>
        <path id="Trazado_194906" data-name="Trazado 194906" d="M69.958,121.4a1.888,1.888,0,1,0-1.887,1.887,1.887,1.887,0,0,0,1.887-1.887" transform="translate(73.534 20.201)" fill="#7f4fc7"/>
      </g>
    </g>
    <g id="Grupo_63235" data-name="Grupo 63235" transform="translate(-1172.74 -4975.277)">
      <g id="Grupo_63232" data-name="Grupo 63232" transform="translate(2087.74 6468.321)">
        <rect id="Rectángulo_14697" data-name="Rectángulo 14697" width="61.767" height="169.001" fill="#2194e5"/>
        <rect id="Rectángulo_14698" data-name="Rectángulo 14698" width="38.863" height="73.392" transform="translate(11.452 11.108)" fill="#aed3f2"/>
        <path id="Trazado_138300" data-name="Trazado 138300" d="M1756.36,6318.329a15.27,15.27,0,1,1-15.27-15.269,15.27,15.27,0,0,1,15.27,15.269Z" transform="translate(-1710.206 -6185.062)" fill="#aed3f2"/>
        <rect id="Rectángulo_14699" data-name="Rectángulo 14699" width="24.298" height="6.242" transform="translate(18.743 24.642)" fill="#2194e5"/>
        <rect id="Rectángulo_14700" data-name="Rectángulo 14700" width="24.298" height="6.242" transform="translate(18.743 37.831)" fill="#2194e5"/>
      </g>
      <g id="Grupo_63233" data-name="Grupo 63233" transform="translate(2154.683 6440.309)">
        <rect id="Rectángulo_14701" data-name="Rectángulo 14701" width="61.767" height="197.03" fill="#2194e5"/>
        <rect id="Rectángulo_14702" data-name="Rectángulo 14702" width="38.863" height="73.392" transform="translate(11.453 11.108)" fill="#aed3f2"/>
        <path id="Trazado_138301" data-name="Trazado 138301" d="M1795.3,6318.389a15.27,15.27,0,1,1-15.27-15.27A15.27,15.27,0,0,1,1795.3,6318.389Z" transform="translate(-1749.129 -6157.006)" fill="#aed3f2"/>
        <rect id="Rectángulo_14703" data-name="Rectángulo 14703" width="24.298" height="6.242" transform="translate(18.744 24.642)" fill="#2194e5"/>
        <rect id="Rectángulo_14704" data-name="Rectángulo 14704" width="24.298" height="6.242" transform="translate(18.744 37.831)" fill="#2194e5"/>
      </g>
      <g id="Grupo_63234" data-name="Grupo 63234" transform="translate(2221.644 6417.61)">
        <rect id="Rectángulo_14705" data-name="Rectángulo 14705" width="61.767" height="219.746" fill="#2194e5"/>
        <rect id="Rectángulo_14706" data-name="Rectángulo 14706" width="38.863" height="73.392" transform="translate(11.452 11.092)" fill="#aed3f2"/>
        <path id="Trazado_138302" data-name="Trazado 138302" d="M1834.23,6318.389a15.254,15.254,0,1,1-4.468-10.8A15.27,15.27,0,0,1,1834.23,6318.389Z" transform="translate(-1788.076 -6134.308)" fill="#aed3f2"/>
        <rect id="Rectángulo_14707" data-name="Rectángulo 14707" width="24.298" height="6.242" transform="translate(18.743 24.625)" fill="#2194e5"/>
        <rect id="Rectángulo_14708" data-name="Rectángulo 14708" width="24.298" height="6.242" transform="translate(18.743 37.814)" fill="#2194e5"/>
      </g>
    </g>
    <g id="Grupo_154314" data-name="Grupo 154314" transform="translate(1367.434 1490.551)">
      <g id="Grupo_152551" data-name="Grupo 152551" transform="translate(0 146.132) rotate(-90)">
        <rect id="Rectángulo_45220" data-name="Rectángulo 45220" width="130.767" height="36.351" transform="translate(131.68 36.351) rotate(180)" fill="#e8e8e8"/>
        <g id="Grupo_152556" data-name="Grupo 152556" transform="translate(0 20.136)">
          <rect id="Rectángulo_45221" data-name="Rectángulo 45221" width="6.177" height="6.177" transform="translate(139.954 26.253)" fill="#1894f6"/>
          <rect id="Rectángulo_45222" data-name="Rectángulo 45222" width="6.177" height="6.177" transform="translate(126.828 26.253)" fill="#1894f6"/>
          <rect id="Rectángulo_45223" data-name="Rectángulo 45223" width="6.177" height="6.177" transform="translate(111.964 26.253)" fill="#1894f6"/>
          <rect id="Rectángulo_45224" data-name="Rectángulo 45224" width="6.177" height="6.177" transform="translate(97.968 26.253)" fill="#1894f6"/>
          <rect id="Rectángulo_45225" data-name="Rectángulo 45225" width="6.177" height="6.177" transform="translate(83.973 26.253)" fill="#1894f6"/>
          <rect id="Rectángulo_45226" data-name="Rectángulo 45226" width="6.177" height="6.177" transform="translate(69.977 26.253)" fill="#1894f6"/>
          <rect id="Rectángulo_45227" data-name="Rectángulo 45227" width="6.177" height="6.177" transform="translate(55.982 26.253)" fill="#1894f6"/>
          <rect id="Rectángulo_45228" data-name="Rectángulo 45228" width="6.177" height="6.177" transform="translate(41.986 26.253)" fill="#1894f6"/>
          <rect id="Rectángulo_45229" data-name="Rectángulo 45229" width="6.177" height="6.177" transform="translate(27.991 26.253)" fill="#1894f6"/>
          <rect id="Rectángulo_45230" data-name="Rectángulo 45230" width="6.177" height="6.177" transform="translate(13.126 26.253)" fill="#1894f6"/>
          <rect id="Rectángulo_45231" data-name="Rectángulo 45231" width="6.177" height="6.177" transform="translate(0 26.253)" fill="#1894f6"/>
          <rect id="Rectángulo_45232" data-name="Rectángulo 45232" width="6.177" height="6.177" transform="translate(139.954 13.126)" fill="#1894f6"/>
          <rect id="Rectángulo_45233" data-name="Rectángulo 45233" width="6.177" height="6.177" transform="translate(126.828 13.126)" fill="#1894f6"/>
          <rect id="Rectángulo_45234" data-name="Rectángulo 45234" width="6.177" height="6.177" transform="translate(111.964 13.126)" fill="#1894f6"/>
          <rect id="Rectángulo_45235" data-name="Rectángulo 45235" width="6.177" height="6.177" transform="translate(97.968 13.126)" fill="#1894f6"/>
          <rect id="Rectángulo_45236" data-name="Rectángulo 45236" width="6.177" height="6.177" transform="translate(83.973 13.126)" fill="#1894f6"/>
          <rect id="Rectángulo_45237" data-name="Rectángulo 45237" width="6.177" height="6.177" transform="translate(69.977 13.126)" fill="#1894f6"/>
          <rect id="Rectángulo_45238" data-name="Rectángulo 45238" width="6.177" height="6.177" transform="translate(55.982 13.126)" fill="#1894f6"/>
          <rect id="Rectángulo_45239" data-name="Rectángulo 45239" width="6.177" height="6.177" transform="translate(41.986 13.126)" fill="#1894f6"/>
          <rect id="Rectángulo_45240" data-name="Rectángulo 45240" width="6.177" height="6.177" transform="translate(27.991 13.126)" fill="#1894f6"/>
          <rect id="Rectángulo_45241" data-name="Rectángulo 45241" width="6.177" height="6.177" transform="translate(13.126 13.126)" fill="#1894f6"/>
          <rect id="Rectángulo_45242" data-name="Rectángulo 45242" width="6.177" height="6.177" transform="translate(0 13.126)" fill="#1894f6"/>
          <rect id="Rectángulo_45243" data-name="Rectángulo 45243" width="6.177" height="6.177" transform="translate(139.954)" fill="#1894f6"/>
          <rect id="Rectángulo_45244" data-name="Rectángulo 45244" width="6.177" height="6.177" transform="translate(126.828)" fill="#1894f6"/>
          <rect id="Rectángulo_45245" data-name="Rectángulo 45245" width="6.177" height="6.177" transform="translate(111.964)" fill="#1894f6"/>
          <rect id="Rectángulo_45246" data-name="Rectángulo 45246" width="6.177" height="6.177" transform="translate(97.968)" fill="#1894f6"/>
          <rect id="Rectángulo_45247" data-name="Rectángulo 45247" width="6.177" height="6.177" transform="translate(83.973)" fill="#1894f6"/>
          <rect id="Rectángulo_45248" data-name="Rectángulo 45248" width="6.177" height="6.177" transform="translate(69.977)" fill="#1894f6"/>
          <rect id="Rectángulo_45249" data-name="Rectángulo 45249" width="6.177" height="6.177" transform="translate(55.982)" fill="#1894f6"/>
          <rect id="Rectángulo_45250" data-name="Rectángulo 45250" width="6.177" height="6.177" transform="translate(41.986)" fill="#1894f6"/>
          <rect id="Rectángulo_45251" data-name="Rectángulo 45251" width="6.177" height="6.177" transform="translate(27.991)" fill="#1894f6"/>
          <rect id="Rectángulo_45252" data-name="Rectángulo 45252" width="6.177" height="6.177" transform="translate(13.126)" fill="#1894f6"/>
          <rect id="Rectángulo_45253" data-name="Rectángulo 45253" width="6.177" height="6.177" fill="#1894f6"/>
        </g>
      </g>
    </g>
    <g id="Grupo_154317" data-name="Grupo 154317" transform="translate(922.737 1624.692)">
      <g id="Grupo_154315" data-name="Grupo 154315" transform="translate(53.793 15.646)">
        <path id="Trazado_195058" data-name="Trazado 195058" d="M14.988,227.726H81.36a2.488,2.488,0,1,0,0-4.975H14.988a2.488,2.488,0,1,0,0,4.975" transform="translate(-12.5 -222.751)" fill="#3cafff"/>
        <path id="Trazado_195059" data-name="Trazado 195059" d="M84.949,227.726H101.7a2.488,2.488,0,1,0,0-4.975H84.949a2.488,2.488,0,1,0,0,4.975" transform="translate(-5.009 -222.751)" fill="#3cafff"/>
        <path id="Trazado_195064" data-name="Trazado 195064" d="M131.644,232.612H85.022a1.748,1.748,0,0,0,0,3.5h46.622a1.748,1.748,0,0,0,0-3.5" transform="translate(-4.922 -221.695)" fill="#3cafff"/>
        <path id="Trazado_195065" data-name="Trazado 195065" d="M79.13,232.612H67.361a1.748,1.748,0,0,0,0,3.5H79.13a1.748,1.748,0,1,0,0-3.5" transform="translate(-6.813 -221.695)" fill="#3cafff"/>
      </g>
      <g id="Grupo_154316" data-name="Grupo 154316">
        <path id="Trazado_195062" data-name="Trazado 195062" d="M193.258,1.333H114.9c-1.622,0-2.936.783-2.936,1.747s1.314,1.748,2.936,1.748h78.353c1.622,0,2.938-.783,2.938-1.748s-1.315-1.747-2.938-1.747" transform="translate(-60.887 -1.333)" fill="#7f4fc7"/>
        <path id="Trazado_195063" data-name="Trazado 195063" d="M129.623,1.333H98.873c-2.522,0-4.564.783-4.564,1.747s2.042,1.748,4.564,1.748h30.75c2.522,0,4.564-.783,4.564-1.748s-2.042-1.747-4.564-1.747" transform="translate(-94.309 -1.333)" fill="#7f4fc7"/>
      </g>
    </g>
    <g id="Grupo_154318" data-name="Grupo 154318" transform="translate(1226.712 1442.332)">
      <g id="Grupo_154315-2" data-name="Grupo 154315" transform="translate(38.286 11.135)">
        <path id="Trazado_195058-2" data-name="Trazado 195058" d="M14.271,226.292H61.51a1.771,1.771,0,1,0,0-3.541H14.271a1.771,1.771,0,1,0,0,3.541" transform="translate(-12.5 -222.751)" fill="#3cafff"/>
        <path id="Trazado_195059-2" data-name="Trazado 195059" d="M84.232,226.292H96.157a1.771,1.771,0,1,0,0-3.541H84.232a1.771,1.771,0,1,0,0,3.541" transform="translate(-27.336 -222.751)" fill="#3cafff"/>
        <path id="Trazado_195064-2" data-name="Trazado 195064" d="M117.7,232.612H84.518a1.244,1.244,0,0,0,0,2.488H117.7a1.244,1.244,0,0,0,0-2.488" transform="translate(-27.508 -224.842)" fill="#3cafff"/>
        <path id="Trazado_195065-2" data-name="Trazado 195065" d="M75.234,232.612H66.857a1.244,1.244,0,0,0,0,2.488h8.377a1.244,1.244,0,1,0,0-2.488" transform="translate(-23.763 -224.842)" fill="#3cafff"/>
      </g>
      <g id="Grupo_154316-2" data-name="Grupo 154316">
        <path id="Trazado_195062-2" data-name="Trazado 195062" d="M169.825,1.333H114.059c-1.155,0-2.09.557-2.09,1.243s.935,1.244,2.09,1.244h55.766c1.155,0,2.091-.557,2.091-1.244s-.936-1.243-2.091-1.243" transform="translate(-75.613 -1.333)" fill="#7f4fc7"/>
        <path id="Trazado_195063-2" data-name="Trazado 195063" d="M119.443,1.333H97.558c-1.8,0-3.249.557-3.249,1.243s1.453,1.244,3.249,1.244h21.886c1.8,0,3.249-.557,3.249-1.244s-1.453-1.243-3.249-1.243" transform="translate(-94.309 -1.333)" fill="#7f4fc7"/>
      </g>
    </g>
    <g id="Grupo_57889" data-name="Grupo 57889" transform="translate(1036.815 1442.75)">
      <rect id="Rectángulo_8383" data-name="Rectángulo 8383" width="150.161" height="205.758" transform="translate(0 16.328)" fill="#5e6178"/>
      <path id="Trazado_107293" data-name="Trazado 107293" d="M293.261,295.5H161.54V110.3H293.261V295.5Z" transform="translate(-149.038 -85.65)" fill="#839eb6"/>
      <path id="Trazado_107294" data-name="Trazado 107294" d="M290.628,290.562H160.09V106.34H290.628V290.562Z" transform="translate(-148.486 -84.142)" fill="#aed3f2"/>
      <g id="Grupo_57882" data-name="Grupo 57882" transform="translate(9.071 22.489)">
        <path id="Trazado_107295" data-name="Trazado 107295" d="M275.1,276.507l-15.034,12.241H156.16V107.09H287.881V266.155Z" transform="translate(-156.061 -106.917)" fill="#fafafa"/>
        <path id="Trazado_107296" data-name="Trazado 107296" d="M275.04,276.4s.266-.229.8-.669l2.409-1.969L287.789,266v.037c0-26.124-.049-84.21-.093-159.058l.149.149H156.124l.161-.161V288.63l-.13-.13,103.907.074h-.031l11.288-9.158,2.83-2.285.947-.755s-.3.266-.929.78l-2.811,2.3-11.331,9.226h0l-103.907.074H156V106.81H287.95v.142c-.031,74.9-.062,132.965-.062,159.108h0l-9.567,7.721-2.421,1.95C275.319,276.19,275.04,276.4,275.04,276.4Z" transform="translate(-156 -106.81)" fill="#344154"/>
      </g>
      <path id="Trazado_107297" data-name="Trazado 107297" d="M228.2,86.59h36.025a8.762,8.762,0,0,1,8.762,8.762v9.715H219.07V95.729A9.139,9.139,0,0,1,228.2,86.59Z" transform="translate(-170.946 -76.621)" fill="#7f4fc7"/>
      <path id="Trazado_107298" data-name="Trazado 107298" d="M239.179,80.459,237.21,70.49h31.04l-1.728,9.969Z" transform="translate(-177.854 -70.49)" fill="#7f4fc7"/>
      <g id="Grupo_57883" data-name="Grupo 57883" transform="translate(22.947 51.604)">
        <path id="Trazado_107299" data-name="Trazado 107299" d="M200.6,176.022H178.41V153.83H200.6Zm-21.573-.619h20.954V154.449H179.029Z" transform="translate(-178.41 -153.83)" fill="#7f4fc7"/>
        <path id="Trazado_107300" data-name="Trazado 107300" d="M298.457,162.391c0,.087-15.449.161-34.5.161s-34.5-.074-34.5-.161,15.443-.161,34.5-.161S298.457,162.3,298.457,162.391Z" transform="translate(-197.85 -157.029)" fill="#344154"/>
        <path id="Trazado_107301" data-name="Trazado 107301" d="M298.457,169.841c0,.087-15.449.161-34.5.161s-34.5-.074-34.5-.161,15.443-.161,34.5-.161S298.457,169.748,298.457,169.841Z" transform="translate(-197.85 -159.866)" fill="#344154"/>
        <path id="Trazado_107302" data-name="Trazado 107302" d="M298.457,177.281c0,.093-15.449.161-34.5.161s-34.5-.068-34.5-.161,15.443-.161,34.5-.161S298.457,177.194,298.457,177.281Z" transform="translate(-197.85 -162.699)" fill="#344154"/>
        <path id="Trazado_107303" data-name="Trazado 107303" d="M298.457,184.731c0,.087-15.449.161-34.5.161s-34.5-.074-34.5-.161,15.443-.161,34.5-.161S298.457,184.644,298.457,184.731Z" transform="translate(-197.85 -165.536)" fill="#344154"/>
      </g>
      <g id="Grupo_57884" data-name="Grupo 57884" transform="translate(22.947 85.808)">
        <path id="Trazado_107304" data-name="Trazado 107304" d="M200.6,231.262H178.41V209.07H200.6Zm-21.573-.619h20.954V209.689H179.029Z" transform="translate(-178.41 -209.07)" fill="#7f4fc7"/>
        <path id="Trazado_107305" data-name="Trazado 107305" d="M185.54,221.482l2.941-3.158,4.91,3.926,11.238-10.91,2.693,3.17-14.149,13.957Z" transform="translate(-181.125 -209.934)" fill="#7f4fc7"/>
        <path id="Trazado_107306" data-name="Trazado 107306" d="M298.457,217.621c0,.093-15.449.161-34.5.161s-34.5-.068-34.5-.161,15.443-.161,34.5-.161S298.457,217.534,298.457,217.621Z" transform="translate(-197.85 -212.265)" fill="#344154"/>
        <path id="Trazado_107307" data-name="Trazado 107307" d="M298.457,225.071c0,.087-15.449.161-34.5.161s-34.5-.074-34.5-.161,15.443-.161,34.5-.161S298.457,224.966,298.457,225.071Z" transform="translate(-197.85 -215.102)" fill="#344154"/>
        <path id="Trazado_107308" data-name="Trazado 107308" d="M298.457,232.521c0,.087-15.449.161-34.5.161s-34.5-.074-34.5-.161,15.443-.161,34.5-.161S298.457,232.428,298.457,232.521Z" transform="translate(-197.85 -217.939)" fill="#344154"/>
        <path id="Trazado_107309" data-name="Trazado 107309" d="M298.457,239.961c0,.093-15.449.161-34.5.161s-34.5-.068-34.5-.161,15.443-.161,34.5-.161S298.457,239.874,298.457,239.961Z" transform="translate(-197.85 -220.772)" fill="#344154"/>
      </g>
      <g id="Grupo_57885" data-name="Grupo 57885" transform="translate(22.947 118.904)">
        <path id="Trazado_107310" data-name="Trazado 107310" d="M200.6,284.706H178.41V262.52H200.6Zm-21.573-.619h20.954V263.139H179.029Z" transform="translate(-178.41 -262.52)" fill="#7f4fc7"/>
        <path id="Trazado_107311" data-name="Trazado 107311" d="M185.54,274.932l2.941-3.164,4.91,3.932,11.238-10.91,2.693,3.17-14.149,13.957Z" transform="translate(-181.125 -263.384)" fill="#7f4fc7"/>
        <path id="Trazado_107312" data-name="Trazado 107312" d="M298.457,271.071c0,.087-15.449.161-34.5.161s-34.5-.074-34.5-.161,15.443-.161,34.5-.161S298.457,270.966,298.457,271.071Z" transform="translate(-197.85 -265.715)" fill="#344154"/>
        <path id="Trazado_107313" data-name="Trazado 107313" d="M298.457,278.521c0,.087-15.449.161-34.5.161s-34.5-.074-34.5-.161,15.443-.161,34.5-.161S298.457,278.428,298.457,278.521Z" transform="translate(-197.85 -268.552)" fill="#344154"/>
        <path id="Trazado_107314" data-name="Trazado 107314" d="M298.457,285.967c0,.087-15.449.161-34.5.161s-34.5-.074-34.5-.161,15.443-.167,34.5-.167S298.457,285.874,298.457,285.967Z" transform="translate(-197.85 -271.385)" fill="#344154"/>
        <path id="Trazado_107315" data-name="Trazado 107315" d="M298.457,293.411c0,.093-15.449.161-34.5.161s-34.5-.068-34.5-.161,15.443-.161,34.5-.161S298.457,293.324,298.457,293.411Z" transform="translate(-197.85 -274.222)" fill="#344154"/>
      </g>
      <g id="Grupo_57886" data-name="Grupo 57886" transform="translate(22.947 150.854)">
        <path id="Trazado_107316" data-name="Trazado 107316" d="M200.6,336.337H178.41V314.12H200.6Zm-21.573-.619h20.954V314.739H179.029Z" transform="translate(-178.41 -314.12)" fill="#7f4fc7"/>
        <path id="Trazado_107317" data-name="Trazado 107317" d="M185.54,326.539l2.941-3.164,4.91,3.926,11.238-10.91,2.693,3.17-14.149,13.963Z" transform="translate(-181.125 -314.984)" fill="#7f4fc7"/>
        <path id="Trazado_107318" data-name="Trazado 107318" d="M298.457,322.681c0,.087-15.449.161-34.5.161s-34.5-.074-34.5-.161,15.443-.161,34.5-.161S298.457,322.588,298.457,322.681Z" transform="translate(-197.85 -317.319)" fill="#344154"/>
        <path id="Trazado_107319" data-name="Trazado 107319" d="M298.457,330.121c0,.093-15.449.161-34.5.161s-34.5-.068-34.5-.161,15.443-.161,34.5-.161S298.457,330.034,298.457,330.121Z" transform="translate(-197.85 -320.152)" fill="#344154"/>
        <path id="Trazado_107320" data-name="Trazado 107320" d="M298.457,337.571c0,.087-15.449.161-34.5.161s-34.5-.074-34.5-.161,15.443-.161,34.5-.161S298.457,337.484,298.457,337.571Z" transform="translate(-197.85 -322.989)" fill="#344154"/>
        <path id="Trazado_107321" data-name="Trazado 107321" d="M298.457,345.021c0,.087-15.449.161-34.5.161s-34.5-.074-34.5-.161,15.443-.161,34.5-.161S298.457,344.947,298.457,345.021Z" transform="translate(-197.85 -325.826)" fill="#344154"/>
      </g>
      <path id="Trazado_107322" data-name="Trazado 107322" d="M321.76,351.9l-14.44,29.907h10.31Z" transform="translate(-204.552 -177.653)" fill="#839eb6"/>
      <g id="Grupo_57887" data-name="Grupo 57887" transform="translate(113.077 174.191)">
        <path id="Trazado_107323" data-name="Trazado 107323" d="M323.97,382.077l4.13-29.907,23.684,7.313Z" transform="translate(-323.97 -351.947)" fill="#fafafa"/>
        <path id="Trazado_107324" data-name="Trazado 107324" d="M324,381.94l7.963-6.551c4.954-4.056,11.858-9.709,19.752-16.167l.05.272-9.139-2.817-14.539-4.5.2-.124c-1.238,8.669-2.3,16.1-3.053,21.418-.749,5.139-1.133,7.8-1.238,8.464a1.185,1.185,0,0,0,0-.13l.056-.415c.05-.39.118-.929.211-1.628.192-1.455.471-3.542.817-6.192l2.885-21.585v-.18l.173.056,14.539,4.477,9.189,2.848.285.087-.229.186-19.988,16.1-5.839,4.687-1.554,1.238-.4.316C324,381.915,324,381.946,324,381.94Z" transform="translate(-323.978 -351.81)" fill="#344154"/>
      </g>
      <g id="Grupo_57888" data-name="Grupo 57888" transform="translate(86.538 0)" opacity="0.3">
        <path id="Trazado_107325" data-name="Trazado 107325" d="M282.825,70.49l-1.715,9.969h2.13l1.728-9.969h-2.718" transform="translate(-281.11 -70.49)" fill="#7f4fc7"/>
      </g>
    </g>
    <g id="Grupo_57906" data-name="Grupo 57906" transform="translate(1002.373 1494.25)">
      <g id="Grupo_57890" data-name="Grupo 57890" transform="translate(14.401 4.728)">
        <path id="Trazado_107326" data-name="Trazado 107326" d="M133.892,218.239h0a5.29,5.29,0,0,0,5.69-5.073c.112-2.88.206-5.79.206-5.79s4.361-.406,4.7-4.7.17-14.284.17-14.284h0a15.036,15.036,0,0,0-15.2.976l.27,15.195v8.17C129.777,215.459,131.182,218.028,133.892,218.239Z" transform="translate(-120.373 -178.965)" fill="#ffbf9d"/>
        <path id="Trazado_107327" data-name="Trazado 107327" d="M138.615,194.814a2.21,2.21,0,0,0-2.939-.641,2.5,2.5,0,0,0-.835,3.133,3.309,3.309,0,0,0,2.116,1.6,1.658,1.658,0,0,1,1.3,1.763,5.5,5.5,0,0,1-1.517,3.01,7.953,7.953,0,0,1-5,2.351c-1.84.217-3.944-.165-5.014-1.675a6.885,6.885,0,0,1-.864-3.885l-.194-9.546a13.636,13.636,0,0,1,.217-3.427,4.614,4.614,0,0,1,1.8-2.833,13.923,13.923,0,0,1,3.58-1.134,29.335,29.335,0,0,0,4.162-2.193,5.105,5.105,0,0,1,4.514-.435c1.011.506,1.687,1.511,2.669,2.069,1.393.794,3.292.588,3.974,2.663a3.556,3.556,0,0,1,0,2.2,5.079,5.079,0,0,1-6.9,2.71,6.847,6.847,0,0,1-.076,3.021c-.165.476-.217,1.2-.964,1.217" transform="translate(-118.8 -176.394)" fill="#344154"/>
        <path id="Trazado_107328" data-name="Trazado 107328" d="M122.314,183.016a14.46,14.46,0,0,0,1.387-4.332,4.955,4.955,0,0,0-1.358-4.191,4.062,4.062,0,0,0-2.845-1.005,4.8,4.8,0,0,0-4.338,3.433,5.19,5.19,0,0,0,1.763,5.29,5.613,5.613,0,0,0,5.59.729" transform="translate(-114.414 -173.484)" fill="#344154"/>
        <path id="Trazado_107329" data-name="Trazado 107329" d="M127.456,187a1.693,1.693,0,0,1-.641,1.393,1.669,1.669,0,0,1-1.4.588,9.732,9.732,0,0,0,1.176-.817A6.633,6.633,0,0,0,127.456,187Z" transform="translate(-118.703 -179.055)" fill="#7f4fc7"/>
        <path id="Trazado_107330" data-name="Trazado 107330" d="M123.016,186.067a4.115,4.115,0,0,1-1.176.858,3.356,3.356,0,0,1-1.546.435,2.151,2.151,0,0,1-1.8-.805,2.41,2.41,0,0,1-.317-1.952,3.7,3.7,0,0,1,.729-1.428,4.584,4.584,0,0,1,1.017-1.035,12.847,12.847,0,0,1-.846,1.176,3.85,3.85,0,0,0-.623,1.364,2.2,2.2,0,0,0,.288,1.711,1.893,1.893,0,0,0,1.558.705,3.363,3.363,0,0,0,1.446-.347C122.534,186.349,122.987,186.019,123.016,186.067Z" transform="translate(-115.686 -177.052)" fill="#344154"/>
        <path id="Trazado_107331" data-name="Trazado 107331" d="M114,194.043a2.35,2.35,0,0,1,.212.482,4.908,4.908,0,0,0,.635,1.229,1.763,1.763,0,0,0,1.687.776,2.3,2.3,0,0,0,1.628-1.634,16.564,16.564,0,0,0,.441-2.51,3.868,3.868,0,0,1,.823-1.975,2.122,2.122,0,0,1,1.258-.717.852.852,0,0,1,.529.041c0,.029-.188,0-.506.076a2.1,2.1,0,0,0-1.117.741,3.838,3.838,0,0,0-.705,1.881,15.582,15.582,0,0,1-.435,2.563,2.563,2.563,0,0,1-1.863,1.816,1.7,1.7,0,0,1-1.176-.229,2.522,2.522,0,0,1-.746-.7,4.285,4.285,0,0,1-.588-1.323,1.763,1.763,0,0,1-.076-.517Z" transform="translate(-114 -180.155)" fill="#344154"/>
      </g>
      <path id="Trazado_107332" data-name="Trazado 107332" d="M109.695,258.793s-2.2,16.118,0,18.157a4.625,4.625,0,0,0,4.32,1.37l4.185-3.527.829-16.023Z" transform="translate(-97.421 -203.91)" fill="#ffbf9d"/>
      <g id="Grupo_57891" data-name="Grupo 57891" transform="translate(47.107 0)">
        <path id="Trazado_107333" data-name="Trazado 107333" d="M187.84,175.074l2.792-3,4.661,3.733,10.669-10.363,2.557,3.015L195.088,181.7Z" transform="translate(-177.142 -165.44)" fill="#7f4fc7"/>
        <path id="Trazado_107334" data-name="Trazado 107334" d="M193.475,183.22l-4.056,2.6c-.182-1.6-1.4-3.192-1.34-2.386s0,4.985,0,4.985l-7.23,15.242a7.211,7.211,0,0,1-4.461,4.285l-6.748,2.01,2.639,8.923,9.4-3.109a8.106,8.106,0,0,0,5.143-5.161l6.466-19.7a30.3,30.3,0,0,0,1.046-3.885A7.634,7.634,0,0,0,193.475,183.22Z" transform="translate(-169.64 -172.769)" fill="#ffbf9d"/>
      </g>
      <g id="Grupo_57895" data-name="Grupo 57895" transform="translate(29.096 172.391)">
        <g id="Grupo_57893" data-name="Grupo 57893" transform="translate(0.059)">
          <path id="Trazado_107335" data-name="Trazado 107335" d="M147.658,463.234l-.1-4.514-8.458.165.082,6.607h.523c2.351.094,11.88.306,13.431-.194C154.865,464.763,147.658,463.234,147.658,463.234Z" transform="translate(-139.1 -458.72)" fill="#7f4fc7"/>
          <g id="Grupo_57892" data-name="Grupo 57892" transform="translate(0.053 4.269)" opacity="0.5">
            <path id="Trazado_107336" data-name="Trazado 107336" d="M142.282,468.344a2.939,2.939,0,0,0-1.111-1.763,2.833,2.833,0,0,0-1.981-.588l.035,2.351Z" transform="translate(-139.19 -465.983)" fill="#fff"/>
          </g>
        </g>
        <g id="Grupo_57894" data-name="Grupo 57894" transform="translate(0.141 5.373)" opacity="0.4">
          <path id="Trazado_107337" data-name="Trazado 107337" d="M151.237,467.86s2.533.688,2.222,1.105-9.957.588-14.219.265v-.194l11.262-.076S150.749,467.889,151.237,467.86Z" transform="translate(-139.24 -467.86)" fill="#fff"/>
        </g>
        <path id="Trazado_107338" data-name="Trazado 107338" d="M139,469.7h.564l1.534.047c1.3,0,3.092.035,5.079,0s3.774-.094,5.073-.159l1.534-.088.417-.029h-.417l-1.54.053c-1.3.047-3.092.1-5.073.129s-3.774.029-5.073,0H139Z" transform="translate(-139 -463.151)" fill="#344154"/>
        <path id="Trazado_107339" data-name="Trazado 107339" d="M158.406,469.068a3.524,3.524,0,0,1,.276-.741,3.2,3.2,0,0,1,.517-.588,1.093,1.093,0,0,0-.588.541A1.176,1.176,0,0,0,158.406,469.068Z" transform="translate(-146.997 -462.438)" fill="#344154"/>
        <path id="Trazado_107340" data-name="Trazado 107340" d="M154.127,467.371a1.073,1.073,0,0,0,.265-.329c.123-.194.2-.37.176-.382s-.141.129-.265.329S154.1,467.353,154.127,467.371Z" transform="translate(-145.234 -461.992)" fill="#344154"/>
        <path id="Trazado_107341" data-name="Trazado 107341" d="M152.994,466.929a1.211,1.211,0,0,0,.294-.206c.141-.135.247-.253.229-.276s-.153.071-.3.206S152.953,466.906,152.994,466.929Z" transform="translate(-144.765 -461.904)" fill="#344154"/>
        <path id="Trazado_107342" data-name="Trazado 107342" d="M152.2,465.759a.97.97,0,0,0,.441.053.229.229,0,1,0,0-.106A1.205,1.205,0,0,0,152.2,465.759Z" transform="translate(-144.441 -461.527)" fill="#344154"/>
        <path id="Trazado_107343" data-name="Trazado 107343" d="M151.94,465a.87.87,0,0,0,.494.135.835.835,0,0,0,.506-.076,2.94,2.94,0,0,0-.5,0,2.5,2.5,0,0,0-.5-.059Z" transform="translate(-144.334 -461.309)" fill="#344154"/>
        <path id="Trazado_107344" data-name="Trazado 107344" d="M154.6,466.076a1.731,1.731,0,0,0,.547,0,3.388,3.388,0,0,0,.588-.141,1.292,1.292,0,0,0,.329-.141.282.282,0,0,0,.129-.171.206.206,0,0,0-.082-.212.993.993,0,0,0-1.229.306.929.929,0,0,0-.17.365v.147a1.481,1.481,0,0,1,.235-.464,1.011,1.011,0,0,1,.464-.312.852.852,0,0,1,.647.035c.088.065.053.165-.041.223a1.421,1.421,0,0,1-.306.135,3.177,3.177,0,0,1-.553.153C154.835,466.052,154.6,466.058,154.6,466.076Z" transform="translate(-145.43 -461.438)" fill="#344154"/>
        <path id="Trazado_107345" data-name="Trazado 107345" d="M154.334,465.916a.511.511,0,0,0,.059-.382.923.923,0,0,0-.153-.394.588.588,0,0,0-.458-.27.223.223,0,0,0-.165.259.635.635,0,0,0,.1.241,1.681,1.681,0,0,0,.259.323.741.741,0,0,0,.312.212,3.614,3.614,0,0,1-.259-.264,1.924,1.924,0,0,1-.235-.323c-.076-.112-.129-.317,0-.341s.276.118.364.223a.888.888,0,0,1,.159.353,2.157,2.157,0,0,1,.018.364Z" transform="translate(-145.023 -461.255)" fill="#344154"/>
        <path id="Trazado_107346" data-name="Trazado 107346" d="M139.26,465.841a3.477,3.477,0,0,1,.623,0,2.715,2.715,0,0,1,1.375.541,2.827,2.827,0,0,1,.87,1.176c.135.364.147.588.17.588a.546.546,0,0,0,0-.17,2.041,2.041,0,0,0-.1-.459,2.652,2.652,0,0,0-.876-1.246,2.61,2.61,0,0,0-1.428-.529,2.191,2.191,0,0,0-.464,0,.53.53,0,0,0-.17.1Z" transform="translate(-139.107 -461.609)" fill="#344154"/>
        <path id="Trazado_107347" data-name="Trazado 107347" d="M140.622,459.91a15.1,15.1,0,0,0-.047,1.763,13.474,13.474,0,0,0,.059,1.734,15.963,15.963,0,0,0,.041-1.734A14.267,14.267,0,0,0,140.622,459.91Z" transform="translate(-139.646 -459.211)" fill="#344154"/>
        <path id="Trazado_107348" data-name="Trazado 107348" d="M146.24,468.546a5.136,5.136,0,0,0,1.234.106,4.614,4.614,0,0,0,1.234-.123h-1.234A10.769,10.769,0,0,0,146.24,468.546Z" transform="translate(-141.984 -462.762)" fill="#344154"/>
        <path id="Trazado_107349" data-name="Trazado 107349" d="M143.42,468.6s.047.118.106.241.088.235.118.235.041-.135,0-.276S143.438,468.574,143.42,468.6Z" transform="translate(-140.822 -462.79)" fill="#344154"/>
        <path id="Trazado_107350" data-name="Trazado 107350" d="M142.34,467.288a.506.506,0,0,0,.123.194c.088.082.176.141.194.123s-.035-.106-.123-.194S142.358,467.27,142.34,467.288Z" transform="translate(-140.377 -462.25)" fill="#344154"/>
        <path id="Trazado_107351" data-name="Trazado 107351" d="M140.809,466.674c0,.029.118.029.241.071s.217.106.235.082-.047-.129-.206-.182S140.8,466.651,140.809,466.674Z" transform="translate(-139.746 -461.978)" fill="#344154"/>
        <path id="Trazado_107352" data-name="Trazado 107352" d="M139.72,466.428c0,.029.041.07.112.1a.206.206,0,0,0,.141,0,.2.2,0,0,0-.106-.094C139.8,466.4,139.732,466.4,139.72,466.428Z" transform="translate(-139.297 -461.89)" fill="#344154"/>
      </g>
      <g id="Grupo_57899" data-name="Grupo 57899" transform="translate(0 166.56)">
        <g id="Grupo_57897" data-name="Grupo 57897">
          <path id="Trazado_107353" data-name="Trazado 107353" d="M97.377,457.7l2.868-3.486-6.5-5.414L89.5,453.861l.382.359c1.711,1.593,8.817,7.976,10.3,8.617C101.862,463.542,97.377,457.7,97.377,457.7Z" transform="translate(-89.5 -448.8)" fill="#7f4fc7"/>
          <g id="Grupo_57896" data-name="Grupo 57896" transform="translate(0.082 3.133)" opacity="0.5">
            <path id="Trazado_107354" data-name="Trazado 107354" d="M91.956,457.968a2.939,2.939,0,0,0,.323-2.075,2.863,2.863,0,0,0-1.123-1.763l-1.517,1.816Z" transform="translate(-89.64 -454.13)" fill="#fff"/>
          </g>
        </g>
        <g id="Grupo_57898" data-name="Grupo 57898" transform="translate(0 4.92)" opacity="0.4">
          <path id="Trazado_107355" data-name="Trazado 107355" d="M99.487,464.124s1.47,2.169.964,2.287-7.918-6.09-10.951-9.1l.129-.141,8.588,7.289S99.1,463.8,99.487,464.124Z" transform="translate(-89.5 -457.17)" fill="#fff"/>
        </g>
        <path id="Trazado_107356" data-name="Trazado 107356" d="M89.55,457l.106.106.3.288,1.14,1.035c.97.87,2.322,2.046,3.838,3.321s2.939,2.387,3.95,3.186l1.223.935.335.247a.48.48,0,0,0,.123.082l-.112-.094c-.094-.082-.2-.171-.323-.265l-1.176-.964c-1.017-.811-2.41-1.94-3.932-3.209s-2.874-2.439-3.856-3.292l-1.176-1.011-.317-.27A.59.59,0,0,0,89.55,457Z" transform="translate(-89.521 -452.18)" fill="#344154"/>
        <path id="Trazado_107357" data-name="Trazado 107357" d="M104.18,469.341a3.456,3.456,0,0,1,.694-.382,3.307,3.307,0,0,1,.776-.112,1.123,1.123,0,0,0-.811,0,1.176,1.176,0,0,0-.658.494Z" transform="translate(-95.551 -457.032)" fill="#344154"/>
        <path id="Trazado_107358" data-name="Trazado 107358" d="M102.3,465.189a1,1,0,0,0,.417-.082c.217-.07.388-.147.376-.176a.981.981,0,0,0-.411.082C102.464,465.083,102.294,465.159,102.3,465.189Z" transform="translate(-94.776 -455.449)" fill="#344154"/>
        <path id="Trazado_107359" data-name="Trazado 107359" d="M101.8,464.1c0,.029.165.047.359.035s.353-.035.353-.065a.752.752,0,0,0-.359-.035C101.959,464.04,101.8,464.07,101.8,464.1Z" transform="translate(-94.57 -455.076)" fill="#344154"/>
        <path id="Trazado_107360" data-name="Trazado 107360" d="M102.11,462.63a1.991,1.991,0,0,0,.3.329c.182.159.353.27.37.247s-.118-.17-.3-.323A1.177,1.177,0,0,0,102.11,462.63Z" transform="translate(-94.698 -454.501)" fill="#344154"/>
        <path id="Trazado_107361" data-name="Trazado 107361" d="M102.53,461.739a.847.847,0,0,0,.282.423.893.893,0,0,0,.435.276,3.546,3.546,0,0,0-.364-.353C102.683,461.892,102.554,461.721,102.53,461.739Z" transform="translate(-94.871 -454.133)" fill="#344154"/>
        <path id="Trazado_107362" data-name="Trazado 107362" d="M103.459,464.612a1.646,1.646,0,0,0,.423.341,3.286,3.286,0,0,0,.523.276,1.759,1.759,0,0,0,.341.106.311.311,0,0,0,.212-.041.223.223,0,0,0,.076-.223.993.993,0,0,0-1.134-.588.965.965,0,0,0-.364.165c-.076.059-.112.1-.106.106a1.57,1.57,0,0,1,.488-.2.964.964,0,0,1,.547.065.864.864,0,0,1,.47.453.135.135,0,0,1-.176.141,1.512,1.512,0,0,1-.317-.094,3.385,3.385,0,0,1-.523-.247C103.629,464.73,103.471,464.595,103.459,464.612Z" transform="translate(-95.241 -455.255)" fill="#344154"/>
        <path id="Trazado_107363" data-name="Trazado 107363" d="M103.549,464.076a.569.569,0,0,0,.288-.247.946.946,0,0,0,.141-.4.588.588,0,0,0-.17-.505.218.218,0,0,0-.288.088.588.588,0,0,0-.088.247,1.693,1.693,0,0,0,0,.417.723.723,0,0,0,.1.364s0-.141,0-.37a1.985,1.985,0,0,1,.035-.394c0-.141.112-.329.229-.259a.482.482,0,0,1,.129.406.888.888,0,0,1-.112.37A1.652,1.652,0,0,1,103.549,464.076Z" transform="translate(-95.237 -454.612)" fill="#344154"/>
        <path id="Trazado_107364" data-name="Trazado 107364" d="M92.3,454.189a3.1,3.1,0,0,1,.464.417,2.645,2.645,0,0,1,.588,2.774,5.292,5.292,0,0,1-.265.588.865.865,0,0,0,.112-.129,2.081,2.081,0,0,0,.223-.412,2.58,2.58,0,0,0-.588-2.851,2.3,2.3,0,0,0-.364-.288C92.359,454.207,92.306,454.184,92.3,454.189Z" transform="translate(-90.654 -451.021)" fill="#344154"/>
        <path id="Trazado_107365" data-name="Trazado 107365" d="M95.693,450.55a13.43,13.43,0,0,0-1.176,1.287,14.32,14.32,0,0,0-1.087,1.352,16.136,16.136,0,0,0,1.176-1.287,15.053,15.053,0,0,0,1.087-1.352Z" transform="translate(-91.12 -449.521)" fill="#344154"/>
        <path id="Trazado_107366" data-name="Trazado 107366" d="M95.87,460.74a4.532,4.532,0,0,0,.87.888,4.773,4.773,0,0,0,1.011.711s-.429-.353-.946-.794S95.888,460.722,95.87,460.74Z" transform="translate(-92.126 -453.721)" fill="#344154"/>
        <path id="Trazado_107367" data-name="Trazado 107367" d="M93.6,458.93l-.076.253c-.041.135-.088.241-.065.259s.123-.076.165-.229S93.626,458.924,93.6,458.93Z" transform="translate(-91.128 -452.975)" fill="#344154"/>
        <path id="Trazado_107368" data-name="Trazado 107368" d="M93.717,457.24a.361.361,0,0,0,0,.229c.041.129.041.217.071.217s.041-.106,0-.229S93.747,457.234,93.717,457.24Z" transform="translate(-91.231 -452.279)" fill="#344154"/>
        <path id="Trazado_107369" data-name="Trazado 107369" d="M93,455.794a1.6,1.6,0,0,1,.141.212c.065.118.094.217.123.217s.053-.135-.035-.276S93,455.764,93,455.794Z" transform="translate(-90.943 -451.679)" fill="#344154"/>
        <path id="Trazado_107370" data-name="Trazado 107370" d="M92.31,454.887v.141a.109.109,0,0,0,.112.094c.024-.012,0-.076,0-.141S92.334,454.87,92.31,454.887Z" transform="translate(-90.658 -451.308)" fill="#344154"/>
      </g>
      <g id="Grupo_57900" data-name="Grupo 57900" transform="translate(0.711 76.156)">
        <path id="Trazado_107371" data-name="Trazado 107371" d="M115.468,302.885s-2.81,11.909-2.016,14.266,5.954,3.721,5.954,3.721l-.176,32.611L90.71,388.751l10.533,8.617s30.877-35.327,33.6-41.734-1.734-53.284-1.734-53.284Z" transform="translate(-90.71 -298.03)" fill="#344154"/>
        <path id="Trazado_107372" data-name="Trazado 107372" d="M140.907,295l1.4,99.062-14.507.071-7.289-80.676h0c-1.54-1.47-3.7-3.991-3.409-9.6l.359-6.519Z" transform="translate(-101.577 -295)" fill="#344154"/>
        <path id="Trazado_107373" data-name="Trazado 107373" d="M131.59,370.033s0-.053.082-.147l.276-.406,1.082-1.528,3.932-5.449v.076c-.317-3.439-.7-7.612-1.111-12.109-.529-5.878-.952-11.227-1.205-15.095-.129-1.934-.212-3.527-.259-4.585,0-.517-.029-.935-.041-1.246a2.218,2.218,0,0,1,0-.435,2.08,2.08,0,0,1,.053.429c0,.317.059.729.1,1.246.088,1.111.212,2.669.359,4.573.306,3.862.764,9.2,1.293,15.089.394,4.508.8,8.676,1.058,12.126v.076l-4.026,5.384-1.129,1.487-.306.388A.777.777,0,0,1,131.59,370.033Z" transform="translate(-107.561 -309.06)" fill="#5e6178"/>
        <path id="Trazado_107374" data-name="Trazado 107374" d="M133.849,327.985A19.579,19.579,0,0,1,130,327.4a19.843,19.843,0,0,1-3.744-1.017,31.941,31.941,0,0,1,3.809.717,31.748,31.748,0,0,1,3.78.888Z" transform="translate(-105.364 -307.935)" fill="#5e6178"/>
        <path id="Trazado_107375" data-name="Trazado 107375" d="M150.5,385.693a11.643,11.643,0,0,0-7.953-.629,3.415,3.415,0,0,1,1.134-.441,8.893,8.893,0,0,1,5.766.458A3.3,3.3,0,0,1,150.5,385.693Z" transform="translate(-112.078 -331.827)" fill="#5e6178"/>
        <path id="Trazado_107376" data-name="Trazado 107376" d="M151.824,394.45c.071.053-4.015,5.531-9.117,12.238s-9.287,12.1-9.358,12.05,4.015-5.531,9.117-12.238S151.759,394.4,151.824,394.45Z" transform="translate(-108.285 -335.993)" fill="#5e6178"/>
        <path id="Trazado_107377" data-name="Trazado 107377" d="M156.312,306.98a2.5,2.5,0,0,1-.817,1.076,4.038,4.038,0,0,1-5.907-.623A2.445,2.445,0,0,1,149,306.21a12.706,12.706,0,0,0,.741,1.087,4.032,4.032,0,0,0,5.614.588C156,307.4,156.265,306.945,156.312,306.98Z" transform="translate(-114.737 -299.621)" fill="#5e6178"/>
      </g>
      <path id="Trazado_107378" data-name="Trazado 107378" d="M124.951,208.444a12.655,12.655,0,0,1-.688-17.634" transform="translate(-102.491 -175.897)" fill="#344154"/>
      <g id="Grupo_57905" data-name="Grupo 57905" transform="translate(10.504 35.086)">
        <g id="Grupo_57904" data-name="Grupo 57904">
          <path id="Trazado_107379" data-name="Trazado 107379" d="M111.179,236.53s-3.157,3.562-3.809,17.182c0,0,8.982,1.7,9.14,1.211S111.179,236.53,111.179,236.53Z" transform="translate(-107.37 -229.829)" fill="#7f4fc7"/>
          <g id="Grupo_57901" data-name="Grupo 57901" transform="translate(0 6.701)" opacity="0.3">
            <path id="Trazado_107380" data-name="Trazado 107380" d="M111.179,236.53s-3.157,3.562-3.809,17.182c0,0,8.982,1.7,9.14,1.211S111.179,236.53,111.179,236.53Z" transform="translate(-107.37 -236.53)" fill="#7f4fc7"/>
          </g>
          <g id="Grupo_57903" data-name="Grupo 57903" transform="translate(2.842)">
            <path id="Trazado_107381" data-name="Trazado 107381" d="M114.624,271.49h27.562l-.447-4.3s-3.151-16.382-3.127-16.6l.5-1.04a10.41,10.41,0,0,0,.118-8.67h0l13.519-4.614-3.3-11.133c-6.125,1.035-15.383,2.187-15.383,2.187l-1.375.118s-9.558.494-9.758.523c-4,.482-8.652.788-10.351,5.067-.911,2.287-.047,5.719,1.44,9.258l3.527,10.874c1.411,5.978-.841,5.7-2.075,11.709C115.265,265.782,114.606,270.661,114.624,271.49Z" transform="translate(-112.205 -225.13)" fill="#7f4fc7"/>
            <g id="Grupo_57902" data-name="Grupo 57902" opacity="0.3">
              <path id="Trazado_107382" data-name="Trazado 107382" d="M114.624,271.49h27.562l-.447-4.3s-3.151-16.382-3.127-16.6l.5-1.04a10.41,10.41,0,0,0,.118-8.67h0l13.519-4.614-3.3-11.133c-6.125,1.035-15.383,2.187-15.383,2.187l-1.375.118s-9.558.494-9.758.523c-4,.482-8.652.788-10.351,5.067-.911,2.287-.047,5.719,1.44,9.258l3.527,10.874c1.411,5.978-.841,5.7-2.075,11.709C115.265,265.782,114.606,270.661,114.624,271.49Z" transform="translate(-112.205 -225.13)" fill="#7f4fc7"/>
            </g>
          </g>
          <path id="Trazado_107383" data-name="Trazado 107383" d="M170.081,244.39a2.476,2.476,0,0,1-.588.253c-.394.141-.964.341-1.669.588-1.411.476-3.368,1.111-5.531,1.8s-4.115,1.381-5.472,1.952c-.688.276-1.234.523-1.622.688a2.35,2.35,0,0,1-.588.235,2.4,2.4,0,0,1,.547-.341c.37-.2.905-.476,1.587-.782a52.2,52.2,0,0,1,5.467-2.04c2.163-.694,4.115-1.293,5.561-1.716.711-.212,1.293-.376,1.7-.482A2.686,2.686,0,0,1,170.081,244.39Z" transform="translate(-126.842 -233.069)" fill="#344154"/>
        </g>
        <path id="Trazado_107384" data-name="Trazado 107384" d="M152.644,234.193c0,.088-8.147.153-18.222.153s-18.222-.065-18.222-.153,8.147-.153,18.222-.153S152.644,234.111,152.644,234.193Z" transform="translate(-111.01 -228.803)" fill="#fafafa"/>
        <path id="Trazado_107385" data-name="Trazado 107385" d="M151.226,243.4c0,.088-9.07.153-20.25.153s-20.256-.065-20.256-.153,9.064-.153,20.256-.153S151.226,243.321,151.226,243.4Z" transform="translate(-108.751 -232.599)" fill="#fafafa"/>
        <path id="Trazado_107386" data-name="Trazado 107386" d="M112.194,253.88a9.387,9.387,0,0,1-3.374,0,9.385,9.385,0,0,1,3.374,0Z" transform="translate(-107.968 -236.91)" fill="#fafafa"/>
        <path id="Trazado_107387" data-name="Trazado 107387" d="M141.046,254.2c0,.082-5.931.153-13.243.153s-13.243-.071-13.243-.153,5.931-.153,13.243-.153S141.046,254.121,141.046,254.2Z" transform="translate(-110.334 -237.051)" fill="#fafafa"/>
        <path id="Trazado_107388" data-name="Trazado 107388" d="M141.957,265c0,.082-5.29.153-11.885.153s-11.891-.071-11.891-.153,5.326-.153,11.891-.153S141.957,264.938,141.957,265Z" transform="translate(-111.826 -241.502)" fill="#fafafa"/>
        <path id="Trazado_107389" data-name="Trazado 107389" d="M143.229,275c0,.082-4.826.153-10.774.153s-10.774-.071-10.774-.153,4.82-.153,10.774-.153S143.229,274.938,143.229,275Z" transform="translate(-113.269 -245.624)" fill="#fafafa"/>
        <path id="Trazado_107390" data-name="Trazado 107390" d="M143.774,283.1c0,.082-5.161.153-11.527.153s-11.527-.071-11.527-.153,5.161-.153,11.527-.153S143.774,283.015,143.774,283.1Z" transform="translate(-112.873 -248.963)" fill="#fafafa"/>
        <path id="Trazado_107391" data-name="Trazado 107391" d="M144.092,293.423c0,.082-5.878.153-13.114.153s-13.108-.071-13.108-.153,5.878-.153,13.108-.153S144.092,293.335,144.092,293.423Z" transform="translate(-111.698 -253.217)" fill="#fafafa"/>
        <path id="Trazado_107392" data-name="Trazado 107392" d="M117.579,262.017a2.192,2.192,0,0,1-.247-.541c-.159-.423-.353-.923-.588-1.5-.488-1.276-1.176-3.027-1.881-4.979s-1.3-3.744-1.669-5.061c-.182-.658-.323-1.176-.4-1.564a1.963,1.963,0,0,1-.094-.588c.041,0,.282.8.705,2.087s1.035,3.068,1.763,5.02,1.364,3.715,1.763,5.008c.223.647.388,1.176.494,1.54a2.565,2.565,0,0,1,.153.582Z" transform="translate(-109.567 -234.466)" fill="#344154"/>
      </g>
    </g>
    <g id="Grupo_154733" data-name="Grupo 154733" transform="translate(-11.735 34.306)">
      <path id="Trazado_109272" data-name="Trazado 109272" d="M907.617,340.421S892.841,351.673,907,366.55a1.292,1.292,0,0,0,.931.39l129.144-.731s11.012-12.364,1.872-26.61Z" transform="translate(324.36 1203.54)" fill="#ebebeb"/>
      <path id="Trazado_109273" data-name="Trazado 109273" d="M1008.45,352.18c0,.14-16.078.26-35.9.26s-35.9-.12-35.9-.26,16.018-.26,35.9-.26S1008.45,352,1008.45,352.18Z" transform="translate(324.4 1203.554)" fill="#e0e0e0"/>
      <path id="Trazado_109274" data-name="Trazado 109274" d="M988.348,356.82c0,.14-7.548.26-16.879.26s-16.879-.12-16.879-.26,7.558-.26,16.879-.26S988.348,356.68,988.348,356.82Z" transform="translate(324.42 1203.559)" fill="#e0e0e0"/>
      <path id="Trazado_109275" data-name="Trazado 109275" d="M1021.55,365.78c-.08,0,.29-1.482.691-3.874a53.712,53.712,0,0,0-.18-18.821c-.44-2.383-.841-3.834-.761-3.864a3.906,3.906,0,0,1,.38,1c.21.641.471,1.6.741,2.793a45.842,45.842,0,0,1,.18,18.961c-.25,1.191-.491,2.152-.691,2.8a4.609,4.609,0,0,1-.36,1Z" transform="translate(324.494 1203.54)" fill="#e0e0e0"/>
      <path id="Trazado_109276" data-name="Trazado 109276" d="M1031.18,339.42a4.726,4.726,0,0,1,.571.941,9.552,9.552,0,0,1,.581,1.151c.2.461.45,1,.651,1.582a26.5,26.5,0,0,1,1.232,4.285,29.9,29.9,0,0,1,.56,5.426,31.111,31.111,0,0,1-.47,5.446,27.893,27.893,0,0,1-1.161,4.3c-.19.6-.44,1.121-.63,1.582a10.515,10.515,0,0,1-.561,1.171,4.109,4.109,0,0,1-.561.941c-.09,0,.631-1.432,1.4-3.814a32.95,32.95,0,0,0,1-4.265,31.031,31.031,0,0,0-.09-10.7,30.5,30.5,0,0,0-1.1-4.255C1031.831,340.842,1031.09,339.46,1031.18,339.42Z" transform="translate(324.505 1203.54)" fill="#e0e0e0"/>
      <path id="Trazado_109277" data-name="Trazado 109277" d="M927.914,365.948a3.917,3.917,0,0,1-.6-.861,8.206,8.206,0,0,1-.6-1.081,14.2,14.2,0,0,1-.691-1.482,22.573,22.573,0,0,1-1.261-4.075,25.889,25.889,0,0,1-.5-5.2,26.537,26.537,0,0,1,.641-5.186,22.218,22.218,0,0,1,1.371-4,11.169,11.169,0,0,1,.731-1.472,7.032,7.032,0,0,1,.631-1.061,4,4,0,0,1,.621-.841c.09,0-.741,1.3-1.642,3.514a24.1,24.1,0,0,0-1.241,4,24.939,24.939,0,0,0,1,14.186C927.253,364.627,928,365.9,927.914,365.948Z" transform="translate(324.386 1203.542)" fill="#e0e0e0"/>
      <path id="Trazado_109278" data-name="Trazado 109278" d="M914,369.1a5.419,5.419,0,0,1-.661-1,12.041,12.041,0,0,1-.681-1.211c-.23-.491-.531-1-.781-1.662a28.6,28.6,0,0,1-1.732-16.238,27.154,27.154,0,0,1,1.271-4.615c.22-.651.49-1.2.711-1.7a11.009,11.009,0,0,1,.621-1.241,4.287,4.287,0,0,1,.621-1c.09,0-.741,1.512-1.6,4.065a30.044,30.044,0,0,0-1.151,4.575,32.57,32.57,0,0,0-.42,5.756,33.613,33.613,0,0,0,.681,5.736,31.265,31.265,0,0,0,1.342,4.525C913.234,367.62,914.125,369.032,914,369.1Z" transform="translate(324.369 1203.541)" fill="#e0e0e0"/>
      <path id="Trazado_109279" data-name="Trazado 109279" d="M1032.193,405.43v24.708h-47.8V405.43Z" transform="translate(324.453 1203.614)" fill="#ebebeb"/>
      <path id="Trazado_109280" data-name="Trazado 109280" d="M877.91,418.017v.651a14.166,14.166,0,0,0,14.216,13.255h142.359v-1.782h-33.738a12.354,12.354,0,0,1-12.354-12.354h0a12.344,12.344,0,0,1,12.354-12.354h33.788V402.81l-142.4.481A14.236,14.236,0,0,0,877.9,417.546C877.9,417.7,877.9,417.857,877.91,418.017Z" transform="translate(324.334 1203.611)" fill="#e0e0e0"/>
      <path id="Trazado_109281" data-name="Trazado 109281" d="M1032.189,418.1c0,.14-9.831.26-21.954.26s-21.944-.12-21.944-.26,9.821-.26,21.944-.26S1032.189,418,1032.189,418.1Z" transform="translate(324.457 1203.628)" fill="#e0e0e0"/>
      <path id="Trazado_109282" data-name="Trazado 109282" d="M1031.5,423.66c0,.14-9.3.26-20.773.26S990,423.8,990,423.66s9.3-.26,20.773-.26S1031.5,423.52,1031.5,423.66Z" transform="translate(324.459 1203.634)" fill="#e0e0e0"/>
      <path id="Trazado_109283" data-name="Trazado 109283" d="M1032.182,428.75c0,.14-8.359.26-18.671.26s-18.681-.12-18.681-.26,8.359-.27,18.681-.27S1032.182,428.6,1032.182,428.75Z" transform="translate(324.465 1203.64)" fill="#e0e0e0"/>
      <path id="Trazado_109284" data-name="Trazado 109284" d="M1032.188,413.1c0,.15-9.631.26-21.5.26s-21.5-.11-21.5-.26,9.631-.26,21.5-.26S1032.188,413,1032.188,413.1Z" transform="translate(324.458 1203.622)" fill="#e0e0e0"/>
      <path id="Trazado_109285" data-name="Trazado 109285" d="M1031.493,408.11c0,.14-8.569.26-19.141.26s-19.141-.12-19.141-.26,8.57-.26,19.141-.26S1031.493,408,1031.493,408.11Z" transform="translate(324.463 1203.617)" fill="#e0e0e0"/>
      <path id="Trazado_109288" data-name="Trazado 109288" d="M987.008,403.71a31.2,31.2,0,0,0-3,3.594,18.31,18.31,0,0,0,.25,21.164,33.5,33.5,0,0,0,3.113,3.524,4.68,4.68,0,0,1-1-.751,16.346,16.346,0,0,1-2.373-2.553,18.02,18.02,0,0,1-.26-21.594,15.114,15.114,0,0,1,2.323-2.6A4.163,4.163,0,0,1,987.008,403.71Z" transform="translate(324.448 1203.612)" fill="#f5f5f5"/>
      <path id="Trazado_109289" data-name="Trazado 109289" d="M982.177,403.18a31.21,31.21,0,0,0-3,3.594,18.33,18.33,0,0,0,.25,21.174,33.473,33.473,0,0,0,3.114,3.524,5.732,5.732,0,0,1-1-.761,15.928,15.928,0,0,1-2.373-2.553,18.02,18.02,0,0,1-.26-21.594,15.949,15.949,0,0,1,2.323-2.6,4.166,4.166,0,0,1,.951-.781Z" transform="translate(324.443 1203.611)" fill="#f5f5f5"/>
      <path id="Trazado_109290" data-name="Trazado 109290" d="M911.348,421.486l-.13-10.011a7.318,7.318,0,0,0-.35-2.593,2.463,2.463,0,0,0-1.912-1.612c-1.262-.551-3.224.491-4.095,1.942a9.431,9.431,0,0,0-1,4.926,69.954,69.954,0,0,0,.39,7.929,9.011,9.011,0,0,0,.931,3.634,3.414,3.414,0,0,0,3.063,1.842,3.474,3.474,0,0,0,2.673-2.343A10.148,10.148,0,0,0,911.348,421.486Z" transform="translate(324.363 1203.616)" fill="#f5f5f5"/>
      <path id="Trazado_109291" data-name="Trazado 109291" d="M966.621,418.58c0,.15-10.292.26-23.026.26s-23.026-.11-23.026-.26,10.292-.26,23.026-.26S966.621,418.44,966.621,418.58Z" transform="translate(324.382 1203.628)" fill="#f5f5f5"/>
      <path id="Trazado_109292" data-name="Trazado 109292" d="M901.82,402.746l-.27-23.416H914.3l.44,23.416Z" transform="translate(324.361 1203.585)" fill="#f5f5f5"/>
      <path id="Trazado_109293" data-name="Trazado 109293" d="M913.543,383.49a68.8,68.8,0,0,1-11.843,0,66.852,66.852,0,0,1,11.843,0Z" transform="translate(324.361 1203.589)" fill="#e0e0e0"/>
      <path id="Trazado_109294" data-name="Trazado 109294" d="M913.543,387.1a68.809,68.809,0,0,1-11.843,0,66.844,66.844,0,0,1,11.843,0Z" transform="translate(324.361 1203.593)" fill="#e0e0e0"/>
      <path id="Trazado_109295" data-name="Trazado 109295" d="M913.543,390.71a68.8,68.8,0,0,1-11.843,0A66.845,66.845,0,0,1,913.543,390.71Z" transform="translate(324.361 1203.597)" fill="#e0e0e0"/>
      <path id="Trazado_109296" data-name="Trazado 109296" d="M913.543,394.32a68.806,68.806,0,0,1-11.843,0,66.842,66.842,0,0,1,11.843,0Z" transform="translate(324.361 1203.601)" fill="#e0e0e0"/>
      <path id="Trazado_109297" data-name="Trazado 109297" d="M913.543,397.93a68.8,68.8,0,0,1-11.843,0A66.845,66.845,0,0,1,913.543,397.93Z" transform="translate(324.361 1203.605)" fill="#e0e0e0"/>
      <path id="Trazado_109298" data-name="Trazado 109298" d="M900.91,378.71h141.248c1.742,7.759,1.5,16.288,0,25.308H901.481V402.3h8.6a4,4,0,0,0,4-3.955V384.276a4,4,0,0,0-4-4.065H900.9Z" transform="translate(324.36 1203.584)" fill="#ebebeb"/>
      <path id="Trazado_109299" data-name="Trazado 109299" d="M934.244,391.375H936.6a.582.582,0,0,1,.26.06.461.461,0,0,1,.25.44v.13a2.408,2.408,0,0,1-.16.611,6.909,6.909,0,0,1-1.472,2.663,2.873,2.873,0,0,1-2,1h-.28a2.3,2.3,0,0,1-1.6-1.161,5.215,5.215,0,0,1-.711-2.833,7.108,7.108,0,0,1,.28-2,6.718,6.718,0,0,1,1.4-2.733,2.824,2.824,0,0,1,2.122-1.131,2,2,0,0,1,.891.2,2.893,2.893,0,0,1,1.382,1.722,1.014,1.014,0,0,1,0,.24.472.472,0,0,1-.07.25.5.5,0,0,1-.43.25h-.16a.47.47,0,0,1-.32-.32h0a2.673,2.673,0,0,0-.28-.561,1.331,1.331,0,0,0-1.131-.671,1.221,1.221,0,0,0-.781.28,4.084,4.084,0,0,0-1.281,1.852,6.51,6.51,0,0,0-.561,2.653,4.726,4.726,0,0,0,.4,2.092,1.371,1.371,0,0,0,1.231.921,1.682,1.682,0,0,0,1.141-.681,6.459,6.459,0,0,0,1.211-2.193h-1.692c-.37-.06-.561-.25-.561-.571a.252.252,0,0,1,0-.17A.511.511,0,0,1,934.244,391.375Z" transform="translate(324.393 1203.593)" fill="#fafafa"/>
      <path id="Trazado_109300" data-name="Trazado 109300" d="M942.256,386.77l.06.17c.1.35.661,3.264,1.672,8.76v.12a.521.521,0,0,1-.491.521h-.08a.47.47,0,0,1-.41-.33l-.561-2.9h-2.9l-1.4,2.923v.09a.561.561,0,0,1-.44.25.5.5,0,0,1-.27-.08.521.521,0,0,1-.24-.43.377.377,0,0,1,0-.15c.08-.2.23-.521.431-1q3-6.657,3.644-7.849a.521.521,0,0,1,.631-.4.511.511,0,0,1,.37.3Zm-.631,2-1.572,3.294h2.213Z" transform="translate(324.4 1203.593)" fill="#fafafa"/>
      <path id="Trazado_109301" data-name="Trazado 109301" d="M950.125,396.341H945.91a.5.5,0,0,1-.27-.08.761.761,0,0,1-.25-.541h0c0-.17.4-3.083,1.181-8.72a.545.545,0,0,1,0-.18.461.461,0,0,1,.461-.32.53.53,0,0,1,.24.06.471.471,0,0,1,.26.451c0,.391-.13,1.181-.29,2.393-.48,3.714-.741,5.686-.761,5.887h3.624a.621.621,0,0,1,.27,0,.481.481,0,0,1,.32.481v.16a.6.6,0,0,1-.57.41Z" transform="translate(324.409 1203.593)" fill="#fafafa"/>
      <path id="Trazado_109302" data-name="Trazado 109302" d="M955.915,386.77l.06.17c.1.35.651,3.264,1.662,8.76a.238.238,0,0,1,0,.12.52.52,0,0,1-.49.521h-.08a.47.47,0,0,1-.391-.35l-.561-2.9h-2.9l-1.3,2.913a.412.412,0,0,1,0,.09.591.591,0,0,1-.431.25.651.651,0,0,1-.28-.08.511.511,0,0,1-.23-.43.379.379,0,0,1,0-.15l.431-1c2-4.435,3.254-7.008,3.644-7.849a.49.49,0,0,1,.921-.06Zm-.641,2-1.562,3.294h2.2Z" transform="translate(324.416 1203.593)" fill="#fafafa"/>
      <path id="Trazado_109303" data-name="Trazado 109303" d="M962.714,391.8l.771,2.132q.661,1.8.661,1.922a.521.521,0,0,1-.511.491h0a.47.47,0,0,1-.42-.34l-.08-.22q-.36-.791-1.141-3l-2.4,3.294a.631.631,0,0,1-.451.27.6.6,0,0,1-.27-.07.471.471,0,0,1-.24-.431v-.1a1,1,0,0,1,.25-.41c.8-1.061,1.7-2.3,2.683-3.734-.11-.28-.2-.551-.3-.8-.9-2.433-1.351-3.684-1.351-3.764a.582.582,0,0,1,.06-.26.42.42,0,0,1,.41-.25.511.511,0,0,1,.48.28l1.422,3.834,2.833-3.874a.56.56,0,0,1,.45-.24.46.46,0,0,1,.48.451V387a.488.488,0,0,1,0,.24Z" transform="translate(324.424 1203.593)" fill="#fafafa"/>
      <path id="Trazado_109304" data-name="Trazado 109304" d="M973.248,386.55a.46.46,0,0,1,.23.06.48.48,0,0,1,.27.431c-.691,5.506-1.081,8.479-1.151,8.93a5.485,5.485,0,0,1-.911,2.323,3.3,3.3,0,0,1-4.185,1,3,3,0,0,1-1.5-1.281.569.569,0,0,1-.06-.25.431.431,0,0,1,.07-.25.481.481,0,0,1,.821-.05,2.743,2.743,0,0,0,2.182,1.241,2.192,2.192,0,0,0,1.692-.851,4.837,4.837,0,0,0,.941-2.683,2.865,2.865,0,0,1-.631.671,2.623,2.623,0,0,1-1.532.5h-.28a2.343,2.343,0,0,1-1.622-1.161,5.264,5.264,0,0,1-.7-2.843,12.72,12.72,0,0,1,.07-1.592c.08-.861.27-2.082.571-3.674a.331.331,0,0,1,0-.14.461.461,0,0,1,.571-.34.31.31,0,0,1,.13.06.45.45,0,0,1,.25.4c0,.26-.08.911-.23,1.942a25.036,25.036,0,0,0-.34,3,5.913,5.913,0,0,0,.38,2.313,1.352,1.352,0,0,0,1.262,1h.17a2.343,2.343,0,0,0,1.271-1,6.853,6.853,0,0,0,1.061-2.353l.641-4.855a.652.652,0,0,1,.06-.21A.46.46,0,0,1,973.248,386.55Z" transform="translate(324.432 1203.593)" fill="#fafafa"/>
      <path id="Trazado_109305" data-name="Trazado 109305" d="M1036.69,404.349c-.14,0-.26-5.816-.26-13.015s.12-13.014.26-13.014.26,5.816.26,13.014S1036.83,404.349,1036.69,404.349Z" transform="translate(324.511 1203.583)" fill="#f5f5f5"/>
      <path id="Trazado_109306" data-name="Trazado 109306" d="M921.22,404.349c-.15,0-.26-5.816-.26-13.015s.11-13.014.26-13.014.26,5.816.26,13.014S921.36,404.349,921.22,404.349Z" transform="translate(324.382 1203.583)" fill="#e0e0e0"/>
      <path id="Trazado_109307" data-name="Trazado 109307" d="M1039.16,404.349c-.14,0-.26-5.816-.26-13.015s.12-13.014.26-13.014.27,5.816.27,13.014S1039.31,404.349,1039.16,404.349Z" transform="translate(324.514 1203.583)" fill="#f5f5f5"/>
      <path id="Trazado_109308" data-name="Trazado 109308" d="M918.91,404.349c-.14,0-.26-5.816-.26-13.015s.12-13.014.26-13.014.26,5.816.26,13.014S919.05,404.349,918.91,404.349Z" transform="translate(324.38 1203.583)" fill="#e0e0e0"/>
      <path id="Trazado_109309" data-name="Trazado 109309" d="M1002.487,382.65h0l14.937,12.013.13.11h-.17l-2,.521-12.6,3.314h0l-11.433-4.845-3.234-1.382-.851-.37-.22-.1h0l.22.09.861.35,3.254,1.341,11.453,4.785h0l12.6-3.284,2-.521v.15l-14.907-12.093h0" transform="translate(324.456 1203.589)" fill="#e0e0e0"/>
      <path id="Trazado_109310" data-name="Trazado 109310" d="M1016.021,392.77l.811.761,1.091-.23-.48,1.011.571.961-1.111-.14-.741.831-.21-1.091-1.031-.451.981-.541Z" transform="translate(324.487 1203.6)" fill="#e0e0e0"/>
      <path id="Trazado_109311" data-name="Trazado 109311" d="M1001.711,397.51l.561.461.691-.19-.27.671.4.6-.721-.05-.44.571-.18-.7-.681-.25.611-.39Z" transform="translate(324.472 1203.605)" fill="#e0e0e0"/>
      <path id="Trazado_109312" data-name="Trazado 109312" d="M985.91,391.031l.881.05.551-.7.22.861.841.31-.751.471-.04.891-.681-.561-.851.24.32-.831Z" transform="translate(324.455 1203.597)" fill="#e0e0e0"/>
      <path id="Trazado_109313" data-name="Trazado 109313" d="M1022.7,382.841l.891.06.551-.7.22.861.831.31-.751.471-.03.891-.681-.571-.861.25.33-.831Z" transform="translate(324.496 1203.588)" fill="#e0e0e0"/>
      <path id="Trazado_109314" data-name="Trazado 109314" d="M1001.75,382.26l.571.04.34-.451.15.551.531.2-.481.3-.02.561-.441-.36-.541.16.21-.531Z" transform="translate(324.472 1203.588)" fill="#e0e0e0"/>
      <path id="Trazado_109315" data-name="Trazado 109315" d="M1023.934,383.461c0,.06-4.835-.1-10.792-.35s-10.782-.511-10.772-.571,4.825.1,10.782.36S1023.934,383.411,1023.934,383.461Z" transform="translate(324.473 1203.588)" fill="#e0e0e0"/>
      <path id="Trazado_109316" data-name="Trazado 109316" d="M1029.532,378.5H886.252c-1.872-4.255-2.333-8.3,0-11.923h143.28a13.9,13.9,0,0,1,0,11.923Z" transform="translate(324.342 1203.57)" fill="#e0e0e0"/>
      <rect id="Rectángulo_8737" data-name="Rectángulo 8737" width="77.617" height="4.345" transform="translate(1240.266 1573.555)" fill="#ebebeb"/>
      <path id="Trazado_109319" data-name="Trazado 109319" d="M1023.58,378.293a18.02,18.02,0,0,0,.06-11.673,10.323,10.323,0,0,1,1.462,5.847,10.571,10.571,0,0,1-1.522,5.827Z" transform="translate(324.497 1203.571)" fill="#f5f5f5"/>
      <path id="Trazado_109320" data-name="Trazado 109320" d="M1020.91,378.263c-.15,0,.45-2.553.43-5.716s-.6-5.666-.441-5.706a17.579,17.579,0,0,1,0,11.423Z" transform="translate(324.494 1203.571)" fill="#f5f5f5"/>
      <g id="Grupo_63674" data-name="Grupo 63674" transform="translate(1260.153 1411.644)">
        <g id="Grupo_58274" data-name="Grupo 58274" transform="translate(0 0)">
          <g id="Grupo_58271" data-name="Grupo 58271" transform="translate(0 29.824)">
            <rect id="Rectángulo_8752" data-name="Rectángulo 8752" width="36.315" height="99.36" fill="#c5e5fe"/>
            <rect id="Rectángulo_8753" data-name="Rectángulo 8753" width="22.848" height="43.149" transform="translate(6.733 6.521)" fill="#aed3f2"/>
            <path id="Trazado_109478" data-name="Trazado 109478" d="M118.055,407.978A8.978,8.978,0,1,1,109.1,399,8.978,8.978,0,0,1,118.055,407.978Z" transform="translate(-90.92 -329.636)" fill="#aed3f2"/>
            <rect id="Rectángulo_8754" data-name="Rectángulo 8754" width="14.285" height="3.67" transform="translate(11.02 14.477)" fill="#6595bf"/>
            <rect id="Rectángulo_8755" data-name="Rectángulo 8755" width="14.285" height="3.67" transform="translate(11.02 22.232)" fill="#6595bf"/>
          </g>
          <g id="Grupo_58272" data-name="Grupo 58272" transform="translate(39.368 13.355)">
            <rect id="Rectángulo_8756" data-name="Rectángulo 8756" width="36.315" height="115.839" fill="#c5e5fe"/>
            <rect id="Rectángulo_8757" data-name="Rectángulo 8757" width="22.848" height="43.149" transform="translate(6.723 6.531)" fill="#aed3f2"/>
            <path id="Trazado_109479" data-name="Trazado 109479" d="M157,408a8.978,8.978,0,1,1-8.978-8.978A8.978,8.978,0,0,1,157,408Z" transform="translate(-129.86 -313.167)" fill="#aed3f2"/>
            <rect id="Rectángulo_8758" data-name="Rectángulo 8758" width="14.285" height="3.67" transform="translate(11.01 14.487)" fill="#6595bf"/>
            <rect id="Rectángulo_8759" data-name="Rectángulo 8759" width="14.285" height="3.67" transform="translate(11.01 22.242)" fill="#6595bf"/>
          </g>
          <g id="Grupo_58273" data-name="Grupo 58273" transform="translate(78.726)">
            <path id="Trazado_196583" data-name="Trazado 196583" d="M0,0H36.315V129.194H0Z" fill="#c5e5fe"/>
            <rect id="Rectángulo_8761" data-name="Rectángulo 8761" width="22.848" height="43.149" transform="translate(6.733 6.531)" fill="#aed3f2"/>
            <path id="Trazado_109480" data-name="Trazado 109480" d="M195.925,408a8.978,8.978,0,1,1-8.978-8.978A8.978,8.978,0,0,1,195.925,408Z" transform="translate(-168.79 -299.812)" fill="#aed3f2"/>
            <rect id="Rectángulo_8762" data-name="Rectángulo 8762" width="14.285" height="3.67" transform="translate(11.02 14.487)" fill="#6595bf"/>
            <rect id="Rectángulo_8763" data-name="Rectángulo 8763" width="14.285" height="3.67" transform="translate(11.02 22.242)" fill="#6595bf"/>
          </g>
        </g>
      </g>
    </g>
  </g>
</svg>
