<svg id="Grupo_155361" data-name="Grupo 155361" xmlns="http://www.w3.org/2000/svg" xmlns:xlink="http://www.w3.org/1999/xlink" width="103.431" height="103.431" viewBox="0 0 103.431 103.431">
  <defs>
    <clipPath id="clip-path">
      <rect id="Rectángulo_47346" data-name="Rectángulo 47346" width="60.618" height="67.811" fill="#fff"/>
    </clipPath>
  </defs>
  <circle id="Elipse_5716" data-name="Elipse 5716" cx="51.715" cy="51.715" r="51.715" transform="translate(0)" fill="#7f4fc7"/>
  <g id="Grupo_156272" data-name="Grupo 156272" transform="translate(21.869 17.328)">
    <g id="Grupo_156272-2" data-name="Grupo 156272" clip-path="url(#clip-path)">
      <path id="Trazado_198349" data-name="Trazado 198349" d="M31.9,0c1.405.256,2.835.417,4.211.783A22.951,22.951,0,0,1,52.952,20.492a18.708,18.708,0,0,1-.654,8.04,10.517,10.517,0,0,1-3.145,4.728c-.146.125-.282.262-.517.481.99-.207,1.848-.4,2.71-.566a4.024,4.024,0,0,1,4.883,3.884c.018.57,0,1.142,0,1.78l.751.039a3.737,3.737,0,0,1,3.608,3.613c.039.925.038,1.853,0,2.778a3.739,3.739,0,0,1-3.277,3.588c-.327.045-.657.059-1.079.1v.7q0,4.73,0,9.46a4.1,4.1,0,0,1-3.494,4.378Q43.122,65.58,33.5,67.643a6.865,6.865,0,0,1-.915.1,35.44,35.44,0,0,1-10.778-1.227c-4.612-1.066-9.249-2.023-13.878-3.015A4.126,4.126,0,0,1,4.386,59.16q-.005-4.73,0-9.461v-.742c-.4-.037-.751-.054-1.094-.1A3.737,3.737,0,0,1,.033,45.322c-.045-.946-.042-1.9,0-2.844a3.742,3.742,0,0,1,3.621-3.6c.217-.011.433-.024.734-.04,0-.551,0-1.072,0-1.594a4.026,4.026,0,0,1,4.966-4.053c.835.162,1.667.347,2.585.538a2.428,2.428,0,0,0-.227-.262,11.376,11.376,0,0,1-4.123-8.7c-.438-9.061,3.11-16.2,10.671-21.251A21.2,21.2,0,0,1,28.088.116,3.883,3.883,0,0,0,28.59,0ZM13.82,32.518a107.492,107.492,0,0,1-.061-12.882c.039-.788-.064-1.581-.052-2.372a12.883,12.883,0,0,1,.15-2.236A11.437,11.437,0,0,1,19.535,7.34a20.67,20.67,0,0,1,15.28-2.5,16.74,16.74,0,0,1,9.215,4.83,9.975,9.975,0,0,1,2.952,7.666c-.035.636-.1,1.273-.086,1.908.053,2.071.147,4.142.205,6.213.023.811-.377,1.279-1.012,1.266-.61-.013-.949-.456-.968-1.244-.043-1.719-.112-3.438-.132-5.157a8.325,8.325,0,0,0-1.459-4.982,13.541,13.541,0,0,0-7.011-4.821c-.152-.05-.455.146-.6.308-1.448,1.656-2.812,3.391-4.331,4.978a12.992,12.992,0,0,1-4.528,3.152,3.241,3.241,0,0,1-3.671-.352c-1.158,1.04-2.233,2.115-3.423,3.042a5.339,5.339,0,0,1-4.308,1.088,3.044,3.044,0,0,0-.045.372c.038,2.755.009,5.514.156,8.263a10.825,10.825,0,0,0,.834,2.956,1.193,1.193,0,0,0,.773.578c1.756.419,3.534.743,5.286,1.175A30.84,30.84,0,0,0,32.4,37.175a5.85,5.85,0,0,0,.784-.083c3.38-.723,6.761-1.441,10.133-2.2a1.421,1.421,0,0,0,.808-.64,8.889,8.889,0,0,0,.908-4.35c.013-.785.424-1.209,1.04-1.187s.96.472.932,1.26-.078,1.6-.122,2.482c.171-.107.283-.168.385-.242a8.59,8.59,0,0,0,3.418-5.256A19.955,19.955,0,0,0,49.2,14.25,20.555,20.555,0,0,0,19.885,4.879c-7.4,4.457-10.719,11.25-10.318,19.851a10.313,10.313,0,0,0,1.567,5.129,8.38,8.38,0,0,0,2.687,2.66M28.634,39.2c0,.882,0,1.737,0,2.591,0,1.168.01,2.337-.019,3.505a.877.877,0,0,1-.929.917.912.912,0,0,1-1.006-.844,3.845,3.845,0,0,1-.03-.659c0-1.7-.015-3.4.008-5.093.006-.462-.089-.688-.6-.8C20.329,37.6,14.61,36.342,8.886,35.111a2.042,2.042,0,0,0-2.508,1.954c-.027.528.013,1.059-.014,1.587a.765.765,0,0,0,.437.786,3.621,3.621,0,0,1,1.807,3.184c.016.837.014,1.676,0,2.513a3.638,3.638,0,0,1-1.8,3.19.8.8,0,0,0-.446.776c.015,3.373.005,6.746.011,10.12a2.118,2.118,0,0,0,1.893,2.313q6.584,1.424,13.166,2.855c1.712.371,3.425.736,5.218,1.12v-.86q0-7.441,0-14.882a3.22,3.22,0,0,1,.077-.85.966.966,0,0,1,1.868.1,4.729,4.729,0,0,1,.035.791q0,7.574,0,15.147v.757h3.315V39.2ZM33.97,65.453a1.024,1.024,0,0,0,.219.022q9.163-1.981,18.324-3.972a2.059,2.059,0,0,0,1.732-2.18c.01-3.416,0-6.833.013-10.249a.738.738,0,0,0-.414-.726,3.681,3.681,0,0,1-1.835-3.3c0-.815-.006-1.631,0-2.447a3.192,3.192,0,0,1,1.36-2.8,1.771,1.771,0,0,0,.882-1.959c-.022-.2,0-.4,0-.595a2.056,2.056,0,0,0-2.665-2.091c-5.636,1.215-11.27,2.443-16.91,3.637-.57.121-.718.35-.716.91q.027,12.53.013,25.061Zm.172-55.528A3.314,3.314,0,0,0,33.6,9.8a54.269,54.269,0,0,0-5.531-.1,15.705,15.705,0,0,0-8.486,3.173c-2.392,1.824-3.951,4.118-3.856,7.288.014.466.166.707.586.635a5.68,5.68,0,0,0,2.12-.546,14.971,14.971,0,0,0,2.73-2.361,27.048,27.048,0,0,0,2.073-2.815c.408-.58.878-.766,1.391-.5a1.017,1.017,0,0,1,.412,1.365c-.073.207-.152.414-.205.627-.156.619.023.887.649.755a5.877,5.877,0,0,0,1.834-.687,24.479,24.479,0,0,0,6.829-6.7m-27.518,34c0-.44.017-.881,0-1.319A1.747,1.747,0,0,0,4.9,40.867a10.356,10.356,0,0,0-1.055-.007,1.774,1.774,0,0,0-1.837,1.832c-.023.791-.022,1.584,0,2.375a1.781,1.781,0,0,0,1.761,1.848A6.707,6.707,0,0,0,4.955,46.9,1.761,1.761,0,0,0,6.623,45.11c.014-.4,0-.792,0-1.188m51.992-.039c0-.4.013-.792,0-1.187a1.784,1.784,0,0,0-1.835-1.836c-.329-.014-.66-.014-.989,0a1.753,1.753,0,0,0-1.79,1.8q-.03,1.22,0,2.441a1.75,1.75,0,0,0,1.661,1.8,6.707,6.707,0,0,0,1.186.013,1.792,1.792,0,0,0,1.768-1.844c.016-.4,0-.792,0-1.188M43.375,12.055a10.438,10.438,0,0,0-3.482-3.178A19.107,19.107,0,0,0,25.524,6.958a14.293,14.293,0,0,0-7.68,4.382c-.139.156-.257.332-.385.5,6.948-5.831,19.255-5.718,25.916.216" transform="translate(0 0.001)" fill="#fff"/>
      <path id="Trazado_198350" data-name="Trazado 198350" d="M64.725,74.666a4.578,4.578,0,0,1-3.956-2.353,1.034,1.034,0,0,1,.239-1.51c.528-.327,1.067-.139,1.476.512a2.54,2.54,0,0,0,4.48.027c.424-.671.939-.865,1.467-.554.554.325.646.9.22,1.607a4.569,4.569,0,0,1-3.926,2.271" transform="translate(-34.389 -40.119)" fill="#fff"/>
      <path id="Trazado_198351" data-name="Trazado 198351" d="M50.11,58.318a2.6,2.6,0,0,1,.4.214.919.919,0,0,1,.388,1.205.876.876,0,0,1-1.187.554A6.158,6.158,0,0,0,46.29,59.9a.881.881,0,0,1-1.021-.818.952.952,0,0,1,.777-1.124c.235-.054.477-.083.717-.115.214-.027.43-.041.529-.051a16.11,16.11,0,0,1,.247-1.992,1.243,1.243,0,0,1,1.2-1.059,1.224,1.224,0,0,1,1.237,1.088,18.132,18.132,0,0,1,.14,2.485" transform="translate(-25.699 -31.09)" fill="#fff"/>
      <path id="Trazado_198352" data-name="Trazado 198352" d="M83.042,58.2a3.16,3.16,0,0,1-.083-2.485,1.307,1.307,0,0,1,1.2-.98,1.2,1.2,0,0,1,1.181.985,15.882,15.882,0,0,1,.286,2.064c.27.037.7.083,1.127.157a.989.989,0,1,1-.278,1.953,5.359,5.359,0,0,0-3.162.358.957.957,0,0,1-1.292-.454,1,1,0,0,1,.49-1.338c.151-.087.314-.154.529-.259" transform="translate(-46.524 -31.085)" fill="#fff"/>
      <path id="Trazado_198353" data-name="Trazado 198353" d="M101.476,95.756a.933.933,0,0,1,1,.807.958.958,0,0,1-.829,1.152c-1.479.344-2.965.658-4.45.979q-2.935.635-5.873,1.261c-.194.041-.387.089-.583.115a.982.982,0,0,1-1.181-.786.951.951,0,0,1,.776-1.124c1.047-.256,2.1-.47,3.158-.7q3.741-.817,7.483-1.63c.172-.037.348-.051.5-.073" transform="translate(-50.849 -54.38)" fill="#fff"/>
      <path id="Trazado_198354" data-name="Trazado 198354" d="M90.6,108.634a.958.958,0,0,1-1.052-.836.982.982,0,0,1,.872-1.127c1.674-.38,3.354-.736,5.032-1.1q2.709-.589,5.42-1.174a4.182,4.182,0,0,1,.456-.077.958.958,0,0,1,1.137.754.928.928,0,0,1-.73,1.15c-1.219.3-2.449.542-3.674.811q-3.483.762-6.966,1.523c-.172.038-.348.054-.5.077" transform="translate(-50.845 -59.239)" fill="#fff"/>
    </g>
  </g>
</svg>
