<svg id="Grupo_155361" data-name="Grupo 155361" xmlns="http://www.w3.org/2000/svg" xmlns:xlink="http://www.w3.org/1999/xlink" width="103.431" height="103.431" viewBox="0 0 103.431 103.431">
  <defs>
    <clipPath id="clip-path">
      <rect id="Rectángulo_47329" data-name="Rectángulo 47329" width="70.607" height="64.772" fill="#fff"/>
    </clipPath>
  </defs>
  <circle id="Elipse_5716" data-name="Elipse 5716" cx="51.715" cy="51.715" r="51.715" transform="translate(0)" fill="#7f4fc7"/>
  <g id="Grupo_156268" data-name="Grupo 156268" transform="translate(18.87 17.914)">
    <g id="Grupo_156268-2" data-name="Grupo 156268" clip-path="url(#clip-path)">
      <path id="Trazado_198321" data-name="Trazado 198321" d="M0,59.553V46.314a1.166,1.166,0,0,0,.112-.247A6.036,6.036,0,0,1,3.3,41.8a3.175,3.175,0,0,0,.323-.232c-.071-.136-.126-.236-.176-.338a3.658,3.658,0,0,1,2.889-5.343,9.5,9.5,0,0,1,1.652-.023.647.647,0,0,0,.739-.52,11.024,11.024,0,0,0,.025-7.816.713.713,0,0,0-.851-.567,9.446,9.446,0,0,1-1.24,0,3.676,3.676,0,0,1-.227-7.342c.277-.028.554-.047.942-.079-.261-.225-.417-.355-.567-.491A10.482,10.482,0,0,1,3.265,8.69,10.737,10.737,0,0,1,13.968.007Q31.2-.012,48.44,0c.161,0,.322,0,.483.009a3.771,3.771,0,0,1,3.45,2.8,3.578,3.578,0,0,1-1.625,4.05,7,7,0,0,1-2.422.609c-.463.059-.678.18-.823.618a8.682,8.682,0,0,0-.113,5.152c.192.7.454.989,1.245.972a3.65,3.65,0,0,1,3.833,3.525,10.692,10.692,0,0,1-.229,1.864c.807,0,1.632,0,2.456,0A6.052,6.052,0,0,1,61.1,25.994c.005,3.217-.029,6.435.012,9.652.025,1.933-.036,3.818-1.514,5.506h.911c2.229.008,4.46-.035,6.686.042a3.641,3.641,0,0,1,.515,7.2,11.492,11.492,0,0,1-2.125.111.59.59,0,0,0-.657.438,10.711,10.711,0,0,0,.019,8,.9.9,0,0,0,.63.437c.658.082,1.336.016,1.991.111a3.64,3.64,0,0,1,2.953,4.327,3.716,3.716,0,0,1-3.935,2.957q-14.375,0-28.75,0-15.72,0-31.439,0a6.309,6.309,0,0,1-4.624-1.786A6.92,6.92,0,0,1,0,59.553m17.91-11c-.191-.02-.3-.043-.411-.043-3.172,0-6.343.008-9.515-.012-.548,0-.65.24-.648.71.013,2.413.006,4.826.006,7.24,0,.941,0,.942.955.942H62.9a12.824,12.824,0,0,1-.015-8.883H48.779a3.028,3.028,0,0,1-.687-.029.97.97,0,0,1-.834-1.092.949.949,0,0,1,.929-.934,6.21,6.21,0,0,1,.689-.012H66.389a5.636,5.636,0,0,0,.688-.016,1.622,1.622,0,0,0,1.456-1.643,1.581,1.581,0,0,0-1.48-1.535,7.146,7.146,0,0,0-.757-.025H28.711v3.222H42.623a5.59,5.59,0,0,1,.62.011.957.957,0,0,1,.942,1,.979.979,0,0,1-.9,1.044,3.336,3.336,0,0,1-.619.017H28.647c0,1.218,0,2.341,0,3.464a1.469,1.469,0,0,1-.777,1.5,1.437,1.437,0,0,1-1.637-.385c-.4-.345-.775-.719-1.157-1.083-.6-.567-1.191-1.137-1.8-1.719-1.011.958-1.969,1.885-2.95,2.786a1.434,1.434,0,0,1-1.633.41A1.411,1.411,0,0,1,17.908,52c.008-1.124,0-2.248,0-3.445M45.377,7.5H30.4a6.331,6.331,0,0,1-.757-.021.989.989,0,0,1-.974-1.038.981.981,0,0,1,1.011-1c.228-.02.459-.01.689-.01q8.859,0,17.719,0a5.255,5.255,0,0,0,1.028-.07,1.527,1.527,0,0,0,1.227-1.169,1.612,1.612,0,0,0-1.163-2.031,3.252,3.252,0,0,0-.818-.086q-17.2-.006-34.4,0a8.773,8.773,0,0,0-8.578,11A8.915,8.915,0,0,0,14.2,19.625c11.353-.057,22.707-.018,34.06-.02a5.9,5.9,0,0,0,.688-.027,1.637,1.637,0,0,0,1.462-1.5,1.6,1.6,0,0,0-1.125-1.7,3.866,3.866,0,0,0-1.086-.117q-16.857-.009-33.715-.005c-.345,0-.69,0-1.034-.015a5.428,5.428,0,0,1-4.95-6.12A5.359,5.359,0,0,1,14,5.44c3.425-.023,6.849-.006,10.273,0a2.536,2.536,0,0,1,.548.04.864.864,0,0,1,.772.977,1.817,1.817,0,0,1-.721.957c-.2.15-.576.088-.873.089q-4.826.007-9.653,0a8.378,8.378,0,0,0-.894.034,3.343,3.343,0,0,0,.637,6.652q15.375.005,30.75,0h.552A27.574,27.574,0,0,1,45,10.885,28.8,28.8,0,0,1,45.377,7.5M28.687,41.114c.253.014.456.035.659.035q12.722,0,25.443,0a3.963,3.963,0,0,0,4.246-4.278q.008-5.412,0-10.825a4,4,0,0,0-4.369-4.369q-23.72,0-47.439,0a4.547,4.547,0,0,0-.823.053,1.581,1.581,0,0,0-.078,3.1,5.057,5.057,0,0,0,1.094.084q22.823.006,45.646,0c1.894,0,2.769.883,2.77,2.794,0,2.436-.058,4.874.021,7.308A2.644,2.644,0,0,1,52.9,37.952c-7.791-.064-15.583-.025-23.375-.025h-.839ZM17.879,43.281a2.464,2.464,0,0,0-.338-.056c-3.837,0-7.675-.037-11.511.017a3.894,3.894,0,0,0-3.958,4.133q-.012,5.514,0,11.029A4,4,0,0,0,6.383,62.7q30.054,0,60.108,0a3.513,3.513,0,0,0,.818-.075A1.583,1.583,0,0,0,68.533,61a1.566,1.566,0,0,0-1.307-1.478,6.525,6.525,0,0,0-1.1-.062q-29.02,0-58.04,0c-1.94,0-2.814-.877-2.815-2.822q0-3.757,0-7.514a2.407,2.407,0,0,1,2.682-2.682q4.583-.006,9.168,0h.754Zm10.807-7.453c.194.013.329.029.464.029q11.963,0,23.925.011c.552,0,.709-.194.7-.724-.021-2.413-.008-4.826-.009-7.24,0-.919,0-.921-.9-.921H10.817c.253,1.146.493,2.234.749,3.395h.865q11.549,0,23.1,0c.9,0,1.412.407,1.386,1.072-.025.64-.5.99-1.389.993-1.677.005-3.355,0-5.033,0H28.686Zm-2.156,14.7V32.492h-6.5V50.5c.831-.79,1.573-1.5,2.32-2.207.694-.655,1.131-.657,1.838,0,.753.7,1.495,1.417,2.342,2.222M17.882,37.965c-.23-.016-.386-.036-.543-.036q-5.2,0-10.394,0a2.568,2.568,0,0,0-.744.1A1.582,1.582,0,0,0,6.392,41.1a4.243,4.243,0,0,0,.753.051q4.991,0,9.981,0c.245,0,.491-.022.756-.034Zm-.028-2.129V32.5h-6.3c-.252,1.145-.489,2.227-.733,3.336Z" transform="translate(0 0)" fill="#fff"/>
    </g>
  </g>
</svg>
