<svg id="Grupo_155361" data-name="Grupo 155361" xmlns="http://www.w3.org/2000/svg" xmlns:xlink="http://www.w3.org/1999/xlink" width="103.431" height="103.431" viewBox="0 0 103.431 103.431">
  <defs>
    <clipPath id="clip-path">
      <rect id="Rectángulo_47345" data-name="Rectángulo 47345" width="72.703" height="49.348" fill="#fff"/>
    </clipPath>
  </defs>
  <circle id="Elipse_5716" data-name="Elipse 5716" cx="51.715" cy="51.715" r="51.715" transform="translate(0)" fill="#7f4fc7"/>
  <g id="Grupo_156271" data-name="Grupo 156271" transform="translate(15 27)">
    <g id="Grupo_156271-2" data-name="Grupo 156271" transform="translate(0 0)" clip-path="url(#clip-path)">
      <path id="Trazado_198337" data-name="Trazado 198337" d="M67.2,72.507q-24.379.03-48.758.011c-3.785,0-7.57-.009-11.355.011-.491,0-.637-.119-.634-.623.023-3.241,0-6.482.016-9.723a3.814,3.814,0,0,1,4.118-4.042c1.585,0,3.17.005,4.755,0,.793,0,1.25-.385,1.268-1.024.018-.67-.457-1.1-1.276-1.1-1.7-.01-3.407-.03-5.109.006A5.834,5.834,0,0,0,5.573,58.34a6.139,6.139,0,0,0-1.239,3.976c.018,3.217.008,6.435,0,9.652,0,.281.109.575-.383.667A5.6,5.6,0,0,0,0,75.58v.71c.712.814,1.458.933,1.916.2a4.058,4.058,0,0,1,3.867-1.852q30.6.03,61.191.014c.284,0,.568,0,.852.014a3.418,3.418,0,0,1,2.742,1.525c.7.989,1.334,1.011,2.135.1v-.71a5.825,5.825,0,0,0-5.5-3.073" transform="translate(0 -27.627)" fill="#fff"/>
      <path id="Trazado_198338" data-name="Trazado 198338" d="M38.522,17.817q0,9.441,0,18.882a5.851,5.851,0,0,0,.051.919,1.958,1.958,0,0,0,2.834,1.474,3.022,3.022,0,0,0,1.159-.914,1.229,1.229,0,0,1,1.152-.491q18.634.017,37.267.01c2.726,0,4.249,1.528,4.253,4.267q.005,2.911,0,5.821a1.265,1.265,0,0,0,.428,1.144.982.982,0,0,0,1.064.13,1.088,1.088,0,0,0,.636-1.091q0-3.016,0-6.034a7.418,7.418,0,0,0-.138-1.693,5.949,5.949,0,0,0-6.046-4.673q-14.765-.008-29.53,0H44.961a3.671,3.671,0,0,1,3.447-1.986c10.647.066,21.3.007,31.943.057a3.01,3.01,0,0,0,3.293-3.316c-.089-4.186-.027-8.376-.027-12.564,0-2.159-1.048-3.2-3.231-3.2H41.77c-2.222,0-3.248,1.028-3.248,3.257M40.651,36.34q0-9.262,0-18.525c0-1.024.1-1.125,1.146-1.125H80.339c1.052,0,1.148.094,1.148,1.114q0,6.317,0,12.634c0,.947-.1,1.045-1.066,1.045q-16.148,0-32.295-.01a4.879,4.879,0,0,0-4.151,1.855c-1,1.255-2.115,2.413-3.322,3.773Z" transform="translate(-19.005 -7.183)" fill="#fff"/>
      <path id="Trazado_198339" data-name="Trazado 198339" d="M48.551,65.661c-8.35-.021-16.7-.008-25.052-.008a4.721,4.721,0,0,0-2.443.61,4.525,4.525,0,0,0-2.116,5.052,4.466,4.466,0,0,0,4.309,3.363c4.258.023,8.516.007,12.774.008q6.174,0,12.348,0a5.7,5.7,0,0,0,1.341-.095,4.558,4.558,0,0,0,3.532-4.751,4.494,4.494,0,0,0-4.694-4.179m.9,6.8a3.29,3.29,0,0,1-1.053.1q-6.175,0-12.35,0c-4.235,0-8.47.007-12.705,0a2.361,2.361,0,0,1-2.393-2,2.417,2.417,0,0,1,1.518-2.606,2.956,2.956,0,0,1,1.115-.16q12.457,0,24.914,0a2.4,2.4,0,0,1,.955,4.67" transform="translate(-9.275 -32.388)" fill="#fff"/>
      <path id="Trazado_198340" data-name="Trazado 198340" d="M91.875,69.449a4.767,4.767,0,1,0,9.533-.043,4.767,4.767,0,0,0-9.533.043m7.4.028a2.631,2.631,0,0,1-2.641,2.6,2.6,2.6,0,0,1-2.631-2.59A2.625,2.625,0,0,1,96.629,66.8a2.671,2.671,0,0,1,2.648,2.676" transform="translate(-45.327 -31.905)" fill="#fff"/>
      <path id="Trazado_198341" data-name="Trazado 198341" d="M116.83,71.648a10.732,10.732,0,0,0-.955.947,1.066,1.066,0,1,0,1.483,1.506c.749-.719,1.472-1.467,2.209-2.2a1.09,1.09,0,0,0,.34-.824,1.036,1.036,0,0,0-.325-.757c-.77-.767-1.524-1.549-2.309-2.3a1.025,1.025,0,0,0-1.515-.006,1.042,1.042,0,0,0,.036,1.518,8.426,8.426,0,0,0,1.058,1.043c.533.4.434.7-.023,1.072" transform="translate(-56.957 -33.392)" fill="#fff"/>
      <path id="Trazado_198342" data-name="Trazado 198342" d="M30,7.391a1.073,1.073,0,0,0,1.629.095c.445-.449.4-1.063-.154-1.627-.693-.709-1.4-1.4-2.1-2.1a1.386,1.386,0,0,0-.87-.451,1.065,1.065,0,0,0-.959.6,1.007,1.007,0,0,0,.205,1.234c.744.758,1.49,1.516,2.252,2.256" transform="translate(-13.529 -1.629)" fill="#fff"/>
      <path id="Trazado_198343" data-name="Trazado 198343" d="M39.621,4.764a1,1,0,0,0,1-1c.03-.447.006-.9.006-1.348h.013q0-.6,0-1.207c0-.048,0-.095-.007-.142A1.084,1.084,0,0,0,39.615,0a1.038,1.038,0,0,0-1.076,1.006c-.041.921-.042,1.846,0,2.767a1.007,1.007,0,0,0,1.081.991" transform="translate(-18.998 0)" fill="#fff"/>
      <path id="Trazado_198344" data-name="Trazado 198344" d="M25.685,16.891c.4.021.8,0,1.206,0,.426,0,.853.02,1.278-.005a1.057,1.057,0,0,0-.03-2.114c-.827-.024-1.657-.026-2.484,0a1.021,1.021,0,0,0-1.036,1.036,1.033,1.033,0,0,0,1.066,1.079" transform="translate(-12.146 -7.28)" fill="#fff"/>
      <path id="Trazado_198345" data-name="Trazado 198345" d="M50.529,33.265c.611.061,1.07-.323,1.3-1.065.448-1.427.887-2.857,1.377-4.441.5,1.607.952,3.065,1.4,4.525a1.2,1.2,0,0,0,1.293.978,1.258,1.258,0,0,0,1.187-1.127q.178-.9.36-1.8c.389-1.943.783-3.886,1.166-5.83a1.081,1.081,0,0,0-.774-1.378,1.065,1.065,0,0,0-1.318.951c-.056.253-.1.51-.15.764l-.729,3.578c-.479-1.561-.9-2.909-1.306-4.262-.174-.582-.428-1.077-1.128-1.072s-.945.483-1.12,1.076c-.4,1.352-.836,2.692-1.258,4.037l-.112-.006c-.274-1.364-.536-2.731-.826-4.092-.168-.786-.619-1.116-1.277-1-.637.117-.938.635-.789,1.409q.73,3.788,1.476,7.574a1.31,1.31,0,0,0,1.224,1.179" transform="translate(-23.579 -11.386)" fill="#fff"/>
      <path id="Trazado_198346" data-name="Trazado 198346" d="M73.677,32.055a1.319,1.319,0,0,0,1.269,1.21c.729,0,1.08-.452,1.276-1.108.425-1.422.875-2.837,1.319-4.264a.985.985,0,0,1,.246.508c.384,1.263.775,2.524,1.159,3.786a1.3,1.3,0,0,0,1.3,1.084c.62-.005,1.075-.482,1.229-1.249q.748-3.712,1.49-7.426c.16-.8-.145-1.368-.792-1.483-.679-.12-1.12.24-1.291,1.07q-.413,2-.818,4.01l-.118-.027c-.434-1.394-.874-2.787-1.3-4.184a1.1,1.1,0,0,0-.823-.874c-.622-.135-1.085.164-1.313.885-.446,1.409-.876,2.824-1.37,4.42-.321-1.587-.589-2.975-.887-4.356-.164-.762-.651-1.093-1.306-.947a1.044,1.044,0,0,0-.755,1.372q.733,3.788,1.48,7.574" transform="translate(-35.602 -11.384)" fill="#fff"/>
      <path id="Trazado_198347" data-name="Trazado 198347" d="M97.572,32.143a1.261,1.261,0,0,0,2.5.065c.426-1.422.877-2.837,1.378-4.449.5,1.616.954,3.049,1.389,4.487a1.258,1.258,0,0,0,1.268,1.027,1.3,1.3,0,0,0,1.22-1.172c.22-1.039.427-2.081.636-3.122.3-1.481.6-2.961.887-4.444a1.084,1.084,0,0,0-.8-1.421c-.66-.12-1.132.24-1.293.993-.059.277-.092.56-.161.834a25.129,25.129,0,0,1-.759,3.291c-.455-1.465-.9-2.857-1.316-4.256a1.067,1.067,0,0,0-1.039-.894,1.085,1.085,0,0,0-1.1.913c-.133.428-.259.858-.392,1.285q-.458,1.471-.92,2.942c-.368-1.365-.629-2.7-.891-4.044-.112-.574-.351-1.039-1.016-1.1a1.031,1.031,0,0,0-1.1,1.347q.73,3.861,1.511,7.713" transform="translate(-47.379 -11.386)" fill="#fff"/>
      <path id="Trazado_198348" data-name="Trazado 198348" d="M36.219,72.542q-4.295-.012-8.589,0c-.815,0-1.3.434-1.275,1.1.02.635.484,1.018,1.274,1.022,1.4.008,2.792,0,4.188,0,1.467,0,2.934.007,4.4,0,.792-.005,1.229-.394,1.23-1.056S37,72.544,36.219,72.542" transform="translate(-13.002 -35.786)" fill="#fff"/>
    </g>
  </g>
</svg>
